<svg width="346" height="235" viewBox="0 0 346 235" fill="none" xmlns="http://www.w3.org/2000/svg">
<rect width="346" height="235" rx="28" fill="#874BFF"/>
<mask id="mask0_4697_21565" style="mask-type:alpha" maskUnits="userSpaceOnUse" x="0" y="0" width="346" height="235">
<rect width="346" height="235" rx="28" fill="#5906FF"/>
</mask>
<g mask="url(#mask0_4697_21565)">
<rect x="-21" y="128.762" width="374.863" height="304.54" transform="rotate(-10.7253 -21 128.762)" fill="#D0BCFF"/>
</g>
<g clip-path="url(#clip0_4697_21565)">
<path d="M314.691 1.16152C312.397 4.09203 310.006 6.92929 307.321 9.52013C300.943 15.6775 293.74 20.6894 285.953 24.882C285.247 25.2616 285.024 25.5813 285.18 26.4471C286.689 34.6525 288.128 42.8713 289.587 51.0867C291.268 60.5809 292.95 70.0751 294.629 79.5726C295.748 85.8831 296.827 92.2004 298.016 98.4976C298.262 99.803 297.71 100.239 296.66 100.436C294.582 100.825 292.494 101.178 290.409 101.541C280.494 103.276 270.58 105.011 260.665 106.743C248.722 108.831 236.782 110.919 224.836 112.984C224.02 113.124 223.221 113.61 222.315 113.007C221.845 112.694 221.632 112.378 221.549 111.888C219.547 100.276 217.546 88.6638 215.544 77.0483C213.769 66.7449 211.98 56.4449 210.242 46.1348C210.095 45.2557 209.656 44.8361 208.923 44.5097C208.21 44.19 207.501 43.4807 206.838 43.5307C206.139 43.5839 205.826 44.6229 205.333 45.2157C201.02 50.394 195.751 54.4268 190.019 57.8735C177.833 65.2031 164.691 69.9319 150.637 72.0998C146.777 72.6959 142.883 72.9756 138.974 72.8857C138.451 72.8724 138.247 72.9456 138.421 73.5117C138.74 74.5607 138.82 75.6497 138.89 76.7353C138.91 77.0383 138.877 77.3014 139.303 77.408C145.178 78.9099 150.524 81.6839 155.829 84.4978C162.03 87.788 168.038 91.4078 173.59 95.7336C177.424 98.7208 180.884 102.111 183.935 105.884C184.784 106.933 185.094 108.371 185.423 109.717C186.219 112.98 186.273 116.304 186.229 119.631C186.143 126.434 185.423 133.217 185.64 140.028C185.89 147.91 186.596 155.726 189.763 163.089C191.325 166.722 192.97 170.322 194.592 173.928C195.155 175.177 195.025 176.526 195.175 177.828C195.874 183.862 196.507 189.903 197.163 195.944C197.18 196.094 197.183 196.247 197.2 196.397C197.253 196.826 197.196 197.242 196.697 197.309C196.144 197.382 195.994 196.963 195.941 196.503C195.921 196.333 195.974 196.137 195.714 195.95C194.549 196.796 193.356 197.655 192.171 198.528C187.928 201.641 183.691 204.762 179.449 207.872C179.076 208.145 178.649 208.618 178.2 208.075C177.78 207.569 178.133 207.133 178.526 206.743C183.918 201.395 189.303 196.037 194.709 190.702C195.122 190.296 195.258 189.916 195.195 189.357C194.685 184.731 194.209 180.102 193.693 175.48C193.563 174.324 192.904 173.335 192.481 172.273C192.018 171.108 191.481 169.972 190.775 168.833C190.316 170.571 189.85 172.306 189.4 174.048C187.938 179.723 186.482 185.397 185.03 191.075C184.821 191.891 184.211 191.671 183.715 191.548C182.046 191.128 180.388 190.659 178.729 190.209C177.504 189.876 176.278 189.556 175.056 189.213C173.893 188.887 173.683 188.497 173.833 187.299C174.546 181.664 175.242 176.03 175.945 170.392C176.584 165.267 177.227 160.142 177.863 155.013C178.076 153.311 178.28 151.61 178.489 149.898C178.08 149.871 177.88 150.138 177.64 150.298C175.215 151.949 172.794 153.604 170.386 155.276C169.677 155.769 168.941 155.952 168.085 155.816C166.803 155.609 165.511 155.459 164.218 155.3C163.039 155.153 162.656 154.517 163.129 153.428C166.17 146.455 169.217 139.481 172.261 132.508C175.848 124.289 179.435 116.067 183.032 107.852C183.205 107.456 183.232 107.179 182.949 106.796C181.14 104.355 178.986 102.234 176.784 100.159C171.459 95.1442 165.284 91.3346 158.983 87.7114C153.428 84.5145 147.716 81.6306 141.728 79.3195C141.645 79.2862 141.558 79.2529 141.471 79.2296C138.021 78.1939 138.774 77.7909 135.663 80.1853C131.637 83.2856 129.272 87.385 129.285 92.6266C129.289 94.1818 129.668 95.5039 130.94 96.6294C133.142 98.5742 135.34 100.512 137.701 102.257C137.818 102.344 137.924 102.47 138.188 102.401C137.864 100.396 137.545 98.3811 137.215 96.3697C136.962 94.8179 136.702 93.2693 136.429 91.7208C136.299 90.9849 136.639 90.6152 137.325 90.5453C138.078 90.4687 138.834 90.4587 139.586 90.4088C140.163 90.3721 140.546 90.6985 140.915 91.0681C142.074 92.2204 143.256 93.3493 144.392 94.5248C144.775 94.9211 145.002 95.0077 145.468 94.5881C147.786 92.5068 150.161 90.4887 152.485 88.4107C153.105 87.8546 153.621 87.8346 154.23 88.3641C155.166 89.1766 156.095 89.9992 157.071 90.7651C157.651 91.2213 157.717 91.6642 157.431 92.3303C155.632 96.5196 153.891 100.732 152.069 104.915C151.732 105.684 151.842 106.08 152.535 106.517C153.508 107.126 154.42 107.832 155.339 108.521C156.249 109.201 156.305 109.524 155.779 110.503C155.606 110.822 155.429 111.139 155.253 111.455C154.563 112.701 154.557 112.711 155.812 113.287C156.908 113.79 158.004 114.605 159.156 114.592C160.355 114.575 160.835 113.124 161.674 112.358C164.225 110.03 167.056 108.162 170.197 106.746C170.443 106.636 170.696 106.527 170.959 106.47C171.279 106.4 171.575 106.483 171.702 106.826C171.828 107.166 171.669 107.432 171.375 107.582C170.786 107.889 170.173 108.152 169.584 108.451C162.403 112.081 157.507 117.586 155.533 125.508C155.369 126.164 155.463 126.64 155.906 127.157C157.797 129.361 159.546 131.679 161.198 134.07C161.857 135.022 161.8 135.236 160.805 135.852C159.313 136.771 157.827 137.706 156.315 138.592C155.836 138.875 155.732 139.158 155.882 139.691C156.385 141.466 156.951 143.215 157.671 144.916C157.707 144.999 157.744 145.083 157.781 145.166C157.974 145.602 158.15 146.082 157.587 146.338C157.005 146.605 156.791 146.128 156.608 145.692C155.906 144.02 155.253 142.329 154.836 140.564C154.663 139.831 154.477 139.715 153.804 140.134C147.07 144.303 140.316 148.439 133.568 152.585C131.79 153.678 130.015 154.773 128.236 155.859C126.837 156.715 126.568 156.622 126.031 155.123C125.768 154.384 125.475 153.651 125.269 152.895C125.096 152.259 124.739 152.109 124.14 152.212C122.927 152.419 121.942 153.032 121.059 153.841C118.981 155.742 117.705 158.177 116.58 160.698C115.913 162.186 115.404 163.738 114.874 165.28C114.628 165.999 114.838 166.196 115.517 166.346C120.15 167.371 124.772 168.437 129.398 169.479C130.911 169.819 130.957 169.849 130.917 171.387C130.867 173.262 130.787 175.134 130.751 177.009C130.737 177.591 130.494 177.878 129.938 178.021C128.216 178.471 126.504 178.97 124.782 179.42C124.353 179.533 124.016 179.726 123.73 180.066C121.605 182.587 119.487 185.114 117.329 187.608C116.909 188.095 116.883 188.361 117.342 188.85C119.687 191.338 121.962 193.892 124.31 196.377C124.969 197.076 125.179 197.759 124.912 198.671C124.519 200.003 124.196 201.352 123.837 202.694C123.567 203.706 123.34 203.849 122.275 203.6C119.304 202.897 116.336 202.191 113.376 201.448C112.633 201.262 112.443 201.398 112.59 202.178C113.053 204.615 113.552 207.04 114.285 209.411C114.365 209.67 114.441 209.937 114.461 210.203C114.481 210.49 114.381 210.749 114.062 210.833C113.755 210.913 113.512 210.779 113.376 210.52C113.236 210.257 113.133 209.967 113.046 209.677C111.88 205.941 111.221 202.104 110.791 198.221C110.282 193.609 110.338 188.984 110.435 184.358C110.435 184.328 110.438 184.298 110.435 184.268C110.355 183.536 110.841 182.78 110.375 182.064C109.469 180.675 108.39 179.476 106.771 178.887C103.984 177.878 101.309 178.381 98.8083 179.713C94.0524 182.244 91.0916 186.193 89.956 191.478C89.8094 192.154 89.8794 192.777 90.2457 193.389C90.6787 194.115 91.0384 194.881 91.438 195.627C91.478 195.704 91.5546 195.764 91.6678 195.89C92.6736 193.559 93.6661 191.268 94.6552 188.98C95.0416 188.086 95.7076 187.669 96.6535 187.732C97.2563 187.772 97.8624 187.782 98.4653 187.835C99.1646 187.898 99.4444 188.151 99.2479 188.967C98.6518 191.435 98.1822 193.929 97.626 196.407C97.5061 196.933 97.8125 196.956 98.1355 197.029C99.138 197.259 100.137 197.505 101.143 197.702C101.879 197.845 102.232 198.195 102.215 198.991C102.192 200.379 102.232 201.775 102.292 203.163C102.319 203.779 101.956 203.933 101.486 204.056C100.207 204.389 98.9282 204.729 97.5627 205.091C98.7417 206.763 100.007 208.262 101.319 209.72C104.96 213.766 108.933 217.42 113.795 219.984C115.76 221.019 117.819 221.802 120.04 222.045C124.126 222.491 127.057 220.527 129.418 217.446C132.326 213.653 134.144 209.311 135.653 204.828C138.148 197.416 139.653 189.776 140.742 182.047C141.188 178.877 141.585 175.7 141.854 172.506C141.874 172.266 141.931 172.03 141.994 171.797C142.074 171.497 142.284 171.331 142.597 171.357C142.9 171.387 143.1 171.577 143.123 171.887C143.143 172.157 143.133 172.43 143.107 172.699C141.954 184.302 140.206 195.787 136.296 206.84C136.193 207.133 136.156 207.383 136.286 207.702C137.328 210.257 137.961 212.927 138.497 215.625C138.584 216.051 138.657 216.544 138.084 216.654C137.455 216.777 137.368 216.264 137.285 215.798C136.882 213.52 136.332 211.282 135.566 208.961C134.764 210.629 134.064 212.191 133.275 213.71C131.956 216.244 130.394 218.608 128.259 220.55C125.212 223.321 121.678 223.947 117.785 222.914C113.229 221.705 109.459 219.105 105.945 216.091C101.436 212.225 97.6393 207.729 94.3355 202.807C93.9192 202.184 93.6594 202.114 93.0333 202.514C83.5548 208.568 74.0597 214.596 64.5713 220.63C63.5488 221.279 63.2024 221.189 62.4564 220.064C54.6765 208.315 46.8999 196.566 39.1199 184.821C38.9867 184.618 38.8668 184.405 38.707 184.225C37.891 183.296 37.8977 183.239 38.8868 182.443C44.5486 177.898 50.2004 173.342 55.8788 168.82C56.4882 168.334 56.5149 168.011 56.1019 167.365C48.1222 154.92 40.1724 142.459 32.2126 130.001C31.3167 128.599 31.37 128.326 32.7022 127.34C33.6647 126.624 34.6072 125.878 35.5797 125.179C35.9394 124.919 35.6796 124.782 35.5297 124.632C34.777 123.886 34.0277 123.137 33.2517 122.418C32.6722 121.878 32.4857 121.299 32.6122 120.48C33.8112 112.717 34.9669 104.945 36.1392 97.1756C36.4689 94.9944 36.8519 92.8198 37.1217 90.6319C37.2349 89.7028 37.6645 89.463 38.5038 89.5663C41.3847 89.9126 44.2655 90.2456 47.1497 90.5753C51.6225 91.0881 56.0953 91.5943 60.5681 92.1038C62.8494 92.3636 65.1341 92.6067 67.4088 92.9097C67.9217 92.9763 68.1648 92.8964 68.3613 92.3969C69.1639 90.3755 70.0099 88.3741 70.8392 86.3627C70.9091 86.1962 71.009 86.0163 71.0024 85.8498C70.9524 84.9907 71.4853 84.9307 72.128 84.9907C74.536 85.2204 76.9406 85.4502 79.3485 85.6767C79.5283 85.6933 79.7082 85.7166 79.8913 85.7266C81.2835 85.7866 81.2901 85.7866 81.4733 87.1419C81.6365 88.3408 81.783 89.5396 81.9396 90.7485C82.3059 90.835 82.4891 90.542 82.7089 90.3788C90.4655 84.641 98.2088 78.8866 105.982 73.1721C106.632 72.6925 107.011 72.1197 107.338 71.4337C110.055 65.7026 112.81 59.9881 115.484 54.237C115.927 53.2812 116.576 52.9516 117.505 52.885C118.861 52.7884 120.15 53.1014 121.405 53.571C124.113 54.58 126.441 56.1685 128.496 58.1865C129.142 58.8226 129.289 59.4853 128.859 60.3078C128.466 61.0571 128.156 61.8463 127.783 62.6056C127.593 62.9952 127.52 63.1884 128.093 63.3216C132.486 64.3273 135.586 66.9514 137.511 70.9875C137.765 71.5203 138.098 71.6269 138.634 71.6369C147.37 71.82 155.849 70.2682 164.182 67.8106C174.799 64.6769 184.801 60.1946 193.903 53.8341C198.062 50.9269 201.886 47.6467 205.02 43.6172C205.509 42.9878 205.669 42.6382 204.777 42.2752C203.641 41.8123 202.678 40.9598 201.4 40.8033C201.183 40.7766 200.947 40.6035 200.793 40.4336C198.952 38.4156 197.879 36.1178 198.459 33.3238C199.235 29.5708 203.055 28.4019 205.539 28.8215C206.545 28.9913 207.331 29.7573 208.227 30.2335C211.078 31.7587 213.875 33.3871 216.713 34.9423C219.451 36.4442 222.358 36.9304 225.449 36.3676C238.417 34.0065 251.39 31.6621 264.362 29.311C269.391 28.4019 274.416 27.4928 279.445 26.587C280.511 26.3938 281.41 25.8244 282.353 25.3515C292.214 20.403 301.22 14.2655 308.823 6.20333C310.628 4.28851 312.36 2.30708 313.799 0.0892233C314.925 -0.233799 314.695 0.575421 314.708 1.17817L314.691 1.16152Z" fill="black"/>
<path d="M146.807 117.504C146.847 117.464 146.887 117.42 146.924 117.38C145.988 116.198 145.079 114.993 144.11 113.837C139.45 108.292 135.587 102.068 129.945 97.3664C128.866 96.4672 127.95 95.4549 128.117 93.8697C128.187 93.2237 127.837 93.0305 127.178 93.0472C122.961 93.1538 119.048 92.0482 115.401 89.9735C114.835 89.6505 114.645 89.8103 114.385 90.2998C113.689 91.6052 112.95 92.8907 112.227 94.1828C111.957 94.6623 111.644 95.0886 111.131 95.355C107.944 97.02 104.764 98.6984 101.58 100.367C101.34 100.493 101.06 100.71 100.82 100.543C100.321 100.2 99.9911 100.51 99.6148 100.746C93.2902 104.713 86.9591 108.669 80.6445 112.652C79.9584 113.085 79.4888 113.028 78.886 112.502C75.4257 109.475 71.9354 106.481 68.4584 103.474C68.112 103.174 67.8722 102.901 67.3227 103.311C59.4862 109.142 51.6296 114.943 43.7664 120.74C43.3601 121.04 43.1903 121.257 43.5366 121.736C43.9463 122.306 44.1161 122.995 44.246 123.681C44.6856 126.019 43.6399 128.39 41.7615 129.349C39.9131 130.288 37.7716 129.835 36.2163 128.24C35.8599 127.877 35.7534 127.088 35.1672 127.184C34.6876 127.264 34.3046 127.82 33.8317 128.08C33.0357 128.516 33.029 128.929 33.5186 129.692C46.2643 149.599 58.9833 169.52 71.6823 189.458C72.1052 190.124 72.3583 190.027 72.8879 189.637C75.8587 187.449 78.8361 185.272 81.8501 183.147C82.4496 182.724 82.5562 182.528 82.0566 181.911C77.8969 176.796 73.7738 171.651 69.6407 166.516C68.8614 165.547 69.0978 164.658 70.2735 164.185C70.793 163.975 71.3226 163.975 71.8754 164.095C72.5848 164.245 73.1776 164.658 74.0336 165.001C73.7805 164.432 73.5939 164.035 73.4308 163.632C72.8513 162.204 72.2218 160.792 72.2484 159.2C72.2718 157.695 73.1776 157.062 74.5931 157.622C75.1693 157.848 75.7055 158.174 76.3516 158.501C76.1984 157.542 75.9619 156.692 76.0751 155.81C76.2317 154.611 77.0876 154.005 78.2632 154.281C79.0426 154.465 79.7286 154.854 80.3614 155.324C81.2507 155.986 82.1066 156.692 82.9892 157.388C83.0957 157.032 82.8693 156.782 82.776 156.509C82.4097 155.454 82.0333 154.398 81.9201 153.279C81.8501 152.606 81.8601 151.897 82.4996 151.474C83.159 151.038 83.8384 151.268 84.4712 151.607C85.467 152.144 86.3129 152.879 87.1023 153.672C90.3861 156.962 93.1204 160.692 95.7181 164.528C96.1278 165.131 96.5408 165.734 97.0703 166.513C97.1469 164.298 97.0403 162.334 97.3001 160.386C97.4766 159.07 97.5732 157.728 98.2193 156.529C98.8354 155.384 99.8346 155.277 100.707 156.246C101.137 156.722 101.413 157.302 101.673 157.878C102.882 160.569 103.515 163.429 104.048 166.313C104.177 167.019 104.317 167.176 104.957 166.673C107.741 164.488 110.542 162.327 113.373 160.206C115.238 158.807 117.1 157.438 118.132 155.241C118.322 154.838 118.652 154.498 118.945 154.155C120 152.929 121.186 151.894 122.708 151.241C123.274 150.998 124.233 151.278 124.357 150.562C124.457 149.986 123.974 149.32 123.787 148.684C123.634 148.154 123.447 148.211 123.058 148.504C120.916 150.115 118.605 150.189 116.334 148.92C113.09 147.108 111.671 144.158 111.498 140.531C111.478 140.088 111.614 139.639 111.335 139.213C108.514 134.89 107.618 130.085 107.851 125.02C107.881 124.377 107.724 124.054 107.165 123.768C105.959 123.151 105.819 122.782 106.316 121.52C108.277 116.545 111.818 113.051 116.62 110.83C119.035 109.714 121.566 109.195 124.164 110.297C124.643 110.5 124.646 110.097 124.783 109.878C125.646 108.482 126.891 107.766 128.526 107.68C129.998 107.603 131.417 107.84 132.799 108.336C136.46 109.651 139.65 111.776 142.697 114.13C144.1 115.212 145.438 116.378 146.807 117.507V117.504Z" fill="white"/>
<path d="M216.814 48.7516C216.834 49.0613 216.834 49.2411 216.861 49.4143C217.524 53.4105 218.187 57.4066 218.853 61.4028C221.331 76.2518 223.812 91.0974 226.27 105.95C226.383 106.632 226.619 106.749 227.265 106.632C232.827 105.623 238.396 104.651 243.961 103.662C253.366 101.99 262.768 100.312 272.173 98.6402C278.365 97.5412 284.556 96.4423 290.75 95.36C291.287 95.2668 291.526 95.0969 291.42 94.4875C290.308 88.087 289.222 81.6865 288.126 75.2827C286.747 67.2438 285.365 59.2049 283.99 51.1626C282.934 44.9986 281.881 38.8345 280.842 32.6671C280.742 32.0677 280.619 31.8146 279.877 31.9512C270.868 33.5829 261.852 35.178 252.833 36.7599C244.887 38.1552 236.937 39.5205 228.987 40.8959C227.99 41.069 227.697 41.6407 228.108 42.6109C228.951 44.6056 228.777 46.5138 227.588 48.312C225.847 50.9562 222.346 51.782 219.609 50.2302C218.726 49.7307 217.817 49.2745 216.821 48.7483L216.814 48.7516Z" fill="white"/>
<path d="M268.768 32.4745C269.205 32.6244 269.488 32.5078 269.777 32.4579C273.291 31.8385 276.801 31.2158 280.315 30.6064C281.444 30.4099 281.72 30.603 281.92 31.7219C282.27 33.6867 282.6 35.6515 282.936 37.6196C284.548 47.0338 286.16 56.4481 287.772 65.8623C289.414 75.4564 291.052 85.0472 292.688 94.6413C292.854 95.6236 292.338 96.3196 291.345 96.4961C283.729 97.8482 276.109 99.2002 268.492 100.556C257.035 102.594 245.582 104.632 234.125 106.67C231.714 107.099 229.299 107.492 226.895 107.958C225.379 108.251 225.389 108.295 225.189 107.093C223.614 97.6184 222.032 88.1442 220.46 78.6667C218.802 68.683 217.153 58.6993 215.494 48.7189C215.441 48.4025 215.451 48.0295 215.108 47.8431C213.952 47.217 212.797 46.5976 211.508 45.9049C211.564 46.3845 211.581 46.6842 211.634 46.9739C212.867 54.0904 214.106 61.2068 215.334 68.3266C217.779 82.5063 220.22 96.686 222.661 110.866C222.871 112.081 222.871 112.088 224.067 111.878C234.488 110.06 244.909 108.241 255.33 106.413C268.279 104.142 281.227 101.861 294.176 99.5832C295.006 99.4366 296.138 99.5299 296.574 99.027C297.087 98.4376 296.498 97.3786 296.348 96.5294C294.802 87.7512 293.244 78.9797 291.692 70.2048C290.323 62.469 288.964 54.7364 287.595 47.0005C286.456 40.5767 285.311 34.1529 284.172 27.7258C284.102 27.3362 284.052 27.0032 283.519 27.1131C282.223 27.3828 280.884 27.4627 279.656 28.0422C277.524 29.0479 275.359 29.9736 273.158 30.8128C271.732 31.3556 270.307 31.8984 268.772 32.4812L268.768 32.4745Z" fill="white"/>
<path d="M33.8478 120.759C33.7345 121.125 33.9943 121.315 34.2108 121.525C34.8602 122.158 35.5563 122.75 36.1491 123.433C36.6986 124.069 37.0816 124.129 37.8143 123.586C47.1962 116.603 56.6047 109.656 66.0299 102.726C66.7493 102.197 66.7893 101.844 66.0532 101.414C65.0841 100.848 65.1174 100.099 65.517 99.1898C66.1498 97.7545 66.716 96.2893 67.3321 94.8473C67.5353 94.3744 67.6119 94.0847 66.9158 94.0647C66.2564 94.0481 65.6003 93.9049 64.9409 93.8283C60.5314 93.3221 56.1218 92.8193 51.7156 92.3131C47.7258 91.8535 43.7392 91.404 39.7527 90.9144C38.3805 90.7479 38.3905 90.7046 38.184 92.0833C37.2282 98.4172 36.269 104.748 35.3132 111.082C34.8269 114.309 34.3374 117.532 33.8511 120.756L33.8478 120.759Z" fill="white"/>
<path d="M99.0441 158.696C98.9809 158.702 98.9176 158.709 98.8543 158.716C98.8277 158.832 98.7944 158.945 98.771 159.062C98.2715 161.876 98.2881 164.716 98.2815 167.56C98.2815 168.133 98.6911 168.972 97.8285 169.215C97.0159 169.442 96.8327 168.579 96.513 168.08C93.7321 163.711 90.7646 159.488 87.2577 155.662C86.878 155.246 86.5949 154.943 86.0521 155.495C85.6258 155.928 85.0696 155.858 84.5367 155.572C84.2836 155.435 84.0937 155.166 83.7074 155.152C83.9306 156.281 84.4668 157.257 84.9097 158.269C85.0396 158.569 85.2794 158.862 85.1662 159.208C85.0329 159.618 85.2927 159.818 85.5159 160.061C87.7872 162.542 89.8554 165.183 91.8104 167.913C92.1235 168.35 92.7796 168.892 92.1268 169.382C91.3941 169.931 91.1077 169.076 90.778 168.626C87.9804 164.82 85.0496 161.127 81.5693 157.906C81.2562 157.617 81.0464 157.427 80.6068 157.796C79.7675 158.506 79.3245 158.436 78.4719 157.69C78.1289 157.39 77.8825 156.964 77.2896 156.724C77.666 158.056 77.646 159.415 78.5419 160.371C79.9473 161.873 81.3428 163.381 82.625 164.993C84.3202 167.124 85.9022 169.339 87.3476 171.646C87.604 172.056 87.7972 172.526 87.271 172.825C86.7981 173.095 86.495 172.722 86.2585 172.336C86.132 172.129 86.0021 171.926 85.8722 171.723C83.5742 168.116 80.9898 164.736 77.9857 161.683C77.5494 161.24 77.273 161.137 76.7368 161.586C75.8276 162.342 75.0516 162.206 74.2989 161.326C74.1523 161.157 74.0857 160.903 73.7327 160.834C73.8892 161.273 74.0058 161.673 74.169 162.056C75.308 164.76 76.5603 167.371 78.7284 169.479C80.5268 171.227 81.9922 173.288 83.4876 175.306C83.754 175.663 83.9739 176.099 83.5409 176.432C83.1113 176.761 82.7516 176.452 82.4751 176.089C82.0189 175.486 81.5759 174.873 81.1063 174.281C79.1813 171.83 77.2064 169.419 74.8318 167.377C74.6619 167.231 74.4787 166.811 74.189 167.101C73.4629 167.823 72.7369 167.77 71.9043 167.281C77.6726 174.46 83.4443 181.64 89.246 188.86C89.3559 188.643 89.4325 188.51 89.4924 188.374C92.28 182.013 96.6462 177.674 103.943 177.088C104.32 177.058 104.38 176.911 104.34 176.572C103.833 172.096 103.157 167.65 102.085 163.271C101.952 162.728 101.728 162.705 101.259 162.808C100.11 163.061 99.7202 162.765 99.5271 161.596C99.3672 160.63 99.2073 159.665 99.0475 158.699L99.0441 158.696Z" fill="white"/>
<path d="M68.9473 102.145C69.0339 102.272 69.0705 102.362 69.1371 102.419C72.5442 105.366 75.9612 108.303 79.3616 111.26C79.7379 111.586 80.0077 111.54 80.3907 111.3C86.7585 107.297 93.133 103.298 99.5141 99.3182C99.9305 99.0584 100.084 98.792 100.037 98.3025C99.8605 96.5009 99.8006 94.6827 99.5541 92.8911C99.1811 90.147 99.3476 87.5928 100.763 85.0686C102.368 82.2047 103.641 79.151 105.043 76.1772C105.163 75.9241 105.402 75.6877 105.286 75.3047C105.116 75.4212 104.963 75.5145 104.82 75.621C97.9155 80.7261 91.0348 85.8578 84.0942 90.9096C82.7886 91.862 81.7062 92.7146 82.4089 94.5128C82.4289 94.5661 82.4189 94.6327 82.4156 94.6927C82.3856 95.5518 82.0792 95.8249 81.2166 95.7283C80.4973 95.6451 79.7812 95.5285 79.0618 95.4486C78.6189 95.3986 78.1793 95.3021 77.7596 95.6151C74.8522 97.783 71.9347 99.9343 68.9473 102.145Z" fill="white"/>
<path d="M109.146 80.6538C109.306 80.7304 109.462 80.8136 109.622 80.8869C111.251 81.6095 112.886 82.3122 114.505 83.0548C115.454 83.491 115.557 84.0105 114.928 84.8131C114.498 85.3592 114.098 85.932 113.639 86.4548C113.276 86.8711 113.292 87.1009 113.772 87.4372C117.732 90.2345 122.081 91.8163 126.97 91.7964C127.657 91.7964 128.133 91.7264 128.073 90.8473C128.04 90.3777 128.179 89.8882 128.286 89.4187C129.455 84.3003 132.412 80.4873 136.869 77.8065C137.441 77.4602 137.635 77.1105 137.631 76.4578C137.625 74.6129 136.985 72.9279 136.239 71.3294C134.571 67.7562 131.74 65.4984 127.89 64.5393C127.244 64.3795 126.884 64.496 126.577 65.1687C124.469 69.8142 122.341 74.4498 120.143 79.052C119.663 80.0577 119.41 80.8935 120.186 81.836C120.496 82.2123 120.663 82.7218 120.28 83.1713C119.853 83.6675 119.357 83.4211 118.864 83.2413C117.449 82.7184 116.037 82.179 114.605 81.7028C112.829 81.1133 111.028 80.6271 109.143 80.6571L109.146 80.6538Z" fill="white"/>
<path d="M107.99 79.2424C108.633 79.2424 109.132 79.1624 109.595 79.2623C110.261 79.4089 110.521 79.1558 110.808 78.5763C113.728 72.7087 116.689 66.861 119.64 61.0099C119.763 60.7668 119.88 60.5204 120.04 60.3006C120.213 60.0642 120.459 59.9476 120.756 60.0742C121.092 60.2174 121.182 60.5004 121.092 60.8235C121.029 61.0532 120.906 61.2664 120.796 61.4828C118.015 67.0142 115.231 72.5455 112.45 78.0801C111.717 79.5387 111.734 79.5088 113.312 79.9916C113.918 80.1781 114.198 80.1115 114.484 79.4921C116.406 75.3261 118.381 71.1801 120.333 67.0275C121.039 65.5256 121.732 64.017 122.438 62.5118C122.584 62.2021 122.784 61.9324 123.187 61.9657C123.46 61.9857 123.63 62.1389 123.687 62.4086C123.76 62.7516 123.65 63.058 123.507 63.3643C120.959 68.7392 118.414 74.114 115.867 79.4888C115.231 80.8308 115.31 80.5245 116.496 80.994C116.579 81.0273 116.679 81.0306 116.756 81.0739C117.482 81.5002 117.798 81.2071 118.125 80.4945C120.529 75.2196 122.98 69.968 125.422 64.7097C126.244 62.9348 126.184 62.5784 124.749 61.1898C124.596 61.0432 124.436 60.9034 124.273 60.7702C121.835 58.8254 118.994 57.9029 115.957 57.46C115.45 57.3868 115.28 57.6232 115.094 58.0195C114.178 59.9909 113.232 61.949 112.296 63.9105C108.713 71.4366 105.123 78.9593 101.556 86.4887C101.446 86.7218 101.009 87.0981 101.542 87.2979C101.882 87.4245 102.278 87.7009 102.618 87.0282C107.214 77.9469 111.853 68.8857 116.479 59.8211C116.703 59.3848 116.959 58.9752 117.509 59.2383C118.091 59.518 117.852 59.9776 117.635 60.3972C115.65 64.2668 113.662 68.1364 111.68 72.0093C110.471 74.3704 109.272 76.7381 108 79.239L107.99 79.2424Z" fill="white"/>
<path d="M138.387 104.586C143.682 111.263 148.981 117.94 154.39 124.76C155.309 121.384 156.698 118.446 158.666 115.746C151.369 112.875 144.971 108.643 138.387 104.59V104.586Z" fill="black"/>
<path d="M110.706 180.274C111.402 173.424 112.644 166.88 115.088 160.586C111.582 163.177 108.168 165.824 104.741 168.452C104.434 168.685 104.551 168.921 104.588 169.171C104.951 171.682 105.37 174.189 105.573 176.72C105.597 177.003 105.63 177.23 105.99 177.31C107.845 177.716 109.377 178.678 110.706 180.277V180.274Z" fill="white"/>
<path d="M228.441 37.0689C228.445 37.1522 228.448 37.2387 228.455 37.322C244.421 38.0813 259.664 34.8843 274.372 28.7603C259.062 31.5309 243.751 34.2982 228.445 37.0689H228.441Z" fill="white"/>
<path d="M111.869 137.661C112.082 137.185 112.199 136.905 112.329 136.635C113.741 133.711 116.775 132.449 119.852 133.492C120.811 133.818 121.647 134.347 122.407 135.007C122.63 135.2 122.8 135.426 123.166 135.147C124.515 134.114 125.174 131.107 124.338 129.635C123.842 128.763 123.096 128.526 122.19 128.953C121.654 129.206 121.261 129.612 120.924 130.088C120.535 130.638 120.278 131.247 120.092 131.887C119.912 132.503 119.349 132.573 118.866 132.659C118.39 132.746 118.213 132.316 118.054 131.95C117.787 131.344 117.491 130.744 117.274 130.118C117.041 129.452 116.628 129.029 116.002 128.696C114.244 127.76 112.518 126.758 110.78 125.786C110.267 125.499 109.747 125.223 109.085 124.863C108.888 129.429 109.638 133.595 111.876 137.654L111.869 137.661Z" fill="white"/>
<path d="M80.6795 91.0668C80.5263 89.838 80.3565 88.7324 80.2599 87.6235C80.2166 87.1239 79.9868 86.9408 79.5338 86.9008C77.3124 86.7044 75.091 86.5079 72.8696 86.3014C72.4666 86.2648 72.2002 86.3347 72.027 86.7676C71.2577 88.6958 70.4584 90.6172 69.6491 92.5287C69.4526 92.9983 69.5325 93.1481 70.0554 93.1981C71.4941 93.3379 72.9395 93.4712 74.3616 93.7309C76.4831 94.1172 78.4448 94.1338 80.0567 92.3589C80.463 91.9127 80.946 91.6296 80.6762 91.0635L80.6795 91.0668Z" fill="white"/>
<path d="M120.534 135.239C117.793 133.551 114.823 134.413 113.45 137.217C112.661 138.826 112.698 139.102 113.887 140.404C115.938 142.649 118.426 144.057 121.483 144.387C122.096 144.454 122.279 144.34 122.036 143.681C121.21 141.45 120.438 139.199 119.655 136.951C119.249 135.785 119.335 135.619 120.538 135.236L120.534 135.239Z" fill="white"/>
<path d="M201.154 34.8567C201.271 35.8557 201.441 37.1378 202.513 37.8505C203.785 38.6997 205.221 39.2991 206.573 40.0317C206.973 40.2482 207.189 40.2482 207.412 39.7953C208.235 38.1302 208.778 36.3886 208.961 34.537C208.988 34.2606 208.994 33.9476 208.748 33.7844C207.625 33.0351 206.486 32.2326 205.287 31.6998C203.406 30.8606 201.188 32.5789 201.154 34.85V34.8567Z" fill="white"/>
<path d="M225.748 45.0618C225.765 43.3302 224.382 41.7683 222.897 41.9815C220.716 42.2945 218.548 42.7208 216.376 43.1004C216.17 43.137 215.963 43.1537 215.893 43.4234C215.75 43.9895 216.273 45.235 216.799 45.5147C218.264 46.2973 219.723 47.0932 221.202 47.8558C223.197 48.8848 225.725 47.3197 225.745 45.0618H225.748Z" fill="white"/>
<path d="M100.599 89.9877C100.659 90.7403 100.743 91.4896 100.776 92.2422C100.796 92.6951 100.966 92.8416 101.432 92.8716C102.961 92.9681 104.243 93.6575 105.462 94.5466C106.075 94.9928 106.314 96.0718 107.124 95.9652C107.88 95.8687 108.572 95.2692 109.292 94.8896C109.505 94.7764 109.708 94.6365 109.931 94.5499C110.504 94.3335 110.517 94.0804 110.074 93.6741C107.736 91.5262 105.115 89.8378 102.105 88.8088C100.503 88.2627 100.486 88.3126 100.599 89.9877Z" fill="white"/>
<path d="M76.2363 95.1492C73.7618 94.8529 71.557 94.5898 69.3523 94.3234C69.0259 94.2834 68.8494 94.4466 68.7361 94.7296C68.0501 96.4014 67.3507 98.0664 66.6779 99.7448C66.3815 100.487 67.1841 100.587 67.4772 100.984C67.6904 101.273 67.9535 101.277 68.2565 101.054C70.8443 99.1321 73.4354 97.2206 76.2363 95.1559V95.1492Z" fill="white"/>
<path d="M112.75 141.157C113.23 144.168 114.435 146.465 117 147.867C118.921 148.92 120.996 148.69 122.478 147.345C122.811 147.042 123.138 146.792 122.935 146.212C122.735 145.653 122.342 145.71 121.932 145.686C118.851 145.513 116.204 144.334 113.939 142.256C113.593 141.94 113.25 141.617 112.753 141.161L112.75 141.157Z" fill="white"/>
<path d="M221.525 40.9098C220.399 40.2771 219.523 39.8042 218.67 39.298C218.231 39.0349 217.808 38.975 217.295 39.0749C215.397 39.4479 213.488 39.7542 211.59 40.1272C211.247 40.1938 210.647 40.0173 210.621 40.5568C210.587 41.1928 210.491 42.022 211.077 42.4017C212.199 43.1343 213.432 43.7004 214.711 44.3831C214.691 44.13 214.687 44.0168 214.671 43.9002C214.487 42.3551 214.734 42.072 216.283 41.8322C217.948 41.5725 219.606 41.2528 221.525 40.9131V40.9098Z" fill="white"/>
<path d="M215.997 38.0282C216.014 37.9616 216.034 37.8916 216.05 37.825C214.265 36.8393 212.477 35.8569 210.692 34.8645C210.155 34.5648 210.172 34.9345 210.129 35.2841C209.932 36.9459 209.433 38.5144 208.697 40.0162C208.217 40.992 208.23 40.9986 209.343 41.4082C209.326 41.2151 209.32 41.0386 209.29 40.8654C209.066 39.6533 209.313 39.2703 210.489 39.0472C212.324 38.7008 214.159 38.3678 215.994 38.0315L215.997 38.0282Z" fill="white"/>
<path d="M106.856 81.4496C106 83.1313 105.197 84.7098 104.391 86.2916C103.539 87.97 103.549 87.95 105.184 88.7492C105.617 88.959 105.804 88.8991 106.02 88.4895C106.596 87.4005 107.159 86.2949 107.828 85.2626C108.378 84.4168 108.428 83.7407 107.712 82.9682C107.359 82.5885 107.182 82.0424 106.853 81.4463L106.856 81.4496Z" fill="white"/>
<path d="M109.438 85.0483C109.209 85.388 109.099 85.5279 109.012 85.6777C108.569 86.4636 108.139 87.2562 107.697 88.0455C106.771 89.6939 106.777 89.6839 108.406 90.7062C108.762 90.9327 108.935 90.9493 109.122 90.5231C109.522 89.6139 109.898 88.6815 110.424 87.849C110.95 87.0164 110.82 86.457 110.078 85.8942C109.828 85.7044 109.685 85.3847 109.435 85.0483H109.438Z" fill="white"/>
<path d="M222.819 37.9667C222.785 38.0799 222.752 38.1932 222.719 38.3031C223.681 38.8425 224.647 39.3853 225.61 39.9248C225.826 40.0447 226.049 40.1113 226.302 40.0647C228.607 39.6651 230.912 39.2655 233.216 38.8692C229.736 38.6227 226.269 38.3896 222.819 37.9634V37.9667Z" fill="white"/>
<path d="M111.884 87.7207C111.414 88.6831 111.008 89.6955 110.449 90.6146C109.912 91.4937 109.972 92.0898 110.832 92.7092C111.258 93.0156 111.421 93.1022 111.674 92.5893C112.007 91.9167 112.397 91.2706 112.77 90.6179C113.416 89.4768 113.197 88.5366 112.114 87.7973C112.067 87.764 112.001 87.7607 111.884 87.7207Z" fill="white"/>
<path d="M80.915 93.3022C80.4653 93.6386 80.1156 93.8983 79.7227 94.1914C81.0782 94.6376 81.1248 94.6043 80.915 93.3022Z" fill="white"/>
<path d="M141.291 233.815C141.574 229.11 141.864 224.404 142.134 219.699C142.35 215.896 142.534 212.093 142.743 208.293C142.903 205.396 143.08 202.502 143.246 199.608C143.26 199.362 143.3 199.132 143.499 198.952C146.104 196.591 148.275 193.824 150.693 191.289C152.052 189.867 153.328 188.369 154.676 186.94C155.106 186.487 155.116 186.138 154.836 185.595C153.364 182.751 151.939 179.887 150.493 177.03C149.871 175.798 150.044 175.315 151.276 174.765C154.117 173.5 156.958 172.228 159.799 170.959C161.221 170.323 161.547 170.489 161.76 172.015C162.446 176.923 163.069 181.842 163.825 186.74C164.022 188.006 163.782 188.955 163.059 189.997C160.645 193.471 158.343 197.027 155.969 200.53C155.642 201.013 155.626 201.326 155.995 201.783C157.497 203.641 158.953 205.532 160.438 207.4C160.698 207.727 160.778 208.106 160.871 208.483C162.673 215.596 164.468 222.712 166.26 229.829C166.533 230.914 166.363 231.111 165.214 231.287C157.954 232.413 150.697 233.545 143.439 234.678C143.14 234.724 142.843 234.791 142.55 234.864C141.371 235.16 141.248 235.06 141.285 233.818L141.291 233.815Z" fill="black"/>
<path d="M107.68 51.276C108.346 51.276 109.009 51.276 109.675 51.276C110.388 51.276 110.591 51.6457 110.558 52.3284C110.355 56.2679 108.623 59.5347 106.055 62.3853C102.049 66.8377 97.1228 69.7316 91.1813 70.7939C88.9499 71.1935 86.7252 71.1502 84.5237 70.5808C83.2349 70.2477 83.105 69.998 83.4147 68.7292C83.6378 67.8168 83.871 66.9043 84.3073 66.0751C84.607 65.5023 84.5571 65.2293 83.9243 64.9462C82.2457 64.1903 80.6071 63.3444 78.9419 62.5518C78.4956 62.3387 78.0627 62.0989 78.3224 61.5495C78.5756 61.02 79.0551 61.1532 79.4948 61.373C81.2 62.2188 82.9151 63.0447 84.6103 63.9105C85.0699 64.147 85.3097 64.1503 85.6095 63.6574C86.3622 62.4153 87.2281 61.2464 88.2905 60.2474C88.7234 59.8411 88.7368 59.6213 88.2472 59.235C86.6119 57.9396 85.02 56.5909 83.4047 55.2689C83.0217 54.9558 82.5321 54.6228 82.9451 54.0967C83.4147 53.4972 83.851 53.9934 84.244 54.3131C85.8792 55.6585 87.5178 56.9972 89.1364 58.3625C89.5494 58.7089 89.8358 58.7721 90.2788 58.3692C91.2612 57.4701 92.3237 56.6608 93.4727 55.9848C93.9856 55.6851 93.9323 55.4354 93.6625 54.9958C92.5501 53.1975 91.4844 51.3693 90.3787 49.5644C90.1122 49.1314 89.7792 48.6819 90.342 48.3156C90.9182 47.9393 91.1913 48.4354 91.4511 48.8717C92.5535 50.7133 93.6825 52.5382 94.7549 54.3964C95.038 54.8892 95.2578 54.9125 95.734 54.6594C96.6932 54.1499 97.6757 53.6771 98.6848 53.2774C99.2443 53.0577 99.301 52.7879 99.1677 52.2618C98.6882 50.3603 98.2519 48.4454 97.7956 46.5339C97.7623 46.3874 97.7157 46.2409 97.689 46.0944C97.6157 45.6881 97.5858 45.2618 98.0887 45.132C98.6349 44.9888 98.8414 45.3784 98.9479 45.828C99.4242 47.826 99.9204 49.8174 100.35 51.8255C100.473 52.405 100.623 52.5814 101.223 52.3783C102.022 52.1086 102.848 51.9021 103.681 51.7589C104.247 51.659 104.4 51.3926 104.427 50.8598C104.526 48.6885 104.67 46.5173 104.79 44.3427C104.816 43.8465 104.81 43.2671 105.496 43.3104C106.188 43.3537 106.088 43.9265 106.058 44.4227C105.932 46.444 105.852 48.4687 105.679 50.4835C105.609 51.2894 105.825 51.5125 106.598 51.316C106.944 51.2261 107.321 51.2627 107.684 51.2427C107.684 51.2561 107.684 51.2694 107.684 51.2827L107.68 51.276ZM88.5436 69.7948C88.9 69.7649 89.5394 69.7482 90.1655 69.6616C96.2403 68.8058 101.213 65.8986 105.252 61.3696C107.314 59.0585 108.803 56.4178 109.216 53.2641C109.289 52.7147 109.226 52.5015 108.62 52.4982C106.671 52.4815 104.763 52.7313 102.875 53.2009C102.438 53.3074 102.368 53.4739 102.475 53.8902C103.384 57.4334 102.258 60.4039 99.7472 62.8848C96.3668 66.2216 90.9449 66.6679 88.0041 63.2445C87.7676 62.9681 87.6044 62.9481 87.3846 63.2578C86.199 64.9195 85.2498 66.6878 84.7336 68.6793C84.6003 69.1954 84.8335 69.3153 85.2165 69.4252C86.2156 69.7049 87.2381 69.7749 88.5469 69.7948H88.5436Z" fill="black"/>
<path d="M279.168 68.1412C278.938 74.3385 276.66 79.7666 272.876 84.602C270.868 87.1728 268.51 89.3674 265.566 90.8692C264.474 91.4287 264.23 91.4054 263.454 90.3764C261.926 88.3484 260.427 86.3003 258.915 84.2623C258.429 83.6063 257.936 82.9569 257.45 82.3008C256.873 81.5183 256.973 80.9988 257.866 80.5825C260.93 79.1572 262.962 76.7762 264.29 73.7358C264.963 72.2006 265.329 70.5888 265.343 68.9004C265.349 68.3077 265.216 68.1412 264.58 68.2411C261.773 68.6773 258.955 69.0536 256.141 69.4466C254.998 69.6064 254.795 69.4566 254.605 68.3743C253.523 62.1869 252.441 56.0029 251.358 49.8155C251.178 48.7865 251.521 48.2703 252.521 48.0938C259.781 46.8184 267.045 45.5563 274.305 44.2742C274.891 44.171 275.221 44.3341 275.404 44.9003C275.914 46.4621 276.034 48.0938 276.31 49.699C277.216 54.9372 278.078 60.1855 278.971 65.4271C279.124 66.3263 279.161 67.2287 279.164 68.1445L279.168 68.1412Z" fill="black"/>
<path d="M252.654 73.1625C252.63 77.485 251.368 81.0049 249.483 84.3484C246.969 88.8074 243.548 92.5438 239.139 95.4843C238.346 96.0104 237.803 95.9239 237.18 95.2712C234.649 92.6004 232.088 89.9563 229.544 87.2988C228.668 86.3831 228.824 85.8869 229.97 85.2142C233.963 82.8598 236.927 79.6995 238.552 75.5169C238.806 74.8642 238.886 74.1915 238.826 73.5022C238.762 72.7895 238.456 72.4532 237.593 72.5764C234.606 73.006 231.608 73.3723 228.618 73.7852C227.296 73.9684 227.019 73.8418 226.813 72.643C225.83 66.8452 224.868 61.0442 223.895 55.2464C223.815 54.7802 223.695 54.3173 223.619 53.8478C223.496 53.1018 223.829 52.8254 224.608 52.8754C226.047 52.9653 227.442 52.5957 228.848 52.4025C234.956 51.5666 241.057 50.6808 247.158 49.815C248.281 49.6552 248.667 49.9182 248.877 51.0771C249.736 55.7826 250.582 60.4947 251.431 65.2035C251.718 66.782 251.991 68.3638 252.294 69.9423C252.53 71.1711 252.714 72.4032 252.654 73.1691V73.1625Z" fill="black"/>
<path d="M123.254 130.741C123.031 131.424 123.045 132.097 123.614 132.703C123.771 132.869 123.724 133.169 123.521 133.359C123.284 133.582 123.018 133.545 122.785 133.366C122.598 133.219 122.399 133.056 122.285 132.856C122.052 132.45 121.892 132.08 121.329 132.523C121.06 132.736 120.667 132.663 120.474 132.31C120.277 131.947 120.437 131.674 120.797 131.521C121.409 131.261 121.742 130.708 122.155 130.239C122.342 130.029 122.552 129.852 122.858 129.969C123.191 130.095 123.274 130.372 123.251 130.745L123.254 130.741Z" fill="black"/>
</g>
<defs>
<clipPath id="clip0_4697_21565">
<rect width="283.102" height="235" fill="white" transform="translate(31.6016)"/>
</clipPath>
</defs>
</svg>
