<svg width="346" height="235" viewBox="0 0 346 235" fill="none" xmlns="http://www.w3.org/2000/svg">
<rect width="346" height="235" rx="28" fill="#88AAFF"/>
<mask id="mask0_4697_21622" style="mask-type:alpha" maskUnits="userSpaceOnUse" x="0" y="0" width="346" height="235">
<rect width="346" height="235" rx="28" fill="#5906FF"/>
</mask>
<g mask="url(#mask0_4697_21622)">
<rect x="57" y="284.478" width="374.863" height="304.54" transform="rotate(-65.2675 57 284.478)" fill="#4A7CFA"/>
</g>
<g clip-path="url(#clip0_4697_21622)">
<path d="M204.24 27.6465C203.971 27.2553 203.633 27.0148 203.185 26.8389C201.813 26.2933 200.366 26.0636 198.937 25.762C186.658 23.1668 174.39 20.5321 162.107 17.9512C158.983 17.2943 155.842 16.6733 152.625 16.6949C151.106 16.7056 149.785 16.9892 148.74 17.7861C148.058 18.3066 147.724 18.863 147.049 20.1013C145.3 23.3104 143.99 26.1318 143.559 27.0543C143.171 27.8835 142.586 29.1183 141.846 30.6223C138.475 37.3167 135.125 44.022 131.772 50.7237C130.371 53.5199 128.968 56.3161 127.424 59.3924C126.77 57.5115 126.092 55.9285 125.219 54.446C122.153 49.2376 117.787 45.9244 111.644 45.3286C103.975 44.582 97.8819 49.2663 96.1478 55.7562C95.0276 59.9416 95.7564 63.969 97.469 67.8709C97.9896 69.0626 97.8065 69.6082 96.6899 70.2758C96.2626 70.5307 95.7995 70.685 95.3184 70.7712C92.8159 71.2307 90.3062 71.6435 87.7498 71.6758C84.1594 71.7224 80.587 71.9378 77.0181 72.426C74.7669 72.7347 72.8712 73.5567 71.173 75.032C67.5502 78.18 67.7585 82.3403 71.8587 84.7094C76.0667 87.1395 80.6803 87.4051 85.3335 86.4539C88.6833 85.7683 91.9685 84.7775 95.2861 83.9232C95.5015 83.8658 95.7026 83.7761 95.8749 84.0561C96.2698 84.6878 96.1657 85.8185 95.6236 86.3641C93.8032 88.1912 92.0009 90.0326 90.1554 91.831C89.5702 92.4017 89.4481 92.9545 89.8215 93.6581C89.9902 93.9739 90.0764 94.3437 90.2846 94.6272C90.6221 95.0867 90.5719 95.3595 90.1267 95.7472C87.8468 97.7501 86.5829 100.306 86.3101 103.31C86.2239 104.251 85.9582 104.272 85.197 103.928C80.4757 101.788 75.7364 99.6921 71.0042 97.5814C70.7062 97.4486 70.4118 97.3014 70.0994 97.2117C69.7009 97.0932 69.4029 97.2368 69.2449 97.6424C67.6975 101.555 65.7084 105.263 63.9958 109.1C63.7732 109.599 63.5075 109.854 62.9115 109.861C61.0804 109.886 59.2636 110.095 57.4684 110.446C52.8978 111.337 48.6755 112.973 45.3616 116.387C42.2415 119.6 41.0388 123.415 42.2595 127.802C43.4228 131.98 46.2341 134.923 49.7706 137.235C50.363 137.623 50.4671 137.881 50.162 138.524C46.8337 145.53 43.5413 152.555 40.2345 159.569C39.6924 160.718 39.7749 160.983 40.9382 161.525C51.7848 166.569 62.6386 171.605 73.4852 176.652C82.5868 180.887 91.6849 185.137 100.783 189.38C101.648 189.782 102.463 189.445 102.905 188.465C104.151 185.701 105.386 182.933 106.632 180.169C108.147 176.817 109.669 173.468 111.188 170.112C113.479 171.361 115.697 172.603 117.941 173.787C122.325 176.102 126.731 178.382 131.118 180.693C131.409 180.848 132.001 180.869 131.729 181.469C130.799 183.5 129.657 185.31 127.352 186.06C126.138 186.455 124.907 186.753 123.661 187.007C121.23 187.503 119.004 188.321 117.64 190.601C117.421 190.967 117.087 191.114 116.66 191.135C116.042 191.168 115.425 191.247 114.811 191.322C114.563 191.354 114.225 191.365 114.222 191.688C114.222 191.961 114.552 191.983 114.757 192.011C115.241 192.076 115.73 192.105 116.218 192.115C124.379 192.263 132.536 192 140.694 191.911C145.656 191.857 150.614 191.749 155.572 191.649C156.118 191.638 156.8 191.642 156.804 190.863C156.804 190.073 156.14 190.116 155.58 190.102C155.318 190.094 155.059 190.102 154.797 190.109C148.923 190.238 143.049 190.371 137.179 190.493C136.852 190.5 136.493 190.601 136.077 190.303C136.619 189.958 137.078 189.66 137.545 189.373C141.437 186.982 145.333 184.595 149.228 182.208C150.05 181.702 150.065 181.35 149.253 180.794C148.607 180.349 147.964 179.9 147.289 179.505C146.711 179.168 146.718 178.884 147.135 178.382C148.201 177.1 149.106 175.7 149.835 174.196C150.499 172.825 150.374 171.411 150.007 169.997C149.767 169.06 148.779 169.006 148.191 168.478C148.094 168.392 147.975 168.335 147.864 168.263C138.812 162.372 129.865 156.321 120.695 150.613C120.311 150.373 120.214 150.179 120.404 149.77C121.108 148.262 121.798 146.751 122.465 145.229C122.656 144.798 122.817 144.665 123.331 144.863C125.614 145.739 127.919 146.564 130.224 147.379C132.96 148.348 135.674 149.407 138.457 150.218C141.186 151.015 143.695 152.365 146.672 152.613C149.982 152.889 153.727 151.503 155.393 148.456C155.845 147.63 156.265 146.776 156.617 145.904C160.473 136.309 164.315 126.71 168.15 117.112C170.656 110.845 173.155 104.57 175.636 98.2922C175.898 97.6317 176.163 97.4522 176.846 97.7788C177.994 98.328 179.215 98.7049 180.45 99.0101C182.709 99.5664 184.989 99.9685 187.315 99.448C187.75 99.3511 188.342 99.2649 188.302 98.6834C188.241 97.8255 188.715 97.7429 189.362 97.7035C189.714 97.6819 190.069 97.5706 190.403 97.445C191.62 96.9856 191.889 96.0092 191.074 94.9754C190.783 94.6057 190.417 94.2934 190.004 93.8734C190.593 93.8268 191.074 93.8232 191.541 93.737C192.177 93.6186 192.902 93.536 193.139 92.8002C193.322 92.233 192.765 91.6048 192.349 91.1346C191.753 90.4598 191.081 90.108 190.665 89.9285C191.028 89.9896 191.311 89.9429 191.473 89.8998C191.645 89.8567 191.857 89.8029 192.036 89.6198C192.08 89.5768 192.173 89.487 192.223 89.3363C192.281 89.1711 192.266 89.0312 192.259 88.9701C192.223 88.6794 192.015 88.3814 191.581 88.0081C191.139 87.6276 190.812 87.4553 190.812 87.4553C188.64 86.2995 186.597 84.8637 184.31 83.9591C184.177 83.9053 183.818 83.7689 183.703 83.4494C183.628 83.2448 183.689 82.9971 183.84 82.6525C187.918 73.2659 191.979 63.8757 196.029 54.4783C199.034 47.5074 201.96 40.5007 205.034 33.5621C206.028 31.3186 205.515 29.4808 204.244 27.6394L204.24 27.6465Z" fill="black"/>
<path d="M146.691 70.5854C147.266 70.4275 147.535 70.6608 147.822 70.7864C150.095 71.7735 152.375 72.7463 154.629 73.7837C155.383 74.1283 155.545 73.9452 155.631 73.1806C155.987 70.029 156.637 66.9348 157.8 63.9771C158.026 63.4063 157.9 63.1874 157.365 62.9576C155.236 62.0459 153.154 61.0229 151.007 60.165C147.736 58.8584 144.454 57.5518 140.875 57.3436C139.938 57.2898 138.918 57.3221 138.268 57.9466C136.882 59.282 135.399 60.5096 134.01 61.8377C133.715 62.1177 133.68 62.2541 133.992 62.5951C135.475 64.2068 136.466 66.1057 137.037 68.2199C138.534 73.7621 135.837 78.6367 130.276 80.1084C124.815 81.555 119.896 80.1192 115.433 76.8348C115.128 76.6086 114.891 76.2533 114.413 76.4399C112.396 77.226 110.417 78.0839 108.92 79.7208C107.764 80.9807 107.222 82.4667 107.836 84.1359C108.195 85.1122 108.992 85.8912 109.739 86.5732C115.013 91.3939 120.345 96.15 125.662 100.924C125.809 101.057 125.946 101.218 126.143 101.244C126.219 101.254 126.273 101.236 126.423 101.193C126.614 101.139 126.808 101.1 126.994 101.039C127.238 100.96 129.802 100.457 136.965 99.1294C136.232 98.2966 135.633 97.6217 135.04 96.9433C134.828 96.6992 134.577 96.7531 134.322 96.8213C129.712 98.0704 123.314 93.7989 121.724 89.5022C121.519 88.9494 121.278 88.3751 121.487 87.7254C121.846 87.869 121.867 88.149 121.964 88.3787C123.519 92.0077 126.323 94.244 129.974 95.4932C131.152 95.8988 132.48 96.2721 133.615 95.7337C135.098 95.0301 135.701 95.6798 136.566 96.7459C139.984 100.946 143.575 105.005 147 109.202C148.016 110.447 149.122 110.677 150.526 110.318C150.967 110.207 151.412 110.092 151.843 109.948C156.231 108.473 160.31 106.38 164.173 103.85C164.855 103.404 165.551 102.977 166.252 102.565C166.474 102.432 166.765 102.317 166.916 102.654C167.038 102.923 166.794 103.06 166.603 103.186C162.126 106.133 157.548 108.882 152.421 110.584C150.942 111.075 149.456 111.269 147.894 111.047C147.33 110.968 147.003 110.508 146.379 110.515C135.155 110.637 123.928 110.72 112.704 110.781C112.037 110.785 111.954 110.921 112.112 111.531C112.414 112.698 112.816 113.925 112.392 115.085C112.09 115.907 112.417 116.058 113.01 116.32C118.851 118.908 124.686 121.514 130.52 124.116C131.892 124.726 131.888 124.733 131.159 126.026C131.112 126.108 131.098 126.212 131.059 126.302C130.161 128.291 129.288 130.294 128.348 132.264C127.996 133 128.035 133.212 128.929 133.226C139.044 133.395 149.158 133.596 159.272 133.819C159.954 133.833 160.299 133.682 160.568 133.004C164.758 122.35 168.97 111.707 173.206 101.075C173.483 100.382 173.393 100.002 172.793 99.535C169.709 97.1479 167.135 94.305 165.537 90.7011C164.061 87.3736 163.9 84.0138 165.595 80.6935C165.839 80.2161 165.817 80.0007 165.311 79.7387C163.537 78.827 161.688 78.0947 159.864 77.305C159.365 77.0896 159.064 77.1147 158.945 77.6998C158.848 78.1808 158.565 78.066 158.213 77.9691C153.635 76.7414 150.357 73.5144 146.698 70.5926L146.691 70.5854Z" fill="white"/>
<path d="M192.789 58.4891C188.998 59.1711 187.199 59.1245 184.388 58.4353C176.772 56.5723 170.141 52.753 163.865 48.2051C159.201 44.8274 155.108 40.7855 150.792 37.0022C148.441 34.9418 146.082 32.8922 143.576 30.9395C143.414 31.223 143.274 31.442 143.159 31.6717C139.465 39.0446 135.82 46.4462 132.061 53.7832C130.779 56.2851 129.921 59.0275 128.026 61.1992C127.961 61.2746 127.982 61.4541 128.004 61.5761C128.266 62.8612 128.528 64.1426 128.643 65.539C128.855 65.3918 128.97 65.3308 129.063 65.2482C131.727 62.793 134.398 60.3485 137.041 57.8717C138.136 56.8451 139.429 56.4 140.883 56.4862C142.509 56.5831 144.114 56.8738 145.694 57.3189C152.835 59.3291 156.11 61.2315 157.88 62.0679C161.492 63.7765 165.258 65.6897 170.823 68.328C171.146 68.4824 172.41 69.0782 174.13 69.7602C177.271 71.0058 178.84 71.6304 180.514 71.7309C183.253 71.8996 184.901 71.0884 186.337 71.1171C187.195 71.1315 187.515 70.7976 187.802 70.0869C188.509 68.3352 189.296 66.6158 190.046 64.8785C190.958 62.7678 191.863 60.6536 192.789 58.4927V58.4891Z" fill="white"/>
<path d="M115.598 76.0759C117.476 77.361 119.383 78.2476 121.422 78.8363C124.596 79.7516 127.784 79.967 130.933 78.7537C134.581 77.3502 136.509 74.2776 136.193 70.3937C135.967 67.6334 134.509 65.4366 132.872 63.3295C132.692 63.0998 132.545 63.1716 132.391 63.3116C131.375 64.2269 130.251 65.0597 129.385 66.1042C128.854 66.7468 128.52 66.6965 127.946 66.3663C124.722 64.5141 121.483 62.6834 118.27 60.8168C117.853 60.5763 117.121 60.5153 117.175 59.862C117.221 59.3092 117.882 59.2446 118.302 59.0436C119.472 58.4872 120.481 57.7334 121.296 56.7284C122.294 55.4972 122.047 54.607 120.585 54.0003C120.212 53.846 119.831 53.7849 119.436 53.8137C117.731 53.9393 116.209 54.5854 114.841 55.5618C114.493 55.813 114.187 55.9315 113.782 55.9243C109.143 55.8525 105.538 54.0578 103.387 49.7539C103.348 49.8006 103.269 49.8652 103.226 49.9477C100.264 55.6264 99.6965 61.4845 102.432 67.3534C104.572 71.9408 108.78 72.2028 111.818 68.1503C113.053 66.5027 113.782 64.6289 114.256 62.6439C114.356 62.2239 114.431 61.7035 115.013 61.865C115.591 62.0265 115.387 62.5398 115.279 62.9383C114.931 64.2341 114.475 65.494 113.821 66.6642C113.53 67.1847 113.652 67.4252 114.08 67.7805C116.557 69.8553 119.002 71.9623 121.454 74.0658C121.742 74.3135 122.19 74.5468 121.979 75.0027C121.731 75.5339 121.339 75.2216 120.991 75.0493C120.883 74.9955 120.736 74.9955 120.614 75.0063C118.955 75.157 117.34 75.498 115.606 76.0724L115.598 76.0759Z" fill="white"/>
<path d="M147.318 169.766C146.19 168.994 145.225 168.333 144.259 167.676C136.403 162.342 128.519 157.059 120.778 151.559C120.056 151.046 119.808 151.025 119.431 151.868C116.936 157.464 114.405 163.042 111.856 168.613C111.558 169.267 111.5 169.622 112.294 169.888C112.969 170.114 113.59 170.494 114.232 170.817C119.823 173.639 125.377 176.535 130.874 179.536C131.42 179.834 131.725 179.91 132.087 179.267C132.665 178.233 133.563 177.444 134.471 176.697C138.238 173.603 142.439 171.298 147.325 169.766H147.318Z" fill="white"/>
<path d="M165.252 85.6595C165.288 86.9769 165.507 88.2225 165.913 89.4357C167.126 93.0863 169.525 95.8861 172.361 98.3701C173.772 99.6049 173.729 99.5833 174.429 97.8675C174.749 97.0886 174.591 96.7368 173.855 96.3635C172.278 95.5631 170.846 94.5329 169.611 93.255C169.438 93.0791 169.133 92.8709 169.388 92.6089C169.618 92.3755 169.779 92.6914 169.927 92.835C173.535 96.3528 177.966 98.1762 182.841 99.0521C184.188 99.2926 185.566 99.3572 186.931 99.0952C187.29 99.027 187.66 98.9121 187.731 98.4921C187.746 98.4096 187.724 98.3198 187.717 98.2947C187.663 98.0614 187.498 97.9034 187.351 97.7957C186.36 97.0599 184.263 96.4604 184.263 96.4604C183.897 96.3563 183.714 96.3025 183.552 96.263C177.129 94.5975 175.844 93.1652 174.68 92.7632C174.609 92.7381 174.311 92.634 174.264 92.4366C174.249 92.372 174.26 92.293 174.307 92.2033C174.465 91.9053 174.749 92.0597 174.993 92.1602C176.648 92.853 178.339 93.4632 179.951 94.2385C182.138 95.2903 184.568 95.6851 186.723 96.762C187.925 97.3614 188.992 97.1389 190.108 96.7691C190.801 96.5394 190.945 96.0979 190.413 95.5164C189.67 94.7087 188.758 94.1452 187.785 93.675C183.983 91.8335 179.994 90.5233 175.908 89.486C175.592 89.407 175.072 89.4393 175.197 88.9081C175.287 88.5276 175.693 88.6819 175.959 88.7429C180.127 89.7049 184.27 90.7782 188.047 92.8601C189.347 93.5744 190.561 93.3627 191.814 93.0181C192.571 92.8099 192.625 92.372 192.029 91.812C191.379 91.2054 190.586 90.8033 189.803 90.4013C185.764 88.3373 181.455 87.0774 177.032 86.1585C176.673 86.0831 176.116 86.119 176.217 85.5554C176.246 85.3903 176.307 85.2934 176.386 85.2396C176.63 85.0744 177.061 85.2539 177.176 85.3042C178.971 86.0759 184.037 86.9482 188.823 89.0839C188.823 89.0839 189.139 89.2239 190.155 89.4465C190.593 89.5434 190.963 89.6008 191.282 89.4034C191.369 89.3496 191.537 89.2455 191.57 89.0875C191.652 88.6927 190.841 88.2009 190.331 87.9209C185.581 85.2934 180.583 83.2294 175.47 81.4311C175.108 81.3018 174.609 81.1906 174.781 80.6737C174.982 80.0635 175.467 80.3578 175.847 80.505C177.764 81.2444 179.682 81.9767 181.585 82.7484C182.041 82.9315 182.263 82.9064 182.471 82.4182C183.8 79.3025 185.154 76.1939 186.507 73.089C186.723 72.5936 186.64 72.3603 186.051 72.3998C185.204 72.4536 184.353 72.4501 183.509 72.5218C179.039 72.8916 174.727 73.8464 170.892 76.3052C167.478 78.4948 165.356 81.4993 165.256 85.6631L165.252 85.6595Z" fill="white"/>
<path d="M134.46 109.815C134.195 109.431 134.155 109.338 134.087 109.277C128.296 104.104 122.504 98.9315 116.71 93.7626C116.541 93.6118 116.379 93.4647 116.139 93.4144C111.435 92.4345 106.707 91.6735 101.874 92.0576C98.0718 92.3591 94.4885 93.3354 91.3613 95.6256C90.2662 96.4296 89.3327 97.3916 88.5859 98.6049C88.629 98.6156 88.7188 98.6336 88.8301 98.6336C89.3112 98.6372 89.6774 98.3141 89.7492 98.2567C90.3452 97.7721 94.7004 96.2645 99.4182 95.7727C103.432 95.3527 103.953 95.8122 105.145 95.9773C105.536 96.0312 106.093 95.9702 106.218 96.4763C106.333 96.9286 105.924 97.248 105.633 97.546C104.603 98.612 103.335 99.3658 102.111 100.173C100.502 101.236 98.9837 102.413 97.5152 103.663C97.1203 104 96.8115 104.424 97.088 104.94C97.167 105.084 97.2891 105.17 97.3645 105.21C97.6984 105.389 98.1759 105.134 98.2872 105.077C99.648 104.373 105.82 102.23 107.037 101.882C107.705 101.692 108.347 101.423 109.005 101.193C109.159 101.139 109.382 101.114 109.446 101.003C109.913 100.184 110.401 100.64 110.886 100.952C115.327 103.817 119.765 106.681 124.199 109.557C124.425 109.704 124.637 109.815 124.914 109.815C128.008 109.811 131.103 109.815 134.457 109.815H134.46Z" fill="white"/>
<path d="M42.9434 124.751C42.9649 125.039 42.99 125.462 43.0367 125.886C43.0654 126.144 43.1085 126.403 43.1696 126.657C44.1892 131.037 47.1369 133.966 50.5909 136.518C51.0792 136.877 51.1259 136.424 51.2479 136.166C52.0917 134.4 52.9211 132.63 53.754 130.861C56.7197 124.55 59.6782 118.233 62.6654 111.93C63.0137 111.197 63.0568 110.928 62.0909 111.003C60.4286 111.133 58.777 111.309 57.1506 111.675C53.0791 112.597 49.2948 114.112 46.2752 117.124C44.2108 119.184 42.9829 121.643 42.9434 124.751Z" fill="white"/>
<path d="M118.324 190.988C118.669 191.013 118.827 191.039 118.981 191.031C123.415 190.895 127.846 190.751 132.28 190.626C133.317 190.597 134.233 190.45 135.184 189.847C139.389 187.165 143.669 184.602 147.934 182.022C148.53 181.659 148.347 181.462 147.948 181.128C147.022 180.356 146.067 179.609 145.227 178.752C144.864 178.382 144.545 178.217 144.063 178.217C140.627 178.199 137.321 178.823 134.15 180.151C133.016 180.625 132.086 181.279 131.612 182.524C130.596 185.198 128.492 186.598 125.803 187.255C124.41 187.596 123.02 187.948 121.641 188.332C120.23 188.727 119.186 189.603 118.32 190.988H118.324Z" fill="white"/>
<path d="M177.118 72.3633C176.967 72.2556 176.848 72.1407 176.712 72.0797C174.037 70.888 171.506 69.4055 168.824 68.2209C165.668 66.8282 162.63 65.1627 159.431 63.8489C158.925 63.6407 158.627 63.5797 158.415 64.2114C157.403 67.2123 156.631 70.267 156.178 73.4078C156.063 74.1975 156.326 74.5385 157.033 74.8795C159.934 76.2794 162.997 77.3419 165.75 79.047C166.199 79.3234 166.465 79.2336 166.784 78.8136C168.508 76.5522 170.788 75.0052 173.348 73.8565C174.561 73.3109 175.825 72.8766 177.121 72.3668L177.118 72.3633Z" fill="white"/>
<path d="M101.634 99.4268C99.7886 98.8309 98.0724 98.7555 96.3275 99.0894C92.9597 99.7355 90.0873 101.135 88.3388 104.283C88.0013 104.89 88.0157 105.192 88.7302 105.507C96.0582 108.742 103.375 112.001 110.682 115.285C111.443 115.626 111.666 115.382 111.727 114.682C111.745 114.488 111.766 114.287 111.745 114.097C111.285 110.167 109.723 106.714 107.152 103.72C106.714 103.207 106.165 103.099 105.479 103.354C103.128 104.226 100.751 105.026 98.3919 105.884C97.6954 106.139 97.0707 106.308 96.586 105.558C96.112 104.818 96.0941 104.09 96.6793 103.397C97.2538 102.722 97.9467 102.176 98.6468 101.645C99.5947 100.924 100.561 100.224 101.638 99.4268H101.634Z" fill="white"/>
<path d="M107.469 102.686C109.472 104.667 110.56 107.026 111.501 109.463C111.648 109.844 111.723 110.095 112.28 110.073C115.5 109.955 118.725 109.915 121.949 109.844C122.254 109.836 122.563 109.811 122.897 109.79C122.836 109.646 122.828 109.567 122.785 109.538C118.782 106.975 114.775 104.42 110.772 101.857C110.474 101.667 110.194 101.62 109.856 101.76C109.106 102.069 108.345 102.345 107.469 102.682V102.686Z" fill="white"/>
<path d="M279.946 220.46C279.426 220.611 279.185 220.693 278.941 220.754C277.318 221.149 275.857 221.3 274.309 220.115C272.09 218.417 269.617 217.057 267.247 215.553C248.143 203.424 229.038 191.298 209.93 179.173C208.472 178.247 207.213 178.469 206.153 179.841C202.947 183.976 199.554 187.935 195.317 191.076C193.762 192.228 192.129 193.248 190.251 193.779C188.33 194.321 186.348 194.454 184.776 193.043C183.749 192.12 182.808 191 182.359 189.593C181.799 187.842 181.494 186.054 181.429 184.22C181.149 176.057 182.937 168.211 185.267 160.486C190.323 143.712 197.658 127.983 207.352 113.377C211.255 107.494 215.549 101.908 220.97 97.2993C222.942 95.623 225.045 94.1441 227.577 93.3975C231.167 92.3386 233.917 93.6344 235.278 97.1306C236.513 100.3 236.625 103.62 236.388 106.962C235.436 120.391 230.962 132.857 225.871 145.148C225.397 146.289 224.518 147.438 224.546 148.565C224.575 149.692 225.501 150.801 226.04 151.914C226.467 152.793 226.974 153.641 227.318 154.552C227.964 156.254 229.189 157.402 230.625 158.418C245.17 168.749 259.704 179.09 274.245 189.425C281.476 194.565 288.707 199.698 295.952 204.817C296.372 205.111 296.566 205.617 297.094 205.822C297.367 205.929 297.252 206.339 297.13 206.622C296.523 208.069 295.866 209.494 294.8 210.668C294.401 211.105 294.419 211.303 294.979 211.551C295.963 211.988 296.911 212.502 297.873 212.983C298.43 213.259 298.588 213.571 298.279 214.225C295.514 220.094 292.8 225.991 290.042 231.864C289.673 232.65 289.852 232.768 290.649 232.74C296.52 232.503 302.39 232.302 308.257 232.093C308.483 232.086 308.716 232.072 308.939 232.115C309.247 232.176 309.502 232.345 309.481 232.7C309.463 232.991 309.265 233.17 308.982 233.224C308.791 233.26 308.594 233.271 308.4 233.278C299.169 233.594 289.942 233.913 280.711 234.222C272.722 234.488 264.73 234.739 256.738 234.994C256.217 235.012 255.693 235.005 255.173 234.983C254.932 234.972 254.724 234.861 254.706 234.577C254.688 234.294 254.878 234.154 255.115 234.114C255.499 234.053 255.891 234.017 256.282 233.999C259.28 233.874 262.281 233.745 265.279 233.648C265.886 233.63 266.292 233.536 266.489 232.851C266.658 232.259 267.139 231.803 267.57 231.358C269.039 229.843 270.801 228.777 272.852 228.342C273.936 228.113 274.625 227.578 275.239 226.734C276.718 224.71 278.244 222.721 279.946 220.463V220.46Z" fill="black"/>
<path d="M293.363 204.91C293.216 204.472 292.886 204.368 292.634 204.192C271.584 189.224 250.53 174.256 229.469 159.295C228.794 158.817 228.226 158.261 227.745 157.586C225.584 154.549 224.119 151.143 222.475 147.826C218.134 139.06 213.786 130.302 209.441 121.54C208.637 119.917 207.822 118.302 206.914 116.486C206.314 117.473 205.736 118.417 205.176 119.336C204.278 120.811 203.647 121.885 203.539 122.068C203.539 122.068 195.004 136.386 191.349 146.046C191.252 146.308 191.019 146.939 191.26 147.557C191.31 147.686 191.367 147.779 191.385 147.808C192.355 149.387 197.159 160.038 207.747 174.521C208.885 176.076 209.215 177.117 210.102 177.68C226.801 188.248 243.486 198.844 260.17 209.437C264.852 212.409 269.534 215.374 274.201 218.364C274.808 218.755 275.124 218.913 275.375 218.016C275.663 216.978 276.244 216.052 276.88 215.176C279.702 211.275 283.407 208.464 287.734 206.436C289.507 205.607 291.367 205.054 293.367 204.91H293.363Z" fill="white"/>
<path d="M278.059 233.171C278.059 233.171 278.059 233.189 278.059 233.2C281.219 233.071 284.379 232.916 287.542 232.837C288.274 232.819 288.633 232.557 288.931 231.918C291.62 226.161 294.328 220.414 297.063 214.678C297.343 214.093 297.16 213.888 296.679 213.641C295.724 213.145 294.783 212.621 293.861 212.072C292.83 211.458 291.742 211.045 290.543 211.332C286.949 212.194 284.041 214.111 281.912 217.148C281.474 217.772 281.183 218.458 281.51 219.258C281.625 219.535 281.574 219.825 281.363 220.08C279.377 222.46 277.718 225.077 275.927 227.6C275.42 228.311 274.886 228.745 274.027 228.943C271.647 229.496 269.597 230.651 268.035 232.572C267.834 232.816 267.475 233.096 267.597 233.39C267.741 233.738 268.179 233.545 268.48 233.537C271.672 233.426 274.868 233.297 278.059 233.171Z" fill="white"/>
<path d="M167.482 144.472C167.551 134.457 171.87 123.728 179.438 114.23C186.928 104.833 196.507 98.217 207.49 93.5291C208.018 93.3029 208.639 93.1055 208.916 93.8055C209.242 94.6346 208.535 94.8572 207.957 95.0941C200.026 98.3247 192.82 102.725 186.522 108.544C177.478 116.901 171.482 126.98 169.457 139.249C168.258 146.518 168.861 153.679 170.796 160.754C170.915 161.192 171.012 161.64 171.094 162.089C171.137 162.326 171.066 162.57 170.804 162.646C170.549 162.717 170.362 162.556 170.254 162.337C170.114 162.046 169.981 161.745 169.874 161.439C168.215 156.68 167.493 151.766 167.482 144.479V144.472Z" fill="black"/>
<path d="M209.502 39.4057C209.538 41.5702 209.01 43.4152 208.18 45.1633C204.956 51.9619 201.649 58.7174 198.052 65.3293C195.779 69.5111 193.927 73.8939 191.808 78.1511C191.244 79.2854 190.394 80.2618 190.009 81.5002C189.884 81.9022 189.507 82.1499 189.069 81.956C188.559 81.7335 188.638 81.3099 188.803 80.8756C189.352 79.4362 190.325 78.2265 190.961 76.8302C195.675 66.5175 201.272 56.6462 206.166 46.4233C206.981 44.7182 207.796 43.0204 208.137 41.1323C208.443 39.4452 208.295 37.8263 207.671 36.2433C207.491 35.7911 207.283 35.346 207.082 34.9008C206.913 34.5239 206.755 34.1255 207.24 33.8922C207.703 33.6696 207.954 33.9855 208.148 34.3696C208.974 36.0172 209.62 37.7115 209.498 39.4021L209.502 39.4057Z" fill="black"/>
<path d="M148.106 161.183C146.437 161.151 142.347 160.918 141.773 160.842C141.597 160.821 141.432 160.821 141.267 160.857C141.148 160.882 141.141 160.903 141.012 160.943C140.861 160.99 140.416 161.126 140.096 160.918C140.017 160.868 139.96 160.807 139.935 160.778C139.892 160.731 139.788 160.613 139.741 160.433C139.694 160.25 139.723 160.053 139.813 159.866C140.028 159.407 140.452 159.346 140.897 159.41C142.509 159.651 144.128 159.802 145.758 159.802C146.67 159.802 148.218 159.877 151.331 159.802C151.69 159.794 152.314 159.773 153.065 159.514C153.894 159.227 154.465 158.793 154.968 158.373C158.217 155.641 159.477 152.479 159.736 151.994C159.84 151.8 159.901 151.571 159.919 151.352C159.951 150.957 160.131 150.734 160.529 150.749C160.982 150.767 161.122 151.09 161.14 151.485C161.154 151.782 161.071 152.059 160.935 152.328C158.411 157.274 156.066 159.119 156.066 159.119C155.241 159.837 154.709 160.186 154.099 160.451C153.614 160.663 152.993 160.86 151.446 161.026C149.697 161.212 148.351 161.191 148.103 161.183H148.106Z" fill="black"/>
<path d="M146.144 88.9005C142.32 88.5918 139.193 85.7094 139.347 85.3361C139.358 85.3146 139.408 85.2249 139.494 85.2069C139.696 85.1674 139.929 85.5587 139.965 85.6161C140.284 86.1186 143.085 88.4052 146.406 88.3872C149.479 88.3693 152.359 86.3735 152.862 85.5623C152.915 85.4725 153.242 84.9197 153.594 84.952C153.72 84.9664 153.863 85.0561 153.96 85.1602C153.96 85.1602 154.093 85.3074 154.133 85.5084C154.226 85.9607 150.614 89.2631 146.144 88.9005Z" fill="black"/>
<path d="M127.43 102.024C127.751 101.907 128.257 101.732 128.886 101.55C130.956 100.95 132.226 100.877 134.81 100.418C135.444 100.304 136.378 100.129 137.513 99.8823C140.298 103.125 143.087 106.368 145.873 109.611C142.375 109.676 138.88 109.738 135.381 109.803C135.312 109.648 135.239 109.497 135.17 109.343C132.589 106.903 130.011 104.463 127.43 102.024Z" fill="white"/>
<path d="M193.655 56.7256C191.515 57.0415 188.302 57.2856 184.539 56.6179C179.484 55.7205 175.868 53.6135 173.204 51.912C161.471 44.4243 146.075 30.7302 144.215 29.0718C127.624 9.16787 106.257 1.38217 92.7576 8.24894C89.9822 9.65963 85.7276 12.6138 82.1695 19.2688C81.5807 20.4534 80.8446 22.144 80.2702 24.2618C79.947 25.4536 79.369 27.575 79.3762 29.639C79.3905 33.0957 81.0313 38.7456 85.6665 40.6588C87.7669 41.5239 91.8277 42.1844 94.1973 39.5748C96.2797 37.2811 95.6658 33.9859 95.5689 33.5013C95.5689 33.5013 94.7359 30.3425 92.0826 27.898C87.8136 23.9711 78.1554 22.9947 70.5438 26.4084C55.7118 33.0598 59.7259 51.4167 43.4973 59.73C37.3613 62.8745 31.4839 62.957 28.4751 62.9965C14.0776 63.1975 3.9132 55.2144 0.728516 52.4863" stroke="black" stroke-width="1.62543" stroke-miterlimit="10" stroke-linecap="round"/>
<path d="M78.7387 122.968L84.6773 117.031C84.7132 116.995 84.7491 116.923 84.7491 116.888C84.7491 116.816 84.7132 116.78 84.6773 116.744C83.0113 115.078 80.8032 114.174 78.4515 114.174C73.6009 114.174 69.6191 118.119 69.6191 123.004C69.6191 127.889 73.565 131.834 78.4515 131.834C80.8032 131.834 83.0113 130.93 84.6773 129.264C84.7132 129.228 84.7491 129.157 84.7491 129.121C84.7491 129.049 84.7132 129.013 84.6773 128.977L78.7387 122.968ZM77.7263 119.131C76.9651 119.131 76.3511 118.517 76.3511 117.756C76.3511 116.995 76.9651 116.381 77.7263 116.381C78.4874 116.381 79.1014 116.995 79.1014 117.756C79.1014 118.517 78.4874 119.131 77.7263 119.131Z" fill="white"/>
<path d="M94.5087 152.881C92.0816 151.639 89.2954 151.38 86.678 152.227C86.5919 152.256 86.4734 152.342 86.4447 152.4C86.4159 152.457 86.4123 152.601 86.4447 152.69L89.3529 161.686L80.3266 164.651C80.1507 164.708 80.0322 164.938 80.0609 165.171C80.9083 167.792 82.7466 169.899 85.1737 171.137C90.2002 173.707 96.4044 171.704 98.9751 166.679C101.546 161.653 99.5424 155.451 94.5159 152.881H94.5087ZM91.6902 156.251C92.1031 155.444 93.1515 155.103 93.9594 155.519C94.7672 155.935 95.1083 156.98 94.6954 157.791C94.2825 158.602 93.2341 158.94 92.4227 158.523C91.6112 158.107 91.245 157.12 91.6902 156.251Z" fill="white"/>
<path d="M103.293 59.7126C103.449 59.6246 103.505 59.4264 103.417 59.2699C103.329 59.1134 103.131 59.0578 102.974 59.1458L103.293 59.7126ZM98.9332 58.7352C99.2046 59.1597 99.7409 59.7068 100.489 59.9984C101.253 60.296 102.216 60.3177 103.293 59.7126L102.974 59.1458C102.067 59.6554 101.308 59.6196 100.725 59.3926C100.127 59.1594 99.6917 58.7146 99.4809 58.3849L98.9332 58.7352Z" fill="black"/>
<path d="M105.213 68.3993C105.993 69.1207 107.979 69.679 109.684 66.1411" stroke="black" stroke-width="0.650171" stroke-linecap="round"/>
<path d="M105.977 59.1816C106.725 60.0375 108.719 61.2893 110.704 59.4498" stroke="black" stroke-width="0.650171" stroke-linecap="round"/>
<path d="M104.098 58.5278C105.39 62.0908 104.901 65.3743 104.482 66.038C103.944 66.8899 106.543 66.4572 106.892 65.2695" stroke="black" stroke-width="0.650171" stroke-linecap="round"/>
</g>
<defs>
<clipPath id="clip0_4697_21622">
<rect width="309.481" height="229.917" fill="white" transform="translate(0 5.08203)"/>
</clipPath>
</defs>
</svg>
