<svg width="347" height="235" viewBox="0 0 347 235" fill="none" xmlns="http://www.w3.org/2000/svg">
<rect x="0.710938" width="346" height="235" rx="28" fill="#ECBDED"/>
<mask id="mask0_4697_21634" style="mask-type:alpha" maskUnits="userSpaceOnUse" x="1" y="0" width="346" height="235">
<rect x="1" width="346" height="235" rx="28" fill="#5906FF"/>
</mask>
<g mask="url(#mask0_4697_21634)">
<rect x="263" y="419" width="444" height="290" transform="rotate(-90 263 419)" fill="#BC7DBD"/>
</g>
<path d="M238.416 54.8226H234.201L233.599 53.6183L232.395 52.4141L231.19 51.812H229.384L228.18 53.6183L227.578 55.4247L226.976 57.8331L227.578 59.6395L228.18 62.0479V63.2522L224.567 62.6501L221.557 63.2522L215.535 64.4564L206.504 66.8649L198.676 69.2733L186.032 73.4881L180.613 75.2945V76.4987L173.989 77.7029L171.581 65.6606L169.173 51.812L170.979 51.2099L172.183 49.4035L172.785 50.0056L173.989 49.4035L175.796 48.1993L177.602 45.7908L178.204 41.576V37.9633H180.011H181.215L181.817 37.3612L182.419 36.157V34.3506L181.817 33.1464L180.011 32.5443L177 31.3401L175.194 30.7379L172.785 30.1358L170.979 28.9316L169.173 27.7274L167.968 27.1253L166.764 25.921L165.56 25.3189L164.356 24.7168L163.754 25.3189L162.549 25.921L161.947 27.7274L161.345 28.9316L160.743 30.7379L160.141 33.1464V34.9528L158.937 37.9633L157.13 42.1781V45.7908L158.335 49.4035V54.8226L157.13 63.8543L155.324 72.886L153.518 80.7135V86.1326L155.324 92.7558L158.335 97.5727L161.345 99.9812L167.968 101.788L172.785 99.9812L177.602 98.777L184.828 96.9706L185.43 96.3685L186.032 97.5727L188.44 96.3685L193.257 95.1643L201.085 92.7558L208.31 90.3474L216.138 89.1431V92.7558L214.933 96.3685V99.9812V107.207L215.535 111.421L219.148 117.443L231.19 142.731L250.458 148.753L263.103 210.77L264.307 213.179L264.909 216.189L266.113 219.802V222.813L264.909 225.221V228.834L267.317 229.436L269.726 227.63L271.532 224.619L272.736 221.608L275.145 219.802L279.36 221.006L283.574 224.017L287.789 227.63L294.413 233.049L296.219 234.253H298.025L298.627 233.049L299.832 231.844H302.24L308.261 226.425L286.585 208.964L279.962 190.901V137.914L274.543 88.541L263.103 75.8966H254.673L257.081 69.2733L258.888 63.8543L260.092 57.231L257.081 54.8226L254.673 51.2099L253.469 46.9951L251.662 42.1781L250.458 43.9845L246.243 49.4035L242.631 53.0162L238.416 54.8226Z" fill="white"/>
<path d="M308.076 218.934C304.653 213.092 302.689 206.511 302.351 199.749C294.866 69.9788 258.017 67.2368 258.017 67.2368C253.329 83.1883 244.65 78.3899 244.65 78.3899L215.461 112.192L227.596 140.936L227.624 140.992C230.903 143.836 234.08 144.123 237.109 142.585H237.119C241.019 140.621 244.668 135.637 247.975 129.181C246.595 121.826 242.621 97.8707 247.716 88.9316C247.716 88.9316 258.415 75.5183 265.316 81.8081C265.851 82.3948 266.423 82.9457 267.03 83.4569C275.673 90.6824 276.043 111.655 275.061 135.461L276.006 154.377C276.006 154.377 277.192 167.661 277.674 184.668C278.155 201.676 281.147 205.187 283.454 207.688C283.454 207.688 293.282 217.451 299.313 220.694C305.343 223.926 307.918 226.965 305.334 228.049C305.334 228.049 305.102 229.938 303.62 229.41C303.62 229.41 302.351 233.338 299.776 231.652C299.757 231.765 299.729 231.877 299.693 231.986C300.986 232.366 302.301 232.672 303.629 232.903C310.602 233.946 317.722 233.324 324.407 231.087C316.811 230.411 311.522 224.723 308.076 218.934ZM222.492 118.13C221.666 118.008 220.869 117.738 220.139 117.333C219.418 116.947 218.744 116.481 218.129 115.943C217.511 115.414 216.971 114.799 216.526 114.119C217.925 114.934 219.212 115.814 220.574 116.518C221.885 117.312 223.386 117.738 224.919 117.75C224.173 118.139 223.321 118.273 222.492 118.13ZM245.381 119.973C244.74 120.522 243.936 120.844 243.093 120.89C242.264 120.957 241.429 120.872 240.629 120.64C239.838 120.433 239.076 120.128 238.36 119.732C237.64 119.357 236.976 118.883 236.387 118.324C237.934 118.806 239.379 119.371 240.861 119.751C242.32 120.232 243.882 120.309 245.381 119.973Z" fill="black"/>
<path d="M179.704 38.0379V38.1583L179.722 38.0286C179.713 38.0379 179.713 38.0379 179.704 38.0379ZM186.485 24.3651C177.796 22.3179 175.082 30.4512 175.082 30.4512L175.072 30.4604C177.194 31.3034 179.296 32.063 180.602 32.5169C180.602 32.5169 182.77 28.6078 185.29 31.8592L183.03 46.0692C183.03 46.0692 179.491 46.0136 178.787 43.9108L178 42.8363C177.499 44.4852 177.638 45.9951 176.341 45.7357C176.127 46.6292 175.807 47.4937 175.387 48.3109C175.619 51.2845 182.955 52.2201 182.955 52.2201C182.945 52.3061 182.938 52.3927 182.937 52.4794C182.937 54.1654 185.531 55.7031 187.235 55.9717L201.204 58.1949C201.63 58.2641 202.064 58.2484 202.484 58.1487C202.903 58.0491 203.298 57.8674 203.647 57.6143C203.996 57.3611 204.291 57.0414 204.516 56.6737C204.74 56.3059 204.89 55.8973 204.956 55.4715L209.328 27.9964L186.485 24.3651ZM202.131 30.9421C200.508 31.0537 198.878 30.9415 197.286 30.6086C195.711 30.254 194.177 29.7355 192.71 29.0617C191.248 28.3963 189.866 27.5698 188.588 26.5976C190.042 27.2738 191.515 27.8482 192.988 28.3947C194.455 28.9285 195.956 29.3649 197.48 29.7008C198.997 30.0253 200.542 30.199 202.093 30.2196C203.664 30.1829 205.222 29.9336 206.725 29.4785C205.315 30.2872 203.749 30.7861 202.131 30.9421H202.131Z" fill="black"/>
<path d="M232.784 65.1372C231.46 69.459 230.429 73.8653 229.7 78.3261C229.347 80.5438 229.143 82.7827 229.092 85.0278C228.992 87.2341 229.307 89.4395 230.018 91.5302C230.375 92.5234 230.98 93.4086 231.776 94.1016C232.134 94.4352 232.563 94.6819 233.031 94.8225C233.5 94.9631 233.994 94.9938 234.476 94.9123C235.47 94.624 236.36 94.0536 237.037 93.2701C237.785 92.466 238.45 91.588 239.021 90.6495C241.298 86.771 243.097 82.6315 244.38 78.3209L244.383 78.3124C244.406 78.2404 244.456 78.1805 244.524 78.1458C244.591 78.1111 244.669 78.1045 244.741 78.1274L244.762 78.1352C245.882 78.6333 247.101 78.8665 248.326 78.8167C249.55 78.7214 250.723 78.2863 251.713 77.5605C253.669 76.0003 255.192 73.9632 256.133 71.6449C257.161 69.354 257.965 66.9689 258.533 64.523C259.119 62.0835 259.553 59.6101 259.835 57.1169L260.071 57.4799C258.534 56.9034 257.219 55.8549 256.314 54.4849C255.396 53.1931 254.627 51.8011 254.023 50.3357C252.811 47.4352 251.916 44.412 251.354 41.3189L252.389 41.469C251.471 43.3012 250.433 45.0703 249.281 46.7647C248.137 48.4754 246.843 50.0804 245.413 51.5605C243.966 53.0906 242.237 54.3269 240.32 55.2014C239.318 55.6258 238.247 55.8607 237.159 55.8945C236.061 55.9138 234.97 55.7032 233.958 55.2762C233.83 55.2231 233.725 55.1261 233.663 55.0026L233.654 54.9856C233.245 54.1638 232.713 53.4086 232.078 52.7458C231.839 52.44 231.521 52.2052 231.158 52.0669C230.795 51.9285 230.402 51.8917 230.02 51.9605C229.247 52.2897 228.63 52.9018 228.294 53.6713C227.921 54.5117 227.724 55.4195 227.715 56.339C227.512 58.2262 227.761 60.1348 228.442 61.9066C228.793 62.7448 229.384 63.4609 230.14 63.9656C230.93 64.435 231.823 64.7043 232.741 64.7499L232.758 64.7515C232.838 64.7583 232.913 64.7907 232.973 64.8437C233.032 64.8968 233.073 64.9678 233.089 65.046C233.338 66.2181 233.691 67.3658 234.142 68.4757C234.593 69.5917 235.141 70.6659 235.78 71.6861C236.435 72.6963 237.219 73.6176 238.11 74.4273C239.029 75.215 240.077 75.8393 241.207 76.2728C241.214 76.2752 241.221 76.2789 241.227 76.2839C241.233 76.2889 241.238 76.295 241.241 76.3018C241.245 76.3086 241.247 76.3161 241.248 76.3238C241.248 76.3314 241.247 76.3392 241.245 76.3465C241.239 76.3609 241.229 76.3727 241.215 76.3797C241.201 76.3866 241.185 76.3882 241.17 76.384C239.996 75.9977 238.897 75.4125 237.921 74.6542C236.964 73.8663 236.113 72.9579 235.388 71.9515C234.681 70.934 234.074 69.8497 233.577 68.7142C233.07 67.5777 232.665 66.3981 232.367 65.1895L232.716 65.4855C231.657 65.4677 230.62 65.1884 229.695 64.6724C228.778 64.1075 228.054 63.2786 227.616 62.2945C226.828 60.392 226.508 58.3279 226.684 56.2761C226.692 54.3308 227.344 51.8163 229.671 50.8592C230.273 50.6573 230.929 50.6877 231.509 50.9444C232.029 51.1751 232.502 51.4999 232.904 51.9024C233.642 52.6582 234.258 53.5238 234.73 54.4685L234.426 54.1781C235.289 54.5295 236.215 54.7017 237.148 54.6841C238.08 54.6666 238.998 54.4597 239.848 54.076C241.61 53.2506 243.2 52.1014 244.537 50.6884C245.932 49.276 247.198 47.7417 248.319 46.1039C249.458 44.469 250.488 42.7606 251.402 40.9897L251.406 40.9811C251.459 40.8785 251.543 40.7951 251.645 40.7426C251.748 40.6902 251.865 40.6715 251.979 40.689C252.093 40.7066 252.198 40.7596 252.28 40.8405C252.363 40.9214 252.417 41.0262 252.436 41.1399C252.69 42.6336 253.047 44.1413 253.438 45.6209C253.83 47.1022 254.307 48.5593 254.869 49.9847C255.412 51.4041 256.115 52.7572 256.964 54.0181C257.746 55.2796 258.906 56.2627 260.278 56.8278L260.292 56.8324C260.365 56.857 260.427 56.9062 260.468 56.9717C260.509 57.0371 260.525 57.1147 260.515 57.1911C260.168 59.7043 259.663 62.1932 259.004 64.6432C258.373 67.1 257.528 69.4969 256.48 71.8066C255.48 74.1689 253.927 76.2562 251.952 77.8923C250.906 78.6773 249.663 79.1555 248.361 79.2732C247.059 79.3538 245.756 79.1443 244.545 78.6597L244.927 78.4741C244.322 80.6749 243.611 82.8375 242.793 84.962C241.996 87.1113 241.012 89.1865 239.852 91.1636C239.254 92.167 238.556 93.1069 237.768 93.9687C236.959 94.9117 235.89 95.5954 234.695 95.9347C234.058 96.0517 233.403 96.0176 232.782 95.835C232.16 95.6524 231.591 95.3264 231.119 94.8834C230.203 94.0723 229.511 93.0406 229.106 91.8864C228.374 89.6714 228.066 87.3383 228.198 85.0091C228.289 82.7245 228.556 80.4502 228.997 78.2065C229.847 73.7404 231.077 69.355 232.673 65.0983C232.678 65.0837 232.689 65.0719 232.704 65.0654C232.718 65.0589 232.734 65.0583 232.748 65.0637C232.762 65.0694 232.774 65.0801 232.78 65.0936C232.787 65.1072 232.788 65.1227 232.784 65.1372Z" fill="black"/>
<path d="M227.499 53.8819C230.774 47.6072 234.195 54.724 234.195 54.724C243.433 58.6601 251.898 41.2262 251.898 41.2262C251.898 41.2262 254.219 55.2542 260.178 57.1508C260.762 54.5278 261.018 51.8424 260.94 49.1563C260.873 46.0513 259.934 43.0278 258.231 40.4311C256.527 37.8344 254.128 35.769 251.306 34.4709C247.113 32.6246 242.427 32.22 237.98 33.3205C224.204 36.4404 227.499 53.8819 227.499 53.8819Z" fill="black"/>
<path d="M228.703 63.3249C226.686 62.9232 224.611 62.9193 222.592 63.3133C220.555 63.617 218.534 64.0393 216.524 64.5115C212.505 65.4658 208.541 66.652 204.581 67.8457C200.622 69.0485 196.708 70.3984 192.781 71.7111C188.858 73.0294 184.947 74.403 181.042 75.7668L181.378 75.1438L183.621 86.4946C184.428 90.2652 185.173 94.0492 186.031 97.8087L185.692 97.633L189.374 96.0964L193.086 94.6279L196.823 93.2188C198.084 92.7902 199.334 92.3241 200.607 91.9257C203.137 91.0817 205.709 90.3586 208.324 89.7564C209.629 89.4543 210.954 89.2226 212.289 89.0236C213.655 88.8098 215.038 88.7213 216.42 88.7592C216.505 88.7635 216.589 88.7846 216.666 88.8212C216.744 88.8579 216.813 88.9094 216.87 88.9728C216.928 89.0362 216.972 89.1103 217.001 89.1909C217.029 89.2714 217.042 89.3568 217.038 89.4422C217.036 89.4703 217.033 89.4983 217.028 89.5259L217.017 89.5815C216.302 93.396 215.626 97.2227 215.276 101.057C215.081 102.955 215.032 104.865 215.131 106.77C215.187 108.616 215.605 110.433 216.363 112.117C217.273 113.78 218.336 115.355 219.538 116.82C220.697 118.445 221.711 120.168 222.571 121.968C224.259 125.522 225.702 129.188 226.889 132.939L226.79 132.749C227.394 133.482 228.129 134.098 228.957 134.565C229.836 135.039 230.755 135.436 231.702 135.752C233.647 136.383 235.643 136.841 237.668 137.123C241.765 137.69 245.892 138.005 250.028 138.065C250.048 138.066 250.067 138.074 250.082 138.088C250.096 138.103 250.104 138.122 250.104 138.143C250.105 138.163 250.097 138.183 250.083 138.197C250.069 138.212 250.049 138.221 250.029 138.221C245.872 138.439 241.704 138.354 237.559 137.965C235.465 137.762 233.392 137.376 231.365 136.809C229.209 136.304 227.255 135.161 225.758 133.529C225.721 133.485 225.693 133.435 225.673 133.381L225.659 133.338C224.391 129.69 222.889 126.127 221.161 122.673C220.322 120.964 219.335 119.332 218.212 117.795C216.923 116.262 215.799 114.599 214.857 112.832C214.004 110.955 213.54 108.926 213.491 106.865C213.416 104.877 213.494 102.885 213.725 100.909C214.146 96.9856 214.868 93.1344 215.667 89.3065L216.264 90.1286C214.99 90.0731 213.714 90.1275 212.45 90.2913C211.152 90.452 209.852 90.6448 208.562 90.9096C205.979 91.4125 203.404 92.0226 200.864 92.7662C199.587 93.1131 198.332 93.5393 197.064 93.9223L193.299 95.2007C192.054 95.6554 190.813 96.1229 189.576 96.603L185.885 98.0906L185.879 98.093C185.818 98.1174 185.751 98.1168 185.69 98.0912C185.63 98.0656 185.583 98.0171 185.558 97.9565L185.546 97.9148C184.756 94.1403 183.855 90.3903 183.016 86.6269L180.317 75.3757C180.288 75.2525 180.303 75.1227 180.361 75.0099C180.419 74.8971 180.515 74.8088 180.633 74.761L180.654 74.7525C184.508 73.1833 188.411 71.7714 192.336 70.4058C196.26 69.0403 200.236 67.8263 204.225 66.6555C208.213 65.4808 212.252 64.4616 216.34 63.6579C218.383 63.2329 220.449 62.9277 222.528 62.7437C224.612 62.4525 226.734 62.6007 228.758 63.1786C228.776 63.1853 228.792 63.199 228.801 63.2169C228.81 63.2349 228.812 63.2555 228.806 63.2747C228.8 63.2939 228.787 63.31 228.769 63.3198C228.752 63.3296 228.731 63.3322 228.712 63.3272L228.703 63.3249Z" fill="black"/>
<path d="M275.106 136.74C275.006 136.74 274.91 136.702 274.838 136.633C274.766 136.565 274.722 136.471 274.716 136.372C274.711 136.273 274.743 136.175 274.807 136.099C274.871 136.022 274.962 135.973 275.06 135.961C281.02 135.262 285.625 134.559 287.216 134.308C285.123 130.451 283.974 114.838 283.923 114.137C281.196 76.2923 258.12 67.692 257.887 67.6097C257.839 67.5926 257.795 67.5662 257.756 67.5319C257.718 67.4977 257.687 67.4562 257.665 67.4099C257.62 67.3165 257.615 67.2092 257.649 67.1115C257.684 67.0139 257.756 66.9339 257.849 66.8892C257.942 66.8446 258.05 66.8389 258.147 66.8734C258.385 66.9575 281.936 75.6971 284.702 114.081C285.061 119.06 286.386 132.405 288.168 134.331C288.216 134.383 288.249 134.447 288.264 134.516C288.278 134.585 288.274 134.656 288.251 134.723C288.228 134.79 288.188 134.849 288.134 134.894C288.08 134.94 288.015 134.97 287.946 134.982C287.893 134.99 282.566 135.866 275.152 136.738C275.136 136.739 275.121 136.74 275.106 136.74Z" fill="black"/>
<path d="M181.083 76.3566C178.681 76.961 176.27 77.5217 173.862 78.0976C173.784 78.1161 173.703 78.1031 173.635 78.0615C173.567 78.0198 173.519 77.953 173.5 77.8757L173.499 77.8684L173.495 77.8498C172.593 73.5269 171.768 69.1904 170.901 64.8613L168.461 51.8454C168.439 51.7287 168.451 51.6082 168.495 51.4981C168.54 51.388 168.615 51.2929 168.712 51.2242C168.809 51.1555 168.923 51.1159 169.042 51.1102C169.16 51.1045 169.278 51.1329 169.381 51.1921L169.704 51.3779C169.725 51.3891 169.741 51.4082 169.748 51.431C169.757 51.4334 169.733 51.4001 169.713 51.4174C169.662 51.3825 169.655 51.4197 169.731 51.3768C169.952 51.2447 170.147 51.074 170.308 50.8729C170.723 50.3793 171.091 49.8481 171.408 49.2863L171.417 49.272C171.512 49.1116 171.667 48.9956 171.848 48.9495C172.029 48.9035 172.22 48.9311 172.381 49.0264L172.448 49.0718C172.582 49.2021 172.744 49.2993 172.922 49.3559C173.099 49.4124 173.288 49.4267 173.472 49.3977C173.874 49.2417 174.212 48.9551 174.431 48.5839C175.016 47.6661 175.444 46.6566 175.696 45.5973L175.704 45.5648C175.746 45.4033 175.849 45.2645 175.992 45.1776C176.134 45.0907 176.305 45.0624 176.468 45.0988C176.602 45.1365 176.743 45.1464 176.882 45.128C176.865 45.1502 176.921 45.1186 177.002 44.9091C177.149 44.5125 177.27 43.9472 177.441 43.4326L177.416 43.5663C177.508 42.5904 177.634 41.6378 177.708 40.7004C177.747 40.2426 177.761 39.7829 177.748 39.3236C177.747 38.9215 177.668 38.5234 177.514 38.1519L177.5 38.1254C177.46 38.0434 177.442 37.9525 177.447 37.8614C177.461 37.7171 177.531 37.5839 177.641 37.4894C177.714 37.4273 177.803 37.3852 177.897 37.3673L177.969 37.3589C178.004 37.3553 178.039 37.3541 178.074 37.3554L178.211 37.3613L178.448 37.3816L178.896 37.4331L179.335 37.4907L179.553 37.5203L179.661 37.5349L179.711 37.5416L179.735 37.5448C179.735 37.5448 179.745 37.5458 179.735 37.545C179.624 37.5356 179.513 37.5688 179.426 37.6378L179.652 37.5488C179.9 37.4988 180.159 37.4684 180.402 37.4075C180.635 37.3427 180.859 37.2504 181.071 37.1325C181.276 37.0305 181.459 36.889 181.609 36.7161C181.76 36.5432 181.875 36.3423 181.947 36.1249C182.184 35.1245 182.061 34.0726 181.6 33.1535L181.805 33.3321C180.262 32.7722 178.74 32.1471 177.2 31.5761C175.663 30.9999 174.129 30.4114 172.629 29.733C171.876 29.3992 171.128 29.0546 170.392 28.6793C169.635 28.3203 168.913 27.8923 168.235 27.4006C168.053 27.2599 167.891 27.0953 167.754 26.9112C167.644 26.7535 167.523 26.6036 167.393 26.4627C167.132 26.1783 166.829 25.9349 166.496 25.7406C165.823 25.3495 165.071 25.1149 164.296 25.054L164.37 25.0468C163.409 25.4373 162.622 26.1632 162.155 27.09C161.674 28.0479 161.36 29.0808 161.225 30.1444L160.704 33.4171C160.539 34.5536 160.194 35.6562 159.679 36.683C158.597 38.5484 157.85 40.589 157.473 42.7122C157.316 43.7332 157.356 44.7746 157.589 45.7807C157.717 46.2765 157.89 46.7595 158.106 47.2239C158.337 47.7296 158.569 48.2349 158.788 48.755C159.315 49.8287 159.623 50.9973 159.692 52.1917C159.635 53.3312 159.486 54.4643 159.249 55.5803L158.095 62.1091L155.765 75.1647C155.379 77.3218 154.943 79.552 154.598 81.6492C154.304 83.7566 154.34 85.897 154.706 87.9931C155.435 92.2334 157.534 96.1181 160.68 99.0526C161.362 99.7954 162.247 100.322 163.226 100.566C164.248 100.848 165.297 101.018 166.356 101.076C167.423 101.128 168.493 101.067 169.547 100.894C170.616 100.696 171.673 100.435 172.712 100.113C176.961 98.9062 181.238 97.7901 185.502 96.6281C185.521 96.6227 185.542 96.6253 185.56 96.6351C185.578 96.645 185.591 96.6614 185.597 96.681C185.603 96.7005 185.601 96.7215 185.591 96.7396C185.582 96.7576 185.566 96.7712 185.546 96.7776C181.349 98.1601 177.166 99.5885 172.955 100.926C171.897 101.299 170.818 101.61 169.723 101.856C168.604 102.085 167.464 102.195 166.321 102.184C165.17 102.172 164.024 102.022 162.909 101.737C162.318 101.597 161.748 101.378 161.216 101.086C160.699 100.778 160.22 100.41 159.789 99.989C156.342 96.9263 154.006 92.8076 153.148 88.2768C152.727 86.0179 152.662 83.7071 152.956 81.4282C153.114 80.2723 153.328 79.2156 153.526 78.1246L154.127 74.8693L156.589 61.8575L157.83 55.3525C158.062 54.3098 158.222 53.2523 158.308 52.1875C158.261 51.17 158.013 50.1718 157.579 49.2503C157.382 48.7475 157.165 48.2434 156.949 47.7395C156.712 47.1959 156.526 46.6318 156.392 46.0542C156.147 44.8973 156.13 43.7033 156.345 42.5402C156.815 40.3176 157.672 38.1949 158.876 36.2687C159.389 35.3344 159.742 34.3215 159.923 33.2712L160.546 30.0176C160.726 28.8906 161.097 27.8026 161.643 26.8C162.195 25.7412 163.123 24.9261 164.243 24.5138C164.265 24.5068 164.288 24.5041 164.31 24.5059L164.318 24.5067C165.183 24.5794 166.02 24.8493 166.764 25.2955C167.137 25.5192 167.475 25.7974 167.765 26.1211C167.912 26.2824 168.046 26.4536 168.168 26.6337C168.277 26.7781 168.403 26.9078 168.545 27.0195C169.882 27.9314 171.321 28.6842 172.832 29.2626C174.331 29.9129 175.868 30.4759 177.409 31.0264C178.947 31.5844 180.478 32.158 182.042 32.6475C182.085 32.6611 182.125 32.6833 182.16 32.7128C182.195 32.7423 182.223 32.7786 182.243 32.8193L182.247 32.8264C182.514 33.3645 182.707 33.9369 182.818 34.5274C182.948 35.1449 182.927 35.7844 182.759 36.3923C182.565 37.0391 182.129 37.5865 181.543 37.9216C181.271 38.0891 180.979 38.2229 180.674 38.32C180.377 38.4085 180.076 38.4573 179.776 38.5251L180.001 38.4361C179.898 38.5048 179.774 38.5366 179.651 38.5262L179.637 38.5249L179.606 38.5221L179.548 38.5166L179.438 38.5058L179.22 38.4845L178.788 38.4442L178.363 38.4112L178.162 38.4014L178.08 38.4008C178.064 38.4006 178.055 38.4018 178.076 38.401L178.093 38.3974C178.178 38.3802 178.258 38.3416 178.324 38.2851C178.376 38.2402 178.417 38.1851 178.447 38.1234C178.476 38.0617 178.492 37.9946 178.494 37.9264L178.427 37.6361C178.681 38.1402 178.824 38.6921 178.849 39.2556C178.883 39.7586 178.888 40.2631 178.863 40.7667C178.823 41.7525 178.73 42.7147 178.678 43.6596C178.676 43.6977 178.67 43.7355 178.659 43.7723L178.653 43.7937C178.512 44.2921 178.422 44.7699 178.214 45.3725C178.151 45.5521 178.063 45.7223 177.954 45.8784C177.805 46.0878 177.599 46.2496 177.361 46.3442C176.988 46.469 176.588 46.4846 176.207 46.3892L176.979 45.8907C176.834 46.4949 176.647 47.088 176.419 47.6658C176.19 48.2608 175.897 48.829 175.545 49.3603C175.153 50.0017 174.549 50.4855 173.837 50.7274C173.426 50.8394 172.992 50.8318 172.585 50.7057C172.226 50.5883 171.891 50.4105 171.593 50.1799L172.632 49.9655C172.267 50.6217 171.831 51.2362 171.333 51.7982C171.048 52.1363 170.698 52.4143 170.305 52.6159C169.995 52.7662 169.642 52.8009 169.309 52.7136C169.136 52.6444 168.975 52.5479 168.832 52.4276C168.73 52.3158 168.635 52.1979 168.547 52.0746L169.79 51.6071L172.023 64.6602C172.713 69.0209 173.446 73.374 174.102 77.7408L173.736 77.4931C176.173 77.0588 178.607 76.6094 181.051 76.2037C181.071 76.2005 181.091 76.2051 181.107 76.2165C181.124 76.2279 181.135 76.2453 181.14 76.2649C181.144 76.2846 181.14 76.3051 181.129 76.3221C181.119 76.3392 181.102 76.3515 181.083 76.3565L181.083 76.3566Z" fill="black"/>
<path d="M168.73 31.5991L173.118 33.417C173.849 33.7361 174.582 33.9865 175.31 34.3632C176.03 34.7498 176.663 35.2792 177.172 35.919C178.203 37.2238 178.674 38.8847 178.481 40.5366L178.184 45.2766C178.181 45.328 178.168 45.3782 178.145 45.4245C178.123 45.4707 178.091 45.5121 178.053 45.5462C178.014 45.5803 177.97 45.6064 177.921 45.6232C177.872 45.6399 177.821 45.6468 177.77 45.6436C177.718 45.6404 177.668 45.6271 177.622 45.6044C177.576 45.5818 177.535 45.5502 177.501 45.5116C177.467 45.4729 177.441 45.428 177.424 45.3793C177.408 45.3306 177.401 45.2791 177.404 45.2278L177.406 45.2118L177.897 40.488C178.02 39.7334 177.992 38.962 177.814 38.2184C177.636 37.4749 177.312 36.7741 176.862 36.1565C176.407 35.5336 175.83 35.0101 175.166 34.618C174.504 34.2377 173.746 33.9389 173.04 33.5957L168.73 31.5991Z" fill="black"/>
<path d="M167.217 35.1504L170.418 37.0095L173.624 38.8844C174.168 39.2539 174.609 39.7561 174.904 40.3435C175.193 40.9589 175.328 41.5298 175.542 42.1181L176.718 45.6279C176.751 45.726 176.743 45.8333 176.697 45.926C176.651 46.0187 176.57 46.0892 176.472 46.1221C176.374 46.155 176.266 46.1476 176.174 46.1014C176.081 46.0553 176.01 45.9742 175.978 45.876L175.972 45.8563L174.982 42.2894C174.806 41.7089 174.676 41.0654 174.463 40.5523C174.229 40.0186 173.862 39.5537 173.397 39.2016L167.217 35.1504Z" fill="black"/>
<path d="M165.758 40.1367L168.745 41.3035C169.785 41.7061 170.683 42.4053 171.328 43.3143C171.973 44.2233 172.337 45.3019 172.374 46.4159L172.416 49.6308C172.417 49.7341 172.377 49.8335 172.305 49.9074C172.233 49.9813 172.134 50.0235 172.031 50.0249C171.928 50.0263 171.828 49.9866 171.754 49.9147C171.68 49.8428 171.637 49.7444 171.636 49.6411C171.635 49.6335 171.636 49.6235 171.636 49.6161L171.788 46.4204C171.813 45.392 171.535 44.3792 170.987 43.5084C170.429 42.6215 169.623 41.9174 168.669 41.4831L165.758 40.1367Z" fill="black"/>
<path d="M163.34 43.9941L165.715 45.0761C166.145 45.2264 166.541 45.4629 166.877 45.7712C167.214 46.0794 167.484 46.4529 167.671 46.8689C167.848 47.2927 167.947 47.745 167.963 48.204C168.003 48.6252 168.072 49.0432 168.168 49.455C168.222 49.8376 168.353 50.2054 168.551 50.5367C168.75 50.868 169.013 51.156 169.326 51.3836L169.333 51.3876C169.379 51.4115 169.419 51.4441 169.452 51.4836C169.485 51.523 169.51 51.5686 169.525 51.6176C169.54 51.6666 169.546 51.7182 169.541 51.7693C169.536 51.8205 169.522 51.8702 169.498 51.9157C169.474 51.9612 169.441 52.0015 169.402 52.0344C169.362 52.0672 169.317 52.092 169.268 52.1073C169.219 52.1226 169.167 52.128 169.116 52.1234C169.065 52.1187 169.015 52.1041 168.97 52.0802C168.957 52.0736 168.945 52.0664 168.933 52.0585C168.55 51.7592 168.233 51.3835 168.003 50.9553C167.772 50.5271 167.633 50.0557 167.595 49.5709C167.525 49.1282 167.485 48.6813 167.476 48.2332C167.496 47.8196 167.439 47.4061 167.308 47.0132C167.164 46.621 166.941 46.2625 166.653 45.9598C166.365 45.6572 166.018 45.4167 165.633 45.2533L163.34 43.9941Z" fill="black"/>
<path d="M239.074 54.9931C239.743 54.7291 240.449 54.568 241.166 54.5153C241.884 54.4535 242.607 54.4717 243.321 54.5697C244.039 54.668 244.741 54.8594 245.409 55.139C246.08 55.4113 246.696 55.8013 247.229 56.2905C246.533 56.0903 245.89 55.8646 245.218 55.7174C244.556 55.5579 243.887 55.4326 243.212 55.3422C241.862 55.1439 240.501 55.0746 239.074 54.9931Z" fill="black"/>
<path d="M253.027 56.5034C253.633 56.3198 254.263 56.229 254.896 56.2341C255.53 56.2303 256.162 56.2961 256.781 56.4302C258.049 56.6684 259.195 57.3388 260.025 58.327C259.438 58.0736 258.892 57.8447 258.326 57.6562C257.756 57.483 257.19 57.317 256.609 57.1911C255.446 56.9256 254.266 56.7511 253.027 56.5034Z" fill="black"/>
<path d="M251.806 64.165C251.898 64.6918 251.854 65.2334 251.678 65.7384C251.506 66.2949 251.142 66.7721 250.651 67.0843C250.392 67.2319 250.104 67.3214 249.808 67.3466C249.511 67.3718 249.213 67.3321 248.933 67.2303C248.678 67.1384 248.433 67.0189 248.204 66.8738C247.996 66.7111 247.8 66.5341 247.617 66.3442C247.868 66.3903 248.116 66.4503 248.361 66.524C248.605 66.5533 248.836 66.6242 249.061 66.6348C249.473 66.6955 249.893 66.6171 250.255 66.412C250.617 66.1783 250.916 65.8598 251.127 65.4842C251.377 65.0575 251.604 64.6171 251.806 64.165Z" fill="black"/>
<path d="M243.912 60.3824C244.216 60.3718 244.503 60.2439 244.714 60.0254C244.925 59.807 245.043 59.5152 245.043 59.2115C245.043 58.9077 244.925 58.6159 244.714 58.3975C244.503 58.179 244.216 58.0511 243.912 58.0405C243.609 58.0511 243.321 58.179 243.11 58.3975C242.899 58.6159 242.781 58.9077 242.781 59.2115C242.781 59.5152 242.899 59.807 243.11 60.0254C243.321 60.2439 243.609 60.3718 243.912 60.3824Z" fill="black"/>
<path d="M254.694 61.5298C254.997 61.5193 255.285 61.3913 255.496 61.1729C255.707 60.9544 255.825 60.6626 255.825 60.3589C255.825 60.0552 255.707 59.7634 255.496 59.5449C255.285 59.3265 254.997 59.1985 254.694 59.188C254.39 59.1985 254.102 59.3265 253.891 59.5449C253.68 59.7634 253.562 60.0552 253.562 60.3589C253.562 60.6626 253.68 60.9544 253.891 61.1729C254.102 61.3913 254.39 61.5193 254.694 61.5298Z" fill="black"/>
<path d="M244.879 71.0347C245.872 71.5091 246.958 71.7582 248.059 71.7641C248.572 71.7393 249.071 71.5834 249.507 71.3113C249.985 71.0126 250.431 70.6655 250.837 70.2754C250.663 70.8657 250.326 71.3952 249.866 71.8038C249.626 72.0181 249.355 72.1947 249.062 72.3274C248.613 72.5006 248.133 72.5751 247.654 72.5461C247.174 72.517 246.706 72.3849 246.282 72.1589C245.732 71.9 245.252 71.5148 244.879 71.0347Z" fill="black"/>
<path d="M235.576 34.0762C235.576 34.0762 232.549 20.6955 245.643 23.348C258.737 26.0006 251.312 34.4726 251.312 34.4726" fill="black"/>
<path d="M227.63 141.385C227.553 141.385 227.477 141.362 227.413 141.318C227.371 141.29 227.334 141.253 227.306 141.21C227.277 141.168 227.258 141.12 227.248 141.07C227.238 141.02 227.238 140.968 227.248 140.918C227.258 140.867 227.278 140.82 227.306 140.777C228.15 139.517 227.686 135.927 227.436 134.65C227.426 134.6 227.426 134.548 227.436 134.498C227.447 134.447 227.467 134.4 227.495 134.357C227.553 134.271 227.642 134.212 227.744 134.192C227.846 134.172 227.951 134.193 228.037 134.251C228.123 134.309 228.182 134.398 228.202 134.5C228.242 134.7 229.15 139.426 227.955 141.211C227.919 141.265 227.871 141.308 227.814 141.339C227.758 141.369 227.694 141.385 227.63 141.385Z" fill="black"/>
<path d="M284.909 153.768C284.836 153.768 284.764 153.748 284.701 153.71C284.639 153.671 284.588 153.617 284.554 153.551C284.151 152.767 283.199 139.392 282.917 135.312C282.913 135.261 282.92 135.21 282.936 135.161C282.952 135.113 282.978 135.068 283.012 135.029C283.045 134.99 283.086 134.959 283.132 134.936C283.178 134.913 283.228 134.9 283.279 134.896C283.331 134.891 283.382 134.897 283.431 134.913C283.48 134.929 283.526 134.955 283.564 134.988C283.603 135.022 283.635 135.063 283.658 135.11C283.68 135.156 283.693 135.206 283.696 135.258C284.167 142.067 284.97 152.467 285.255 153.207C285.284 153.266 285.298 153.332 285.295 153.398C285.292 153.464 285.273 153.528 285.238 153.584C285.203 153.64 285.155 153.686 285.098 153.719C285.04 153.751 284.975 153.768 284.909 153.768V153.768Z" fill="black"/>
<path d="M279.775 201.285C278.731 197.957 277.901 192.893 277.676 184.668C277.3 171.385 276.491 160.371 276.152 156.191C279.949 156.124 283.022 155.293 284.892 153.377C284.892 153.377 294.609 182.667 279.775 201.285Z" fill="black"/>
<path d="M197.95 166.877L197.896 166.882C198.169 166.882 198.441 166.872 198.714 166.886L197.95 166.877Z" fill="white"/>
<path d="M274.817 128.776C275.187 133.433 275.485 138.092 275.814 142.747L276.251 149.733C276.403 152.061 276.513 154.392 276.761 156.709C277.559 166.024 278.099 175.355 278.38 184.703C278.425 189.334 278.864 193.952 279.691 198.508C280.083 200.751 280.844 202.914 281.941 204.909C282.527 205.873 283.223 206.766 284.016 207.569C284.835 208.393 285.669 209.206 286.508 210.012C289.819 213.284 293.376 216.296 297.149 219.022C299.034 220.345 301.198 221.302 303.102 222.709C304.083 223.382 304.981 224.169 305.777 225.054C306.208 225.526 306.488 226.116 306.581 226.749C306.603 227.107 306.486 227.459 306.255 227.733C306.134 227.851 306.004 227.96 305.869 228.06L305.442 228.288L305.597 228.082C305.541 228.569 305.337 229.027 305.013 229.394C304.821 229.587 304.571 229.713 304.302 229.753C304.046 229.783 303.786 229.754 303.544 229.667L303.886 229.497C303.736 229.933 303.541 230.352 303.304 230.747C303.069 231.157 302.764 231.522 302.402 231.825C302.015 232.153 301.528 232.338 301.021 232.348C300.525 232.327 300.044 232.168 299.633 231.891L300.075 231.695C299.968 232.215 299.773 232.712 299.497 233.165C299.222 233.635 298.829 234.025 298.356 234.295C297.871 234.557 297.324 234.682 296.774 234.656C296.248 234.625 295.729 234.514 295.236 234.327C295.207 234.317 295.179 234.302 295.155 234.282L295.139 234.269C290.607 230.561 286.065 226.859 281.496 223.204L279.78 221.851C279.532 221.636 279.259 221.453 278.967 221.306C278.664 221.158 278.352 221.032 278.031 220.928C277.432 220.694 276.788 220.593 276.145 220.634C275.503 220.675 274.877 220.856 274.312 221.164C273.252 221.951 272.508 223.089 272.211 224.374C271.824 225.883 271.15 227.302 270.225 228.555C269.717 229.241 269.05 229.793 268.281 230.163C267.512 230.533 266.665 230.71 265.812 230.679C265.692 230.672 265.573 230.654 265.456 230.627C265.388 230.615 265.321 230.598 265.255 230.576L265.136 230.533L265.077 230.51C265.034 230.494 264.992 230.471 264.955 230.444C264.822 230.355 264.712 230.236 264.635 230.096C264.636 230.104 264.651 230.128 264.63 230.093L264.545 229.937C264.489 229.825 264.441 229.709 264.4 229.59C264.268 229.175 264.195 228.742 264.183 228.306C264.162 227.524 264.216 226.742 264.344 225.971C264.466 225.198 264.612 224.527 264.694 223.825C264.779 223.126 264.827 222.423 264.837 221.719C264.857 220.313 264.715 218.91 264.413 217.537C264.111 216.167 263.643 214.838 263.019 213.582C262.664 212.903 262.357 212.2 262.1 211.478C261.853 210.747 261.662 209.999 261.527 209.24C261.269 207.752 261.133 206.245 261.12 204.734C261.114 203.236 261.114 201.822 261.049 200.363C260.938 197.469 260.645 194.585 260.172 191.728C259.708 188.887 258.957 186.056 258.334 183.186C257.073 177.464 255.847 171.733 254.658 165.994C253.464 160.256 252.371 154.498 251.379 148.718C250.877 145.829 250.425 142.931 250.048 140.022C249.858 138.567 249.688 137.11 249.559 135.647C249.405 134.184 249.36 132.712 249.426 131.242C249.426 131.232 249.429 131.222 249.433 131.212C249.438 131.203 249.444 131.195 249.452 131.188C249.46 131.181 249.469 131.176 249.478 131.173C249.488 131.17 249.498 131.168 249.508 131.169C249.529 131.171 249.548 131.181 249.561 131.196C249.575 131.211 249.582 131.231 249.581 131.252C249.576 132.711 249.679 134.168 249.89 135.611C250.077 137.06 250.305 138.505 250.553 139.946C251.052 142.827 251.613 145.699 252.18 148.569C253.324 154.307 254.622 160.015 255.882 165.731C257.162 171.443 258.484 177.145 259.847 182.839C260.49 185.687 261.245 188.524 261.741 191.463C262.236 194.384 262.546 197.334 262.671 200.294C262.742 201.761 262.749 203.275 262.76 204.706C262.776 206.125 262.909 207.541 263.155 208.939C263.279 209.621 263.448 210.295 263.66 210.955C263.889 211.615 264.164 212.258 264.485 212.879C265.15 214.255 265.646 215.707 265.96 217.203C266.274 218.696 266.414 220.221 266.378 221.746C266.36 222.506 266.301 223.265 266.201 224.019C266.106 224.771 265.937 225.532 265.826 226.204C265.707 226.877 265.651 227.559 265.66 228.242C265.664 228.539 265.708 228.834 265.791 229.119C265.809 229.174 265.83 229.228 265.855 229.28L265.901 229.365L265.963 229.482C265.924 229.373 265.849 229.28 265.752 229.217C265.684 229.178 265.677 229.179 265.689 229.182L265.695 229.182L265.705 229.186C265.701 229.19 265.748 229.195 265.771 229.201C265.831 229.217 265.894 229.226 265.956 229.229C266.572 229.241 267.182 229.104 267.734 228.831C268.286 228.558 268.765 228.156 269.129 227.659C269.952 226.553 270.56 225.303 270.922 223.973C271.333 222.388 272.3 221.004 273.646 220.074C274.376 219.651 275.2 219.418 276.043 219.396C276.85 219.384 277.652 219.515 278.412 219.786C278.786 219.914 279.15 220.069 279.503 220.248C279.861 220.437 280.197 220.667 280.502 220.934L282.2 222.344L295.583 233.739L295.486 233.681C295.907 233.852 296.351 233.958 296.803 233.997C297.235 234.028 297.668 233.941 298.054 233.744C298.441 233.534 298.765 233.225 298.993 232.849C299.235 232.467 299.409 232.046 299.506 231.605C299.516 231.559 299.536 231.517 299.565 231.481C299.595 231.444 299.632 231.416 299.674 231.396C299.716 231.377 299.763 231.368 299.809 231.369C299.855 231.371 299.901 231.383 299.942 231.405L299.949 231.409C300.267 231.629 300.639 231.758 301.025 231.782C301.402 231.775 301.766 231.638 302.054 231.393C302.667 230.834 303.123 230.124 303.378 229.334L303.382 229.324C303.406 229.258 303.455 229.205 303.518 229.175C303.582 229.145 303.654 229.141 303.72 229.164C303.871 229.234 304.039 229.258 304.203 229.233C304.367 229.208 304.52 229.135 304.643 229.024C304.886 228.74 305.041 228.391 305.088 228.021L305.09 228.007C305.097 227.965 305.115 227.925 305.142 227.891C305.169 227.857 305.204 227.831 305.244 227.815C305.744 227.613 306.137 227.254 306.083 226.77C305.995 226.245 305.759 225.755 305.401 225.36C304.645 224.498 303.778 223.74 302.823 223.105C300.949 221.748 298.792 220.824 296.835 219.486C294.881 218.177 293.052 216.709 291.239 215.228C289.429 213.743 287.665 212.204 285.931 210.632C285.064 209.845 284.205 209.051 283.356 208.242C282.483 207.405 281.713 206.469 281.059 205.452C279.842 203.381 278.977 201.123 278.498 198.769C277.567 194.15 277.065 189.454 276.999 184.742C276.733 175.421 276.31 166.1 275.657 156.796C275.152 147.461 274.911 138.12 274.661 128.784C274.661 128.764 274.668 128.744 274.682 128.729C274.696 128.714 274.715 128.705 274.735 128.704C274.756 128.703 274.776 128.71 274.791 128.724C274.806 128.737 274.816 128.756 274.817 128.777V128.776Z" fill="black"/>
<path d="M286.182 221.021L300.026 231.343C300.067 231.374 300.101 231.412 300.128 231.456C300.154 231.5 300.171 231.549 300.179 231.6C300.186 231.651 300.184 231.702 300.171 231.752C300.159 231.802 300.136 231.849 300.106 231.89C300.075 231.931 300.036 231.966 299.992 231.992C299.948 232.018 299.899 232.035 299.849 232.043C299.798 232.05 299.746 232.047 299.696 232.035C299.647 232.022 299.6 232 299.559 231.969L299.545 231.958L286.182 221.021Z" fill="black"/>
<path d="M290.104 219.153L303.86 229.103C303.943 229.164 304 229.256 304.016 229.358C304.033 229.46 304.008 229.565 303.947 229.649C303.886 229.733 303.795 229.789 303.693 229.805C303.59 229.822 303.486 229.797 303.402 229.736L303.388 229.725L290.104 219.153Z" fill="black"/>
<path d="M294.404 219.412L305.579 227.746C305.661 227.808 305.715 227.9 305.73 228.002C305.745 228.105 305.718 228.208 305.656 228.291C305.595 228.374 305.503 228.429 305.401 228.444C305.299 228.459 305.195 228.433 305.112 228.372L305.095 228.358L294.404 219.412Z" fill="black"/>
<path d="M69.8237 193.911L75.6136 192.625C78.0646 192.08 80.3101 194.14 79.9783 196.629L79.6042 199.434C79.5086 200.151 79.6304 200.88 79.9539 201.527L80.8042 203.228C81.1047 203.829 81.2316 204.502 81.1708 205.171L80.7543 209.752C80.7019 210.329 80.2183 210.77 79.6392 210.77C79.5189 210.77 79.3993 210.79 79.2851 210.828L77.6512 211.373L72.4757 213.098C72.3135 213.152 72.1554 213.217 72.0025 213.294L68.6194 214.985L66.1403 215.977C65.7882 216.118 65.4605 216.313 65.1692 216.556L62.2107 219.021C62.0679 219.14 61.9161 219.248 61.7567 219.344L59.2338 220.857C59.0686 220.957 58.8957 221.042 58.7168 221.114L56.621 221.952C56.1943 222.123 55.7389 222.211 55.2793 222.211H52.6613C52.4623 222.211 52.2637 222.194 52.0674 222.161L49.1606 221.677C48.8875 221.632 48.6206 221.555 48.365 221.448L42.3181 218.929C41.7961 218.711 41.3326 218.374 40.9646 217.945L37.9116 214.383L35.8176 212.289C35.6087 212.08 35.375 211.898 35.1217 211.746L32.7407 210.317C32.5755 210.218 32.4026 210.132 32.2237 210.061L29.884 209.125C29.6169 209.018 29.338 208.944 29.0532 208.903L25.2671 208.362L22.8587 207.76L19.7818 207.247C19.4266 207.188 19.0822 207.076 18.7601 206.915L17.3619 206.216C17.0146 206.042 16.6975 205.814 16.423 205.539L16.2363 205.352C15.8398 204.956 15.3563 204.657 14.8242 204.48L14.636 204.417C14.104 204.24 13.6205 203.941 13.2239 203.544L12.8207 203.141C12.6896 203.01 12.5804 202.858 12.4975 202.693L12.1818 202.061C12.083 201.864 11.881 201.739 11.6601 201.739C11.5054 201.739 11.357 201.677 11.2476 201.568L10.4271 200.747C10.2908 200.611 10.2143 200.426 10.2143 200.233C10.2143 200.041 10.1377 199.856 10.0014 199.719L9.61214 199.33L9.39786 199.116C9.14098 198.859 8.9272 198.562 8.76473 198.238L8.55676 197.822C8.45887 197.626 8.40791 197.41 8.40791 197.191V196.993C8.40791 196.58 8.17481 196.203 7.80579 196.019C7.43678 195.834 7.20368 195.457 7.20368 195.044V194.846C7.20368 194.627 7.15272 194.411 7.05483 194.216L6.90262 193.911C6.70464 193.515 6.60156 193.079 6.60156 192.636V192.105V191.753C6.60156 191.193 6.73214 190.639 6.98296 190.138L7.20368 189.696C7.55549 188.993 8.34879 188.628 9.11196 188.819L10.2143 189.094L13.8269 190.299L19.246 192.105L28.6019 194.444C28.7869 194.49 28.9752 194.522 29.1652 194.538L42.4521 195.694C42.6361 195.71 42.821 195.711 43.0053 195.699L51.7602 195.115H60.1898L69.8237 193.911Z" fill="white"/>
<path d="M261.923 203.948C261.973 198.514 261.392 193.093 260.191 187.793C257.995 178.354 253.743 158.725 251.372 146.441C246.697 144.898 241.941 143.612 237.125 142.588H237.116C232.762 141.671 229.372 141.161 227.602 140.939C226.722 140.819 226.241 140.772 226.241 140.772C169.252 85.5627 159.378 98.6611 159.378 98.6611C132.681 109.712 102.473 184.847 102.473 184.847L84.1593 188.117C74.8589 189.961 75.2757 194.972 76.8968 198.483C78.9288 202.739 80.1777 207.327 80.5836 212.026C81.927 230.071 74.9238 229.525 74.9238 229.525C74.9238 229.525 118.471 237.213 131.708 227.931C144.945 218.659 193.411 216.88 193.411 216.88C250.816 219.761 262.312 213.045 262.312 213.045C262.701 212.925 263.081 212.786 263.461 212.637C262.247 210.238 261.914 206.903 261.923 203.948ZM156.478 118.522C157.394 119.607 158.561 120.453 159.878 120.986C160.534 121.242 161.218 121.419 161.916 121.514C162.623 121.629 163.339 121.678 164.056 121.662C164.778 121.653 165.501 121.532 166.242 121.486C166.964 121.356 167.687 121.199 168.437 121.088C167.752 121.393 167.048 121.643 166.335 121.931C165.603 122.121 164.86 122.27 164.111 122.375C162.562 122.567 160.989 122.383 159.526 121.838C158.071 121.248 156.817 120.251 155.913 118.966C155.021 117.724 154.454 116.278 154.264 114.761C154.788 116.129 155.536 117.4 156.478 118.522ZM83.8442 209.645C83.4845 209.632 83.1439 209.48 82.8941 209.221C82.6442 208.962 82.5046 208.616 82.5046 208.256C82.5046 207.896 82.6442 207.55 82.8941 207.291C83.1439 207.032 83.4845 206.88 83.8442 206.866C84.204 206.88 84.5446 207.032 84.7945 207.291C85.0443 207.55 85.1839 207.896 85.1839 208.256C85.1839 208.616 85.0443 208.962 84.7945 209.221C84.5446 209.48 84.204 209.632 83.8442 209.645ZM82.5103 190.637C82.8701 190.65 83.2107 190.802 83.4605 191.061C83.7104 191.321 83.85 191.666 83.85 192.026C83.85 192.386 83.7104 192.732 83.4605 192.992C83.2107 193.251 82.8701 193.403 82.5103 193.416C82.1506 193.403 81.81 193.251 81.5601 192.992C81.3103 192.732 81.1706 192.386 81.1706 192.026C81.1706 191.666 81.3103 191.321 81.5601 191.061C81.81 190.802 82.1506 190.65 82.5103 190.637ZM81.621 198.196C81.9808 198.209 82.3214 198.361 82.5713 198.62C82.8211 198.879 82.9607 199.225 82.9607 199.585C82.9607 199.945 82.8211 200.291 82.5713 200.55C82.3214 200.81 81.9808 200.962 81.621 200.975C81.2613 200.962 80.9207 200.81 80.6708 200.55C80.421 200.291 80.2814 199.945 80.2814 199.585C80.2814 199.225 80.421 198.879 80.6709 198.62C80.9208 198.361 81.2614 198.209 81.6211 198.196H81.621ZM82.288 228.098C81.9283 228.085 81.5877 227.933 81.3378 227.674C81.0879 227.414 80.9483 227.068 80.9483 226.708C80.9483 226.348 81.0879 226.003 81.3378 225.743C81.5877 225.484 81.9283 225.332 82.288 225.319C82.6477 225.332 82.9884 225.484 83.2382 225.743C83.4881 226.003 83.6277 226.348 83.6277 226.708C83.6277 227.068 83.4881 227.414 83.2383 227.674C82.9884 227.933 82.6478 228.085 82.2881 228.098H82.288ZM84.7334 219.65C84.3737 219.637 84.0331 219.485 83.7832 219.225C83.5334 218.966 83.3937 218.62 83.3937 218.26C83.3937 217.9 83.5334 217.554 83.7832 217.295C84.0331 217.036 84.3737 216.884 84.7334 216.871C85.0932 216.884 85.4338 217.036 85.6837 217.295C85.9335 217.554 86.0731 217.9 86.0731 218.26C86.0731 218.62 85.9335 218.966 85.6837 219.225C85.4338 219.485 85.0932 219.637 84.7335 219.65H84.7334ZM197.181 166.941C196.672 166.978 196.172 167.062 195.662 167.127C194.653 167.256 193.652 167.423 192.642 167.58C190.632 167.914 188.622 168.266 186.612 168.636C182.601 169.359 178.593 170.116 174.588 170.906L150.568 175.603L126.53 180.29L114.515 182.606L102.473 184.857C110.43 183.013 118.406 181.29 126.391 179.595C134.376 177.909 142.379 176.307 150.383 174.695C158.405 173.166 166.418 171.61 174.458 170.202C177.793 169.628 181.134 169.069 184.481 168.525C183.973 168.245 183.505 167.896 183.092 167.488C182.555 167.006 182.054 166.487 181.563 165.959C180.609 164.885 179.711 163.755 178.84 162.625C177.089 160.346 175.477 157.965 173.912 155.575C172.365 153.167 170.846 150.73 169.419 148.248C167.992 145.765 166.594 143.273 165.315 140.707L167.696 144.274L170.031 147.877L174.69 155.066C176.237 157.465 177.812 159.846 179.414 162.208C180.22 163.384 181.045 164.542 181.915 165.663C182.338 166.238 182.789 166.792 183.268 167.321C183.654 167.766 184.089 168.167 184.565 168.516C185.222 168.405 185.88 168.294 186.538 168.192C188.557 167.886 190.58 167.602 192.605 167.34C194.358 167.087 196.124 166.935 197.895 166.886L197.181 166.941Z" fill="black"/>
<path d="M76.6141 192.416C71.5115 193.725 66.3242 194.678 61.0896 195.269C55.8494 195.877 50.5783 196.178 45.303 196.171C40.0193 196.141 34.7469 195.679 29.5381 194.792L25.6523 194.028C24.3551 193.79 23.0931 193.38 21.814 193.064C19.2457 192.459 16.7714 191.527 14.2626 190.726L14.2339 190.714L14.2244 190.709C13.3862 190.245 12.5158 189.841 11.62 189.502C10.7359 189.162 9.80668 188.953 8.86201 188.882C8.43537 188.801 7.99399 188.865 7.60721 189.062C7.22044 189.259 6.9102 189.58 6.72529 189.972C6.49146 190.861 6.51103 191.797 6.7818 192.675C6.7893 192.707 6.79137 192.739 6.7879 192.771L6.78609 192.788C6.69845 193.448 6.75453 194.12 6.95051 194.756C7.043 195.044 7.2027 195.305 7.41639 195.519C7.63571 195.702 7.90088 195.822 8.18329 195.866C8.28111 195.884 8.36754 195.941 8.42356 196.023C8.47959 196.105 8.50062 196.207 8.48204 196.304L8.48091 196.31L8.47906 196.319C8.41546 196.641 8.39462 196.97 8.41709 197.297C8.43628 197.617 8.50986 197.931 8.63465 198.227C8.75305 198.508 8.93744 198.757 9.17223 198.952C9.41148 199.149 9.68534 199.3 9.97983 199.397C10.0842 199.439 10.1698 199.517 10.2208 199.617C10.2719 199.717 10.2847 199.832 10.2571 199.941L10.2512 199.965C10.2005 200.192 10.2161 200.429 10.296 200.648C10.3856 200.875 10.5403 201.07 10.7406 201.21C11.2282 201.527 11.7859 201.721 12.3654 201.774C12.4788 201.79 12.5835 201.844 12.663 201.927C12.7425 202.01 12.7922 202.116 12.8043 202.23L12.8091 202.277C12.8729 202.942 13.1781 203.561 13.6671 204.016C13.9215 204.228 14.2147 204.388 14.5303 204.488C14.9424 204.635 15.3418 204.815 15.7244 205.026C17.0726 205.842 18.5111 206.497 20.0108 206.98C21.4976 207.464 23.0342 207.778 24.5913 207.918C26.2514 208.014 27.8978 208.275 29.5064 208.695C31.1351 209.153 32.6914 209.838 34.1295 210.729C35.5931 211.601 36.9133 212.693 38.0433 213.968L38.8265 214.9C39.0698 215.202 39.3289 215.491 39.6027 215.765C40.1386 216.329 40.705 216.862 41.2993 217.364C42.4946 218.36 43.7862 219.235 45.155 219.975C46.5238 220.696 47.9781 221.242 49.4834 221.599C50.9787 221.939 52.5185 222.039 54.0452 221.896C54.4244 221.854 54.8008 221.791 55.1729 221.707C55.5513 221.653 55.9229 221.559 56.2817 221.427C56.6431 221.303 57.0106 221.193 57.3695 221.06L58.4048 220.556C58.7554 220.395 59.089 220.2 59.4006 219.973L60.3718 219.332C61.0493 218.866 61.6977 218.355 62.3984 217.928C67.9637 214.521 74.0608 212.071 80.4361 210.68C80.4563 210.675 80.4774 210.679 80.495 210.69C80.5126 210.701 80.525 210.718 80.5297 210.738C80.5336 210.758 80.5299 210.779 80.5193 210.796C80.5088 210.813 80.4922 210.826 80.4727 210.832C77.3853 211.759 74.3656 212.899 71.4353 214.243C68.504 215.536 65.6998 217.1 63.0592 218.914C62.3898 219.347 61.7805 219.858 61.1389 220.324L60.1072 221.05C59.7708 221.306 59.4107 221.53 59.032 221.718L57.9021 222.305C57.5093 222.465 57.1049 222.6 56.7055 222.748C56.3088 222.904 55.8976 223.02 55.478 223.095C55.0645 223.2 54.6457 223.281 54.2233 223.34C52.532 223.554 50.817 223.485 49.1483 223.136C47.5001 222.769 45.9052 222.194 44.4015 221.425C42.1585 220.272 40.1278 218.746 38.3962 216.913C38.1005 216.614 37.8201 216.3 37.5562 215.973L36.7816 215.047C34.7157 212.743 32.0545 211.053 29.0905 210.162C27.5752 209.742 26.0218 209.474 24.4534 209.361C22.7891 209.193 21.1513 208.823 19.5757 208.262C18.0091 207.71 16.5113 206.979 15.112 206.085C14.7918 205.897 14.4568 205.735 14.1102 205.602C13.6592 205.44 13.2448 205.191 12.891 204.868C12.2011 204.191 11.7952 203.277 11.7559 202.311L12.1996 202.814C11.842 202.747 11.49 202.653 11.1463 202.534C10.7804 202.403 10.4387 202.213 10.135 201.97C9.80086 201.707 9.55057 201.353 9.41466 200.95C9.27843 200.534 9.27708 200.086 9.41082 199.67L9.68198 200.237C9.2865 200.088 8.92228 199.866 8.60797 199.583C8.28933 199.296 8.04288 198.937 7.88856 198.537C7.74078 198.153 7.65971 197.746 7.64884 197.334C7.63493 196.93 7.6767 196.526 7.77297 196.133L8.06854 196.587C7.64547 196.508 7.25331 196.311 6.93753 196.019C6.65219 195.72 6.44333 195.357 6.32874 194.96C6.12658 194.223 6.08654 193.451 6.21136 192.697L6.21542 192.809C5.92674 191.817 5.92823 190.763 6.21971 189.772C6.31941 189.513 6.46992 189.276 6.66236 189.076C6.8548 188.876 7.08531 188.716 7.34033 188.606C7.8303 188.412 8.35838 188.334 8.88361 188.377C9.87764 188.462 10.8538 188.693 11.7809 189.061C12.7076 189.394 13.6092 189.793 14.4787 190.255L14.4409 190.238C19.3964 191.915 24.5072 193.091 29.697 193.75C34.8804 194.384 40.0949 194.732 45.3167 194.791C50.5407 194.885 55.7673 194.634 60.9852 194.232C63.5942 194.022 66.1982 193.75 68.7973 193.415C71.4024 193.121 73.9926 192.708 76.5778 192.264C76.5878 192.262 76.5982 192.262 76.6083 192.263C76.6184 192.265 76.628 192.269 76.6366 192.275C76.6451 192.28 76.6525 192.288 76.6583 192.296C76.6641 192.305 76.6682 192.314 76.6703 192.324C76.6737 192.344 76.6698 192.364 76.6595 192.381C76.6491 192.397 76.633 192.41 76.6141 192.416Z" fill="black"/>
<path d="M6.4563 192.351C7.38736 192.32 8.31944 192.335 9.24889 192.399C10.1749 192.445 11.0925 192.597 11.9838 192.853C11.0776 192.727 10.16 192.705 9.24889 192.789C8.3423 192.856 7.43967 192.969 6.5445 193.127L6.53727 193.128C6.48653 193.137 6.4345 193.136 6.38413 193.125C6.33377 193.114 6.28606 193.094 6.24377 193.064C6.20148 193.035 6.16544 192.997 6.13769 192.954C6.10995 192.91 6.09106 192.862 6.08211 192.811C6.07317 192.76 6.07433 192.708 6.08555 192.658C6.09676 192.607 6.1178 192.56 6.14746 192.518C6.17712 192.475 6.21482 192.44 6.25839 192.412C6.30196 192.384 6.35054 192.366 6.40135 192.357C6.41952 192.354 6.43788 192.352 6.4563 192.351Z" fill="black"/>
<path d="M8.0089 195.852C8.82517 195.666 9.65927 195.57 10.4964 195.565C11.324 195.539 12.1469 195.699 12.9043 196.033C12.1278 195.828 11.315 195.801 10.5267 195.954C9.74844 196.085 8.98656 196.299 8.25428 196.593L8.24138 196.598C8.19361 196.618 8.14253 196.627 8.09105 196.627C8.03956 196.626 7.9887 196.615 7.94135 196.595C7.89399 196.575 7.85107 196.546 7.81505 196.509C7.77903 196.472 7.7506 196.429 7.7314 196.381C7.7122 196.333 7.7026 196.282 7.70315 196.23C7.70369 196.179 7.71437 196.128 7.73457 196.081C7.75477 196.033 7.7841 195.99 7.82089 195.954C7.85768 195.918 7.90119 195.89 7.94896 195.871C7.96844 195.863 7.98848 195.857 8.0089 195.852Z" fill="black"/>
<path d="M9.70421 199.447C10.4121 199.269 11.1335 199.149 11.8611 199.089C12.2239 199.059 12.5888 199.059 12.9516 199.091C13.3158 199.106 13.6698 199.215 13.9795 199.407C13.6525 199.278 13.2976 199.236 12.9495 199.286C12.6032 199.32 12.2603 199.383 11.9246 199.475C11.2542 199.657 10.5998 199.893 9.96791 200.181L9.96067 200.185C9.86594 200.228 9.75801 200.231 9.66062 200.195C9.56322 200.158 9.48434 200.084 9.44133 199.99C9.39832 199.895 9.39472 199.787 9.43129 199.689C9.46787 199.592 9.54163 199.513 9.63636 199.47C9.65827 199.46 9.68097 199.453 9.70421 199.447Z" fill="black"/>
<path d="M11.9616 202.075C12.2341 201.796 12.5862 201.609 12.9693 201.539C13.2884 201.465 13.6147 201.427 13.9423 201.424C14.5696 201.422 15.1953 201.487 15.809 201.617C15.1973 201.618 14.5873 201.683 13.9893 201.811C13.7042 201.874 13.427 201.968 13.1625 202.092C12.9467 202.18 12.7573 202.322 12.6127 202.505C12.5927 202.562 12.5604 202.613 12.5181 202.655C12.4758 202.698 12.4246 202.73 12.3682 202.75C12.3118 202.77 12.2516 202.777 12.1921 202.771C12.1325 202.765 12.0752 202.745 12.0241 202.714C11.9731 202.683 11.9296 202.641 11.897 202.59C11.8644 202.54 11.8434 202.483 11.8355 202.424C11.8276 202.365 11.8332 202.304 11.8516 202.247C11.8701 202.19 11.901 202.138 11.9421 202.095L11.9616 202.075Z" fill="black"/>
<path d="M60.7637 210.573C61.7264 210.863 62.7189 211.041 63.722 211.106C64.1938 211.117 64.6645 211.056 65.1181 210.926C65.6005 210.77 66.0636 210.561 66.4983 210.3C66.2495 210.803 65.8514 211.217 65.3585 211.485C64.8523 211.759 64.2839 211.897 63.7085 211.886C63.1493 211.867 62.5993 211.739 62.0885 211.511C61.5844 211.298 61.1324 210.978 60.7637 210.573Z" fill="black"/>
<path d="M174.179 77.6967L176.314 87.6311L173.422 77.89C173.393 77.7906 173.404 77.6837 173.453 77.5926C173.503 77.5016 173.586 77.4338 173.686 77.4043C173.785 77.3749 173.892 77.386 173.983 77.4354C174.074 77.4848 174.142 77.5683 174.171 77.6676L174.179 77.6967Z" fill="black"/>
<path d="M182.382 46.5228C181.231 46.5228 178.997 46.0877 177.636 42.9948C177.595 42.9001 177.593 42.7929 177.63 42.6967C177.668 42.6005 177.742 42.523 177.837 42.4814C177.931 42.4398 178.038 42.4373 178.135 42.4745C178.231 42.5117 178.309 42.5856 178.351 42.68C179.707 45.762 181.935 45.8082 182.683 45.7367L184.874 31.9701C184.681 31.6715 184.419 31.4241 184.11 31.2492C183.801 31.0743 183.454 30.9771 183.099 30.966C181.876 31.0583 180.947 32.6956 180.938 32.7119C180.913 32.7567 180.879 32.7961 180.839 32.8279C180.799 32.8598 180.753 32.8834 180.703 32.8974C180.654 32.9114 180.602 32.9156 180.551 32.9097C180.501 32.9038 180.451 32.8879 180.407 32.863C180.362 32.838 180.322 32.8045 180.29 32.7643C180.259 32.7241 180.235 32.6781 180.221 32.6288C180.207 32.5794 180.203 32.5279 180.209 32.4769C180.215 32.426 180.23 32.3768 180.255 32.332C180.301 32.2496 181.395 30.3137 183.037 30.188C183.551 30.1872 184.056 30.3186 184.503 30.5696C184.951 30.8206 185.327 31.1826 185.595 31.6209C185.627 31.6632 185.651 31.7118 185.664 31.7636C185.677 31.8154 185.68 31.8694 185.671 31.9222L183.409 46.1383C183.397 46.2143 183.363 46.285 183.311 46.3415C183.259 46.3981 183.191 46.4379 183.116 46.4559C182.874 46.504 182.628 46.5264 182.382 46.5228Z" fill="black"/>
<path d="M248.419 131.742C248.329 131.743 248.243 131.712 248.173 131.655C248.104 131.599 248.056 131.521 248.038 131.433C248.038 131.433 247.87 130.638 247.607 129.256C247.587 129.154 247.609 129.049 247.667 128.963C247.725 128.877 247.815 128.818 247.917 128.799C248.019 128.779 248.124 128.801 248.21 128.859C248.295 128.918 248.354 129.007 248.374 129.109C248.534 129.951 248.659 130.575 248.731 130.93L275.705 128.293C275.756 128.287 275.808 128.291 275.858 128.305C275.908 128.319 275.954 128.343 275.994 128.376C276.034 128.409 276.067 128.449 276.09 128.495C276.114 128.541 276.128 128.592 276.132 128.643C276.142 128.746 276.11 128.849 276.045 128.929C275.979 129.009 275.884 129.059 275.781 129.069L248.457 131.741C248.445 131.742 248.432 131.743 248.419 131.742Z" fill="black"/>
<path d="M185.446 78.6994C185.806 78.6869 186.147 78.5351 186.398 78.2759C186.648 78.0166 186.788 77.6703 186.788 77.3099C186.788 76.9495 186.648 76.6032 186.398 76.344C186.147 76.0847 185.806 75.9329 185.446 75.9204C185.086 75.9329 184.744 76.0847 184.494 76.344C184.243 76.6032 184.104 76.9495 184.104 77.3099C184.104 77.6703 184.243 78.0166 184.494 78.2759C184.744 78.5351 185.086 78.6869 185.446 78.6994Z" fill="black"/>
<path d="M186.782 85.1438C187.142 85.1313 187.483 84.9794 187.733 84.7202C187.984 84.461 188.124 84.1147 188.124 83.7543C188.124 83.3939 187.984 83.0475 187.733 82.7883C187.483 82.5291 187.142 82.3772 186.782 82.3647C186.421 82.3772 186.08 82.5291 185.83 82.7883C185.579 83.0475 185.439 83.3939 185.439 83.7543C185.439 84.1147 185.579 84.461 185.83 84.7202C186.08 84.9794 186.421 85.1313 186.782 85.1438Z" fill="black"/>
<path d="M187.893 90.9299C188.253 90.9174 188.594 90.7655 188.845 90.5063C189.095 90.2471 189.235 89.9008 189.235 89.5404C189.235 89.18 189.095 88.8337 188.845 88.5744C188.594 88.3152 188.253 88.1634 187.893 88.1509C187.533 88.1634 187.192 88.3152 186.941 88.5744C186.691 88.8337 186.551 89.18 186.551 89.5404C186.551 89.9008 186.691 90.2471 186.941 90.5063C187.192 90.7655 187.533 90.9174 187.893 90.9299Z" fill="black"/>
<path d="M189.002 96.0432C189.363 96.0307 189.704 95.8788 189.954 95.6196C190.205 95.3604 190.345 95.0141 190.345 94.6537C190.345 94.2933 190.205 93.9469 189.954 93.6877C189.704 93.4285 189.363 93.2766 189.002 93.2642C188.642 93.2766 188.301 93.4285 188.051 93.6877C187.8 93.9469 187.66 94.2933 187.66 94.6537C187.66 95.0141 187.8 95.3604 188.051 95.6196C188.301 95.8788 188.642 96.0307 189.002 96.0432Z" fill="black"/>
<path d="M250.579 129.39C250.939 129.377 251.28 129.226 251.53 128.966C251.781 128.707 251.921 128.361 251.921 128C251.921 127.64 251.781 127.294 251.53 127.034C251.28 126.775 250.939 126.623 250.579 126.611C250.218 126.623 249.877 126.775 249.627 127.034C249.376 127.294 249.236 127.64 249.236 128C249.236 128.361 249.376 128.707 249.627 128.966C249.877 129.226 250.218 129.377 250.579 129.39Z" fill="black"/>
<path d="M255.471 128.717C255.831 128.705 256.173 128.553 256.423 128.293C256.673 128.034 256.813 127.688 256.813 127.327C256.813 126.967 256.673 126.621 256.423 126.362C256.173 126.102 255.831 125.95 255.471 125.938C255.111 125.95 254.77 126.102 254.519 126.362C254.269 126.621 254.129 126.967 254.129 127.327C254.129 127.688 254.269 128.034 254.519 128.293C254.77 128.553 255.111 128.705 255.471 128.717Z" fill="black"/>
<path d="M261.256 127.833C261.616 127.82 261.958 127.668 262.208 127.409C262.458 127.15 262.598 126.804 262.598 126.443C262.598 126.083 262.458 125.736 262.208 125.477C261.958 125.218 261.616 125.066 261.256 125.054C260.896 125.066 260.555 125.218 260.304 125.477C260.054 125.736 259.914 126.083 259.914 126.443C259.914 126.804 260.054 127.15 260.304 127.409C260.555 127.668 260.896 127.82 261.256 127.833Z" fill="black"/>
<path d="M267.041 127.165C267.402 127.152 267.743 127 267.993 126.741C268.244 126.482 268.384 126.136 268.384 125.775C268.384 125.415 268.244 125.069 267.993 124.809C267.743 124.55 267.402 124.398 267.041 124.386C266.681 124.398 266.34 124.55 266.09 124.809C265.839 125.069 265.699 125.415 265.699 125.775C265.699 126.136 265.839 126.482 266.09 126.741C266.34 127 266.681 127.152 267.041 127.165Z" fill="black"/>
<path d="M272.809 126.497C273.169 126.484 273.51 126.332 273.761 126.073C274.011 125.814 274.151 125.468 274.151 125.107C274.151 124.747 274.011 124.401 273.761 124.141C273.51 123.882 273.169 123.73 272.809 123.718C272.449 123.73 272.108 123.882 271.857 124.141C271.607 124.401 271.467 124.747 271.467 125.107C271.467 125.468 271.607 125.814 271.857 126.073C272.108 126.332 272.449 126.484 272.809 126.497Z" fill="black"/>
<path d="M229.571 68.4729C229.931 68.4604 230.272 68.3085 230.523 68.0493C230.773 67.7901 230.913 67.4438 230.913 67.0834C230.913 66.7229 230.773 66.3766 230.523 66.1174C230.272 65.8582 229.931 65.7063 229.571 65.6938C229.211 65.7063 228.869 65.8582 228.619 66.1174C228.368 66.3766 228.229 66.7229 228.229 67.0834C228.229 67.4438 228.368 67.7901 228.619 68.0493C228.869 68.3085 229.211 68.4604 229.571 68.4729Z" fill="black"/>
<path d="M227.905 74.362C228.265 74.3495 228.606 74.1977 228.857 73.9385C229.107 73.6792 229.247 73.3329 229.247 72.9725C229.247 72.6121 229.107 72.2658 228.857 72.0066C228.606 71.7474 228.265 71.5955 227.905 71.583C227.545 71.5955 227.203 71.7474 226.953 72.0066C226.702 72.2658 226.562 72.6121 226.562 72.9725C226.562 73.3329 226.702 73.6792 226.953 73.9385C227.203 74.1977 227.545 74.3495 227.905 74.362Z" fill="black"/>
<path d="M226.465 81.8132C226.825 81.8007 227.167 81.6488 227.417 81.3896C227.667 81.1304 227.807 80.7841 227.807 80.4237C227.807 80.0633 227.667 79.7169 227.417 79.4577C227.167 79.1985 226.825 79.0467 226.465 79.0342C226.105 79.0467 225.764 79.1985 225.513 79.4577C225.263 79.7169 225.123 80.0633 225.123 80.4237C225.123 80.7841 225.263 81.1304 225.513 81.3896C225.764 81.6488 226.105 81.8007 226.465 81.8132Z" fill="black"/>
<path d="M226.024 88.926C226.384 88.9135 226.725 88.7616 226.976 88.5024C227.226 88.2432 227.366 87.8969 227.366 87.5365C227.366 87.1761 227.226 86.8298 226.976 86.5705C226.725 86.3113 226.384 86.1595 226.024 86.147C225.664 86.1595 225.322 86.3113 225.072 86.5705C224.822 86.8298 224.682 87.1761 224.682 87.5365C224.682 87.8969 224.822 88.2432 225.072 88.5024C225.322 88.7616 225.664 88.9135 226.024 88.926Z" fill="black"/>
<path d="M227.688 95.9304C228.048 95.9179 228.389 95.766 228.64 95.5068C228.89 95.2476 229.03 94.9013 229.03 94.5409C229.03 94.1805 228.89 93.8341 228.64 93.5749C228.389 93.3157 228.048 93.1638 227.688 93.1514C227.328 93.1638 226.986 93.3157 226.736 93.5749C226.486 93.8341 226.346 94.1805 226.346 94.5409C226.346 94.9013 226.486 95.2476 226.736 95.5068C226.986 95.766 227.328 95.9179 227.688 95.9304Z" fill="black"/>
</svg>
