<svg width="347" height="235" viewBox="0 0 347 235" fill="none" xmlns="http://www.w3.org/2000/svg">
<rect x="0.710938" width="346" height="235" rx="28" fill="#F9CE60"/>
<mask id="mask0_4697_21630" style="mask-type:alpha" maskUnits="userSpaceOnUse" x="1" y="0" width="346" height="235">
<rect x="1" width="346" height="235" rx="28" fill="#5906FF"/>
</mask>
<g mask="url(#mask0_4697_21630)">
<rect x="38" y="236" width="40" height="259" transform="rotate(-90 38 236)" fill="#E4AA15"/>
<path d="M1.0004 206.5L37.4965 81.0001L173.496 133.5L122.496 235.5H65.5004L10.6201 228.515C10.587 228.543 10.5004 228.5 10.5004 228.5L10.6201 228.515C10.6995 228.448 10.4709 227.97 8.0004 225.5C4.5 222 3.08076 218.817 1.5004 213.5C0.974104 210.713 0.742303 209.163 1.0004 206.5Z" fill="white"/>
<path d="M146.228 185.982C146.227 186 146.223 186.018 146.215 186.034L122.5 235.266L93.5004 235.266L4.03813 200.842C3.97628 200.818 3.96571 200.685 3.98529 200.621L22.5725 138.457C22.5814 138.423 22.6032 138.395 22.6331 138.377C22.663 138.36 22.6986 138.355 22.7321 138.364L146.146 185.853C146.163 185.86 146.178 185.871 146.19 185.884C146.203 185.897 146.212 185.912 146.219 185.929C146.225 185.946 146.228 185.964 146.228 185.982Z" fill="black"/>
<path d="M8.47759 213.268L65.5004 235.5C65.5004 235.5 38.5004 235 33.5004 235C28.5004 235 26.5535 235.022 24.0004 234.5C21.5692 234.136 20.3256 233.801 18.2225 233.082C12.0174 230.064 9.54991 227.881 5.63705 222.884L8.47759 213.268Z" fill="black"/>
<path d="M160.114 138.976L43.8056 94.2217L32.8871 131.554L143.177 173.993L160.114 138.976Z" fill="black"/>
<path d="M178.425 121.565C179.911 117.704 177.953 113.018 174.092 111.532L51.8273 64.4857C47.9663 63 43.372 65.1644 41.8863 69.0254L37.2806 80.9948L173.82 133.534L178.425 121.565ZM141.572 40.7116L183.599 34.799C184.913 34.6142 186.099 33.9152 186.898 32.8557C187.696 31.7962 188.041 30.463 187.856 29.1493C187.671 27.8357 186.972 26.6493 185.912 25.8511C184.853 25.0529 183.52 24.7082 182.206 24.893L137.587 31.1703C136.787 31.2829 136.026 31.5876 135.37 32.0583C134.713 32.529 134.181 33.1517 133.817 33.8731L111.187 78.7569L120.119 83.2603L141.572 40.7116Z" fill="black"/>
</g>
<path d="M317 172.5H193L196.5 161.5L204 157L196.5 152.5L180 146L196.5 128L216 110L221 123.5L225.5 133L236.5 117.5L244 123.5L252 134.5L264.5 136L256.5 98L259.5 91.5L304.5 103.5L301.5 110.5L285.5 126L273 139L277 145.5L299 140.5L306 142.5L306.5 150L304.5 158.5L311.5 163.5L315.5 167L317 172.5Z" fill="white"/>
<path d="M260.326 89.068C255.765 89.2337 252.043 93.685 253.181 98.4036L261.443 132.617C259.075 132.112 256.46 131.815 253.499 131.815C252.831 131.815 252.23 131.855 251.605 131.887L243.929 119.33C242.486 116.965 239.974 115.781 237.468 115.781C234.962 115.781 232.456 116.965 231.007 119.33L224.969 129.216L220.63 113.005C219.569 109.051 215.398 107.066 211.794 107.99C210.592 108.3 209.453 108.933 208.51 109.922L180.717 139.147C176.897 143.165 178.74 150.056 184.057 151.625L199.322 156.121C197.393 157.046 195.584 158.187 194.037 159.712C191.675 162.037 190.064 165.246 189.559 169.222H186.705C182.31 169.222 178.689 172.842 178.689 177.237C178.689 187.535 187.095 195.94 197.393 195.94H309.611C319.909 195.94 328.314 187.535 328.314 177.237C328.314 172.842 324.694 169.222 320.299 169.222H317.392C316.926 166.563 315.722 164.089 313.916 162.082C311.976 159.923 309.52 158.334 306.875 156.979L309.4 146.5C310.541 141.781 306.822 137.33 302.264 137.164C301.592 137.14 300.921 137.209 300.268 137.368L279.192 142.455C278.107 141.562 276.988 140.686 275.874 139.81L304.914 110.769C308.775 106.908 306.835 100.017 301.526 98.7349L262.316 89.2764C261.665 89.117 260.994 89.0478 260.323 89.0707L260.326 89.068ZM260.433 94.3904C260.633 94.3904 260.844 94.4118 261.061 94.4652L300.268 103.932C301.785 104.298 302.237 105.885 301.136 106.988L270.907 137.218C269.803 138.321 268.208 137.872 267.842 136.358L258.375 97.1504C258.009 95.6355 259.017 94.3984 260.433 94.3904ZM214.177 113.005H214.183C214.768 113.155 215.265 113.636 215.465 114.389L226.529 155.683C226.933 157.19 225.752 158.347 224.256 157.906L185.575 146.497C183.865 145.995 183.36 144.114 184.586 142.823L212.384 113.604C212.922 113.043 213.592 112.856 214.175 113.005H214.177ZM237.468 120.978C238.187 120.978 238.903 121.358 239.365 122.116L245.823 132.678C241.414 133.76 238.384 135.751 236.06 138.07C233.642 140.48 231.817 142.944 229.271 145.26L226.879 136.336L235.568 122.116C236.033 121.358 236.752 120.978 237.468 120.978ZM253.499 137.156C257.347 137.156 260.345 137.659 262.923 138.482C264.205 141.814 267.834 143.513 271.126 142.864C271.633 143.243 272.141 143.622 272.646 144.028L261.061 146.829C255.752 148.111 253.812 155.005 257.673 158.868L268.026 169.219H195.151C195.584 166.809 196.391 164.89 197.788 163.514C199.69 161.641 202.56 160.308 206.001 159.288C206.691 159.085 207.417 158.905 208.147 158.726L222.741 163.028C227.978 164.575 233.108 159.573 231.691 154.299L230.799 150.975C235.087 147.732 237.433 144.248 239.833 141.854C242.686 139.005 245.502 137.156 253.499 137.156ZM302.151 142.484H302.157C303.57 142.495 304.572 143.735 304.206 145.244L298.419 169.219H275.588L261.453 155.087C260.35 153.984 260.796 152.389 262.314 152.025L301.526 142.559C301.74 142.506 301.951 142.484 302.151 142.484ZM305.579 162.347C307.359 163.36 308.858 164.45 309.937 165.649C310.878 166.697 311.444 167.886 311.821 169.219H303.92L305.579 162.347Z" fill="black"/>
</svg>
