<svg width="347" height="235" viewBox="0 0 347 235" fill="none" xmlns="http://www.w3.org/2000/svg">
<rect x="0.710938" width="346" height="235" rx="28" fill="#EE8266"/>
<mask id="mask0_4697_21633" style="mask-type:alpha" maskUnits="userSpaceOnUse" x="1" y="0" width="346" height="235">
<rect x="1" width="346" height="235" rx="28" fill="#5906FF"/>
</mask>
<g mask="url(#mask0_4697_21633)">
<rect y="234.467" width="368.933" height="304.54" transform="rotate(-30 0 234.467)" fill="#FAB19E"/>
</g>
<path d="M266 115.5C266 124.613 258.612 132 249.5 132C240.387 132 233 124.613 233 115.5C233 106.387 240.387 98.9999 249.5 98.9999C258.612 98.9999 266 106.387 266 115.5Z" fill="#F2F2F1"/>
<path d="M241.421 100.147C232.397 105.014 229.014 116.318 233.881 125.341C238.748 134.364 250.052 137.745 259.076 132.878C268.1 128.011 271.482 116.707 266.615 107.684C261.748 98.661 250.444 95.2794 241.421 100.147ZM257.634 130.204C250.085 134.276 240.628 131.449 236.555 123.898C232.482 116.348 235.312 106.894 242.863 102.821C250.414 98.7474 259.868 101.576 263.941 109.126C268.014 116.677 265.185 126.131 257.634 130.204Z" fill="black"/>
<path d="M245.977 108.587C241.943 110.763 240.431 115.815 242.607 119.849C244.783 123.883 249.834 125.394 253.869 123.218C257.903 121.042 259.414 115.99 257.239 111.956C255.063 107.922 250.011 106.411 245.977 108.587Z" fill="black"/>
<path d="M104.999 203.5C104.999 212.613 97.6116 220 88.4989 220C79.3862 220 71.9989 212.613 71.9989 203.5C71.9989 194.388 79.3862 187 88.4989 187C97.6116 187 104.999 194.388 104.999 203.5Z" fill="#F2F2F1"/>
<path d="M79.4326 186.703C70.3956 191.546 66.9821 202.838 71.8259 211.877C76.6683 220.913 87.9606 224.326 97.0003 219.481C106.037 214.639 109.451 203.346 104.607 194.308C99.7646 185.271 88.4723 181.859 79.4326 186.703ZM95.562 216.802C88.0018 220.852 78.5523 217.999 74.5029 210.44C70.4534 202.88 73.3078 193.434 80.8666 189.381C88.4269 185.331 97.8736 188.185 101.926 195.743C105.975 203.303 103.121 212.749 95.562 216.802Z" fill="black"/>
<path d="M83.9589 195.158C79.9187 197.323 78.3917 202.372 80.5567 206.412C82.7216 210.452 87.7694 211.976 91.8096 209.81C95.8497 207.645 97.3767 202.596 95.2118 198.556C93.0468 194.516 87.9976 192.99 83.9574 195.155L83.9589 195.158Z" fill="black"/>
<path d="M277.498 40.9447C269.775 38.2601 259.842 46.1123 254.505 50.3337C253.906 50.8086 253.378 51.2243 252.941 51.5551C252.909 51.5798 252.88 51.6057 252.849 51.6331C241.078 62.7131 197.462 87.1899 197.038 87.4257L58.1031 162.368L58.1061 162.373C52.6178 165.313 37.0946 173.393 20.8557 179.753C11.7753 183.33 3.54182 187.029 2.51752 192.944C1.90604 196.468 3.90228 200.182 8.61593 204.303C8.70318 204.379 8.79968 204.44 8.90544 204.486L9.05629 204.549C28.1061 212.878 52.4191 202.929 66.7141 195.219C69.4237 193.757 71.774 192.376 73.6595 191.214L232 105.805C278.648 80.6428 287.293 59.5619 285.351 51.9465C283.934 45.9662 281.29 42.2627 277.494 40.9434L277.498 40.9447ZM228.581 95.4252L71.1273 180.356C33.9323 200.419 21.73 195.929 21.2299 195.729L22.4415 192.623C22.5555 192.664 34.2179 196.481 69.5463 177.425L226.95 92.5207C227.299 92.3151 266.803 69.0596 272.605 50.922L275.781 51.9363C269.591 71.2867 230.256 94.4507 228.582 95.4279L228.581 95.4252Z" fill="black"/>
<path d="M60.6155 139.96C60.7855 139.922 60.9746 139.873 61.1554 139.828C65.9705 138.648 74.5885 134.967 85.1001 129.937C85.2715 129.855 85.4401 129.774 85.6115 129.692C86.0913 129.462 86.5794 129.227 87.0674 128.992C87.4266 128.819 87.7843 128.644 88.1462 128.47C88.4985 128.298 88.8549 128.127 89.2099 127.953C89.7499 127.69 90.2927 127.425 90.8367 127.157C91.0464 127.054 91.2561 126.952 91.4643 126.846C92.2208 126.474 92.9855 126.096 93.7569 125.712C93.7761 125.702 93.7925 125.693 93.8117 125.683C129.785 107.801 179.464 79.6191 182.281 77.8064L183.051 77.3275C190.422 72.7299 198.045 67.9783 204.252 61.7793C205.117 60.9135 205.922 59.8575 206.641 58.6428C206.771 58.4246 206.913 58.1391 207.06 57.841C207.095 57.7689 207.129 57.7011 207.166 57.6248C207.171 57.6149 207.178 57.6008 207.183 57.5909C207.234 57.4891 207.284 57.3846 207.337 57.2744C207.352 57.249 207.365 57.2207 207.377 57.1967C207.43 57.0865 207.486 56.9791 207.542 56.8743C207.547 56.8644 207.555 56.8531 207.559 56.8404C207.659 56.6523 207.757 56.4934 207.849 56.3626C208.059 56.3978 208.364 56.4913 208.551 56.5495L208.694 56.5923C209.727 56.9039 210.775 57.4904 211.876 58.3383C211.543 58.8356 211.258 59.3884 210.999 59.9099C210.851 60.2053 210.715 60.4836 210.591 60.692C210.01 61.6519 208.015 64.2154 207.306 64.9122C201.199 70.937 193.559 75.6835 186.169 80.2776L185.351 80.7857C182.381 82.6881 155.138 98.1179 126.298 113.476C91.6098 131.944 68.7633 142.744 61.5165 144.113C61.0176 142.383 60.7516 140.94 60.6141 139.958L60.6155 139.96Z" fill="#F5F3F2"/>
<path d="M105.905 67.8707C105.889 67.625 105.846 66.9696 106.018 66.6721C106.163 66.4241 106.718 66.0368 108.795 66.2269L122.082 67.4614C116.88 68.6247 112.114 71.234 108.423 74.8644C106.957 72.8216 106.068 70.3867 105.903 67.868L105.905 67.8707Z" fill="#F5F3F2"/>
<path d="M217.88 67.309C218.689 68.7559 219.386 70.0087 219.884 70.7751C221.176 72.7704 220.281 73.9669 217.599 76.6394L217.137 77.1004C211.288 82.9794 204.241 87.9218 197.426 92.7039L196.572 93.3022C189.119 98.534 181.18 103.788 172.977 108.919C170.373 110.536 167.566 112.216 164.612 113.94C164.205 104.946 165.558 98.3408 168.65 94.2948L168.525 94.2C178.959 88.3705 186.108 84.2667 187.139 83.6086L187.937 83.1108C195.482 78.4229 203.282 73.5726 209.654 67.2877C210.627 66.3281 212.779 63.5246 213.447 62.4186C213.614 62.1449 213.796 61.7817 213.99 61.3945C214.045 61.287 214.108 61.1543 214.182 61.0157C215.411 62.8821 216.821 65.4039 217.883 67.3076L217.88 67.309Z" fill="#F2F2F1"/>
<path d="M74.3758 160.29C71.3386 161.459 70.3509 159.759 70.1287 159.236C70.0697 159.08 69.9872 158.934 69.8858 158.805L66.9827 155.1C64.9646 152.387 63.5703 149.691 62.6066 147.282C73.6439 144.805 107.197 127.586 136.723 111.659C146.343 106.47 155.534 101.421 163.377 97.0629C161.539 101.817 160.866 108.09 161.376 115.807C128.226 134.829 79.3589 158.157 74.3744 160.288L74.3758 160.29Z" fill="#F2F2F1"/>
<path d="M222.687 68.9588C222.248 68.281 221.576 67.0748 220.795 65.6799C218.253 61.1301 216.177 57.5369 214.493 56.1381C212.865 54.7835 211.287 53.8892 209.672 53.3968L209.545 53.359C208.875 53.1516 207.75 52.8151 206.686 53.1806C206.637 53.1752 206.589 53.1586 206.538 53.1546C203.543 53.039 201.13 53.747 198.578 54.4983L198.148 54.6243C195.408 55.4273 192.581 56.3694 189.75 57.4229C188.658 57.8283 187.561 58.2186 186.461 58.5964C183.271 59.6847 179.994 60.6644 176.619 61.5414C176.605 61.489 176.592 61.4323 176.578 61.3799L176.531 61.1936C176.456 60.912 176.414 60.6949 176.378 60.5054C176.246 59.8209 176.119 59.31 175.583 58.4543C174.711 57.0595 173.473 56.081 172.098 55.6951C170.437 55.2278 168.85 55.4371 167.529 56.3226C165.884 57.4117 164.718 59.5279 164.408 61.9806C164.309 62.7656 164.242 63.4869 164.181 64.1915C161.912 64.5847 159.597 64.9363 157.233 65.2504C157.078 63.6274 156.69 62.0103 155.572 60.7094C153.27 58.0219 149.101 57.5435 146.46 59.6568C144.473 61.2517 143.766 63.7279 143.517 66.1092L138.18 65.6141C138.199 63.279 138.038 60.667 136.269 58.7838C135.129 57.5727 133.535 56.9627 131.782 57.0673C129.745 57.1876 127.733 58.2796 126.523 59.9075C125.529 61.2489 124.978 62.7937 124.653 64.3537L109.111 62.9082C107.997 62.8065 104.602 62.4932 103.143 64.9969C102.537 66.0411 102.526 67.199 102.585 68.089C102.807 71.474 104.078 74.7416 106.173 77.3993C105.768 77.9141 105.374 78.4412 105.01 78.984C103.918 80.6151 103.015 82.3461 102.143 84.0177C101.511 85.2241 100.859 86.4728 100.158 87.6355C96.376 93.908 90.2554 99.1138 82.9129 102.29C74.1688 106.077 65.2844 105.924 55.8766 105.762L53.5784 105.727C52.8796 105.715 51.9261 105.703 50.9995 106.107C45.7341 108.424 47.5816 117.483 50.06 124.678C52.0123 130.341 54.3428 134.871 57.1584 138.493C57.1583 138.532 57.1496 138.568 57.1495 138.607C57.1596 138.98 57.4619 147.879 64.3377 157.115L67.1424 160.697C67.3698 161.164 67.918 162.108 68.9394 162.875C70.1772 163.801 72.3321 164.645 75.6347 163.372C79.9038 161.547 115.536 144.573 146.573 127.832C156.916 122.253 166.756 116.698 174.744 111.739C183.002 106.571 190.99 101.284 198.493 96.0211L199.347 95.4228C206.281 90.5591 213.452 85.5322 219.506 79.4436L219.956 78.9928C222.326 76.6333 225.57 73.4063 222.689 68.9546L222.687 68.9588ZM167.604 62.3835C167.793 60.8932 168.46 59.5688 169.306 59.0069C169.835 58.6579 170.463 58.5842 171.218 58.7986C171.809 58.9639 172.399 59.4618 172.838 60.1646C173.096 60.5768 173.117 60.6819 173.202 61.1203C173.248 61.3637 173.306 61.6471 173.4 62.0129L173.448 62.1992C173.457 62.2295 173.465 62.2641 173.472 62.2959C171.503 62.7605 169.505 63.1954 167.464 63.59C167.502 63.202 167.546 62.8 167.597 62.3838L167.604 62.3835ZM157.381 68.5905C159.55 68.3074 161.674 67.9882 163.767 67.6366C163.68 68.136 163.58 68.6455 163.438 69.1884C163.072 70.605 162.067 71.9384 160.939 72.4869C160.289 72.809 159.657 72.8425 159.064 72.5938C157.786 72.0533 157.485 70.9121 157.38 68.5877L157.381 68.5905ZM148.476 62.1694C149.744 61.1534 151.959 61.4533 153.115 62.8045C153.703 63.4874 153.926 64.4975 154.027 65.6477C151.648 65.9206 149.212 66.1535 146.735 66.3487C146.915 64.6861 147.359 63.0654 148.476 62.1694ZM143.358 69.9471C143.307 71.9675 143.135 73.9429 142.158 75.3075C141.652 76.0147 140.589 76.4609 139.635 76.3681C139.184 76.3251 138.59 76.1474 138.309 75.5356C138.062 74.9979 138.069 74.2311 138.081 73.4933L138.121 70.2281C139.904 70.1532 141.651 70.0586 143.359 69.9499L143.358 69.9471ZM129.112 61.8249C129.756 60.9549 130.878 60.3496 131.967 60.2851C132.521 60.2512 133.308 60.3492 133.913 60.9913C134.825 61.9619 134.952 63.6247 134.95 65.311L127.9 64.6549C128.149 63.6093 128.522 62.6238 129.112 61.8249ZM105.905 67.8707C105.889 67.625 105.846 66.9696 106.018 66.6721C106.163 66.4241 106.718 66.0368 108.795 66.2269L122.082 67.4614C116.88 68.6247 112.114 71.234 108.423 74.8644C106.957 72.8216 106.068 70.3867 105.903 67.868L105.905 67.8707ZM52.3339 109.164C52.5961 109.047 53.0874 109.054 53.5232 109.063L55.816 109.102C65.594 109.268 74.8278 109.428 84.2337 105.354C92.2007 101.901 98.8714 96.2221 103.011 89.3611C103.764 88.1106 104.44 86.8165 105.093 85.5636C105.964 83.8962 106.786 82.3221 107.775 80.8417C111.221 75.694 116.803 71.9798 123.092 70.6505C123.401 70.5866 123.717 70.5504 124.029 70.5059L123.574 77.7784L126.794 77.9775L127.274 70.3202C127.969 70.3237 128.671 70.3408 129.389 70.363C130.453 70.3967 131.556 70.4306 132.652 70.405C133.407 70.3899 134.14 70.3545 134.888 70.3327L134.847 73.4532C134.836 74.4484 134.821 75.6899 135.375 76.8886C136.085 78.4276 137.525 79.4069 139.325 79.5805C141.416 79.7813 143.608 78.8214 144.776 77.1879C146.354 74.9907 146.54 72.2371 146.591 69.7048C149.168 69.5051 151.695 69.2694 154.167 68.9853C154.3 71.5453 154.817 74.3048 157.806 75.5685C159.261 76.1828 160.88 76.1186 162.367 75.3837C164.352 74.4191 165.955 72.3421 166.562 70.0012C166.837 68.9451 166.998 67.9926 167.116 67.0665C169.553 66.611 171.924 66.0879 174.265 65.5352C174.578 67.0058 174.8 68.4723 174.759 69.7911L177.984 69.8885C178.036 68.2424 177.764 66.4741 177.403 64.7755C180.876 63.8773 184.248 62.871 187.533 61.7492C188.66 61.3635 189.787 60.964 190.906 60.548C193.662 59.5205 196.412 58.6058 199.076 57.826L199.512 57.697C201.119 57.2255 202.508 56.8193 203.951 56.613C203.891 56.7304 203.835 56.8421 203.776 56.9371C203.199 57.9164 202.566 58.7486 201.898 59.4163C195.96 65.3468 188.505 69.9971 181.291 74.4925L180.503 74.9844C180.424 75.0342 180.325 75.0985 180.221 75.1615C180.182 75.1822 180.158 75.2025 180.121 75.2259C173.314 79.4275 122.418 107.987 88.1962 124.74C77.2929 118.033 64.0444 115.16 51.3434 116.754C50.572 112.605 50.8917 109.811 52.3352 109.16L52.3339 109.164ZM53.2058 123.599C52.7732 122.345 52.4093 121.153 52.0987 120.021C63.2373 118.701 74.7948 121.02 84.5843 126.494C73.4321 131.863 64.4317 135.732 59.9592 136.696C57.2934 133.333 55.0773 129.034 53.2058 123.599ZM60.6211 139.96C60.791 139.922 60.9801 139.873 61.161 139.828C65.9761 138.647 74.5941 134.967 85.1057 129.936C85.277 129.855 85.4457 129.774 85.6171 129.692C86.0969 129.462 86.5849 129.227 87.073 128.992C87.4322 128.819 87.7899 128.644 88.1518 128.47C88.504 128.298 88.8605 128.127 89.2154 127.953C89.7555 127.69 90.2983 127.425 90.8423 127.156C91.052 127.054 91.2617 126.951 91.4699 126.846C92.2264 126.473 92.9911 126.096 93.7625 125.712C93.7817 125.702 93.7981 125.693 93.8172 125.682C129.79 107.801 179.47 79.6189 182.287 77.8062L183.057 77.3273C190.427 72.7297 198.051 67.9781 204.258 61.7791C205.123 60.9133 205.927 59.8574 206.647 58.6427C206.776 58.4244 206.919 58.1389 207.066 57.8408C207.101 57.7687 207.135 57.7009 207.172 57.6246C207.177 57.6147 207.183 57.6006 207.189 57.5907C207.24 57.489 207.289 57.3845 207.343 57.2743C207.358 57.2488 207.371 57.2206 207.382 57.1965C207.436 57.0863 207.491 56.9789 207.548 56.8742C207.553 56.8643 207.561 56.8529 207.565 56.8403C207.665 56.6521 207.763 56.4933 207.855 56.3624C208.064 56.3976 208.369 56.4911 208.556 56.5493L208.699 56.5921C209.733 56.9037 210.781 57.4903 211.881 58.3382C211.549 58.8354 211.264 59.3883 211.005 59.9097C210.857 60.2051 210.721 60.4834 210.596 60.6918C210.015 61.6517 208.02 64.2152 207.311 64.912C201.205 70.9368 193.565 75.6833 186.174 80.2774L185.357 80.7856C182.387 82.6879 155.144 98.1177 126.304 113.476C91.6154 131.943 68.7689 142.744 61.522 144.113C61.0232 142.382 60.7572 140.94 60.6196 139.957L60.6211 139.96ZM74.3788 160.291C71.3415 161.459 70.3538 159.759 70.1317 159.236C70.0726 159.081 69.9902 158.934 69.8888 158.805L66.9856 155.1C64.9675 152.387 63.5733 149.691 62.6095 147.282C73.6469 144.805 107.2 127.586 136.726 111.66C146.346 106.47 155.537 101.421 163.38 97.0633C161.542 101.817 160.869 108.091 161.379 115.808C128.229 134.83 79.3619 158.158 74.3773 160.288L74.3788 160.291ZM217.601 76.6382L217.139 77.0991C211.29 82.9782 204.243 87.9205 197.427 92.7026L196.574 93.301C189.121 98.5328 181.182 103.787 172.979 108.918C170.374 110.535 167.567 112.215 164.614 113.939C164.207 104.944 165.559 98.3396 168.652 94.2936L168.527 94.1987C178.961 88.3692 186.11 84.2654 187.14 83.6074L187.939 83.1095C195.483 78.4216 203.283 73.5714 209.656 67.2865C210.629 66.3269 212.781 63.5234 213.449 62.4174C213.616 62.1437 213.798 61.7805 213.992 61.3932C214.047 61.2858 214.11 61.1531 214.183 61.0144C215.413 62.8809 216.822 65.4027 217.885 67.3063C218.693 68.7532 219.39 70.006 219.889 70.7724C221.18 72.7677 220.285 73.9642 217.603 76.6367L217.601 76.6382Z" fill="black"/>
<path d="M327.768 38.6674C325.258 39.9296 322.386 41.061 319.49 42.1228C311.845 44.9241 304.154 47.5787 296.034 48.6486C294.382 48.8667 292.719 48.9593 291.054 49.0669C290.193 49.1241 289.336 48.8721 289.449 47.8415C289.559 46.8801 290.367 47.074 291.165 47.0958C294.168 47.1653 297.131 46.6558 300.035 45.9627C309.397 43.7237 318.493 40.6958 327.202 36.5541C327.817 36.2608 328.419 36.0505 328.884 36.7548C329.251 37.316 328.961 37.8542 327.765 38.663L327.768 38.6674Z" fill="black"/>
<path d="M306.723 16.2189C300.586 24.1854 294.053 31.8155 286.942 38.9365C286.59 39.2891 286.257 39.6545 285.768 39.7927C285.238 39.9412 284.787 39.7795 284.507 39.2935C284.257 38.8568 284.318 38.4333 284.754 38.1293C287.566 36.174 289.611 33.4375 291.853 30.9253C297.205 24.9223 302.466 18.8329 307.068 12.2084C307.566 11.4884 308.147 10.8215 308.118 9.84359C308.091 8.97376 308.628 8.54952 309.437 8.67845C310.258 8.80939 310.56 9.45836 310.398 10.2301C310.171 11.3022 309.552 12.215 308.964 13.1112C308.268 14.1753 307.473 15.1812 306.721 16.2114L306.723 16.2189Z" fill="black"/>
<path d="M271.108 33.1734C270.225 32.7474 270.32 32.2966 270.421 31.8103C271.445 26.8083 271.471 21.6248 269.861 16.1443C269.032 13.3193 267.991 10.4922 266.644 7.67095C266.324 6.99592 266.11 6.31344 265.062 5.7721C264.308 5.38091 264.593 4.88623 264.979 4.59309C265.508 4.18836 266.252 4.34361 266.95 4.81941C267.637 5.28731 267.924 5.89517 268.21 6.46909C271.736 13.4856 273.778 20.3915 273.197 27.1058C273.043 28.8943 272.86 30.6761 272.499 32.4137C272.373 33.0009 272.174 33.4553 271.108 33.1734Z" fill="black"/>
</svg>
