<svg width="347" height="235" viewBox="0 0 347 235" fill="none" xmlns="http://www.w3.org/2000/svg">
<rect width="346" height="235" rx="28" fill="#7DBD92"/>
<mask id="mask0_4697_21631" style="mask-type:alpha" maskUnits="userSpaceOnUse" x="0" y="0" width="347" height="235">
<rect x="0.289062" width="346" height="235" rx="28" fill="#5906FF"/>
</mask>
<g mask="url(#mask0_4697_21631)">
<rect x="-61.7109" y="1.94922" width="444.66" height="304.54" transform="rotate(-54.488 -61.7109 1.94922)" fill="#B4EAC6"/>
<path d="M89.2891 188.5L85.8219 188.005C85.8 188.002 85.778 188 85.7559 188C85.4981 188 85.2891 188.209 85.2891 188.467V190.801C85.2891 190.933 85.2985 191.066 85.3172 191.197L85.7891 194.5L87.0566 199.148C87.2108 199.713 87.4468 200.252 87.7572 200.749L89.2474 203.133C89.6059 203.707 90.0589 204.216 90.5872 204.638L90.9314 204.914C91.8183 205.623 92.8883 206.067 94.017 206.192L96.7891 206.5C97.4587 206.5 97.6471 207.418 97.0316 207.682L96.3731 207.964C96.3173 207.988 96.2645 208.018 96.2159 208.055L94.9054 209.038C94.5001 209.342 94.1711 209.736 93.9445 210.189C93.5276 211.023 93.4872 211.995 93.8334 212.861L93.8519 212.907C94.135 213.615 94.6493 214.206 95.311 214.584L95.3862 214.627C96.8049 215.438 98.5906 215.198 99.746 214.043L99.9024 213.887C100.479 213.31 101.222 212.928 102.026 212.794L102.873 212.653C103.48 212.551 104.099 212.544 104.708 212.631L105.887 212.8C106.809 212.931 107.749 212.847 108.633 212.552L109.904 212.128C110.16 212.043 110.423 211.978 110.69 211.933L111.547 211.79C112.641 211.608 113.583 210.913 114.079 209.92C114.218 209.641 114.395 209.383 114.603 209.151L118.402 204.93C118.659 204.644 118.889 204.334 119.087 204.004L120.05 202.398C120.209 202.133 120.388 201.881 120.586 201.644L122.789 199L123.721 197.835C124.412 196.971 124.789 195.897 124.789 194.791V194.221C124.789 194.075 124.765 193.929 124.719 193.791C124.482 193.078 123.711 192.693 122.998 192.93L122.937 192.951C122.839 192.983 122.744 193.027 122.655 193.08L120.289 194.5L117.789 196.5L116.18 197.465C115.591 197.819 114.944 198.069 114.27 198.204L113.301 198.398C112.961 198.466 112.632 198.578 112.322 198.733L110.978 199.406C110.858 199.466 110.768 199.574 110.731 199.703L110.476 200.596C110.364 200.987 109.789 200.906 109.789 200.5V198V196.689C109.789 195.311 109.14 194.013 108.038 193.187C107.872 193.062 107.716 192.926 107.569 192.78L106.791 192.002C106.132 191.343 105.329 190.847 104.445 190.552L102.789 190L100.289 189.5L97.2112 189.06C96.9301 189.02 96.6466 189 96.3627 189H93.2155C92.9316 189 92.648 188.98 92.3669 188.94L89.2891 188.5Z" fill="white"/>
<path d="M127.01 200.874L118.394 209.849C117.67 210.603 117.156 211.534 116.902 212.549L116.592 213.789C116.392 214.588 116.359 215.419 116.494 216.231L116.712 217.536C116.763 217.845 116.839 218.149 116.938 218.447L117.504 220.144C117.693 220.712 117.966 221.247 118.313 221.734L119.65 223.605C120.072 224.197 120.599 224.707 121.204 225.11L123.289 226.5L125.628 227.67C126.067 227.889 126.531 228.054 127.01 228.16L130.789 229L133.867 229.44C134.148 229.48 134.432 229.5 134.715 229.5H139.789H142.289H144.315C144.96 229.5 145.601 229.604 146.213 229.808L149.249 230.82C149.608 230.94 149.978 231.025 150.353 231.075L157.289 232H163.289L171.789 231.5L176.592 230.761C177.701 230.59 178.836 230.734 179.868 231.176L181.01 231.666C181.527 231.888 182.072 232.035 182.63 232.105L189.789 233L205.289 233.5H217.289L223.789 233L230.289 232.5L231.141 232.33C232.219 232.114 233.335 232.199 234.368 232.574L237.296 233.639C237.953 233.878 238.647 234 239.346 234H245.789L254.789 233.5L255.871 233.32C256.857 233.155 257.438 232.122 257.067 231.195C256.891 230.755 256.526 230.419 256.074 230.28L250.289 228.5L243.392 226.201C242.991 226.067 242.577 225.976 242.157 225.93L233.789 225H226.075C225.553 225 225.034 224.932 224.529 224.797L210.289 221L202.205 218.622C201.928 218.541 201.646 218.48 201.36 218.439L191.289 217L186.721 216.585C186.103 216.529 185.481 216.568 184.876 216.703L181.932 217.357C181.505 217.452 181.068 217.5 180.63 217.5H178.328C177.641 217.5 176.958 217.382 176.31 217.15L170.289 215L158.289 210L154.194 208.635C153.924 208.545 153.662 208.436 153.408 208.309L153.211 208.211C152.279 207.745 151.485 207.044 150.907 206.177C150.182 205.089 149.12 204.268 147.884 203.841L136.789 200L132.515 199.145C130.506 198.743 128.43 199.395 127.01 200.874Z" fill="white"/>
<path d="M200.289 175L176.289 152L174.289 154L197.289 177.5L200.289 175Z" fill="white"/>
<path d="M138.789 48H128.289L127.789 41L127.289 33.5L126.789 27.5L126.289 19L125.289 13.5L124.289 8.5L124.789 7H125.789L127.289 8L128.289 9.5L129.289 11.5L130.289 14L135.289 21L140.789 27.5L142.789 31.5L141.789 36L138.789 48Z" fill="white"/>
<path d="M186.789 53.5L184.289 57L188.289 65.5L190.789 66L194.289 65L197.789 64L201.289 63L203.789 62L205.289 59.5V57.5L205.789 54V50.5L206.289 47L207.789 41L209.789 36.5L211.789 31.5L212.289 29L211.289 28.5H209.789L206.789 31L202.789 35L199.289 40L191.789 48.5L186.789 53.5Z" fill="white"/>
<path fill-rule="evenodd" clip-rule="evenodd" d="M123.933 6.75608C123.295 7.5205 123.415 9.16559 124.331 12.1916C125.054 14.5773 126.074 22.4813 126.599 29.7565C127.622 43.944 127.436 46.2487 123.303 70.3588C121.196 82.6538 120.664 93.3178 121.989 96.6942C122.584 98.2055 122.922 97.9025 124.458 94.4926C126.483 89.9941 134.682 81.8867 140.803 78.3314C144.736 76.047 144.894 75.803 144.21 73.1091C143.815 71.5547 143.225 69.0941 142.898 67.641L142.305 64.999L145.248 67.7555C150.862 73.014 150.216 73.1364 167.012 63.6437C175.416 58.8951 182.283 55.2756 182.273 55.6005C182.264 55.9264 173.395 61.1153 162.566 67.1329C134.752 82.5868 129.74 86.2944 125.21 94.7682C122.511 99.8171 122.308 104.913 124.608 109.913C127.42 116.031 144.641 131.102 162.353 142.946C167.229 146.207 172.016 149.762 172.991 150.847L174.762 152.819L171.52 155.61C168.128 158.529 164.837 160.484 147.305 169.991C131.437 178.597 126.753 182.118 122.37 188.733C117.132 196.639 116.213 197.542 113.427 197.52C111.557 197.506 110.683 196.842 109.663 194.658C107.893 190.868 105.429 189.863 95.499 188.872C90.3291 188.356 87.0015 187.625 86.7775 186.956C85.8953 184.325 81.5084 180.656 78.4209 179.967C72.6966 178.69 72.0545 179.263 71.756 185.916C70.9518 203.855 70.9695 204.07 73.5708 207.458C74.9109 209.204 76.0065 211.575 76.0065 212.727C76.0065 215.583 80.0798 219.193 84.666 220.401C90.927 222.049 101.252 219.472 107.563 214.685C111.154 211.962 112.147 211.955 112.826 214.647C113.123 215.823 114.126 217.47 115.057 218.306C115.987 219.144 116.749 220.288 116.749 220.849C116.749 222.26 120.994 226.075 124.72 228.012C126.945 229.169 130.142 229.688 136.044 229.849C140.567 229.974 146.32 230.68 148.826 231.42C153.804 232.89 165.345 233.141 171.662 231.917C174.49 231.369 177.191 231.519 180.962 232.434C188.425 234.245 209.106 234.926 221.704 233.776C230.637 232.961 232.938 233.015 236.132 234.115C238.222 234.835 240.878 235.188 242.034 234.899C243.19 234.611 247.453 234.31 251.508 234.231C257.431 234.115 258.934 233.815 259.148 232.703C259.45 231.138 257.342 230.013 248.342 226.936C243.656 225.335 240.324 224.84 234.231 224.84C224.518 224.84 212.402 221.974 212.41 219.679C212.429 213.907 216.857 206.982 221.856 204.905C225.603 203.348 232.217 203.369 235.255 204.947C240.06 207.443 244.266 213.457 246.93 221.64L248.038 225.044L253.028 224.527C255.773 224.243 261.903 223.746 266.653 223.424L275.289 222.838V219.576C275.289 211.556 268.966 194.331 263.159 186.531C257.599 179.064 247.603 174.552 232.838 172.846C223.277 171.74 218.071 172.067 210.959 174.219C206.514 175.563 197.719 180.59 198.484 181.349C198.72 181.585 200.811 180.581 203.131 179.119C210.039 174.763 215.292 173.442 225.258 173.552C241.438 173.732 253.904 177.873 260.665 185.316C266.277 191.491 272.914 207.096 274.004 216.676L274.601 221.923L264.095 222.591C258.317 222.958 252.468 223.317 251.098 223.389C248.854 223.506 248.442 223.057 246.948 218.873C242.472 206.326 234.697 200.718 224.829 202.917C217.553 204.538 213.074 209.36 211.866 216.87C211.419 219.643 210.953 220.41 209.941 220.023C204.049 217.775 194.225 216.033 187.438 216.033C178.382 216.033 178.519 216.236 181.396 207.099C183.756 199.601 187.407 193.519 193.429 187.052C196.176 184.101 198.145 181.687 197.803 181.687C197.461 181.687 199.858 178.814 203.129 175.303C214.129 163.495 219.791 153.113 219.776 144.783C219.745 127.962 198.401 113.38 160.233 104.107L151.903 102.083L154.919 99.8708C158.788 97.0333 170.497 85.3292 177.747 77.0527C184.522 69.3187 188.682 66.5508 195.379 65.3196C201.35 64.2223 204.851 62.5693 205.782 60.4081C206.155 59.5424 206.719 55.0695 207.036 50.468C207.513 43.5583 208.136 40.9779 210.614 35.649C213.115 30.2725 213.403 29.0625 212.346 28.3967C211.647 27.9573 210.778 27.5918 210.414 27.5839C209.025 27.5557 202.206 34.4328 197.338 40.7745C194.545 44.4108 191.469 48.0893 190.502 48.9497C188.776 50.4847 188.733 50.431 188.223 46.1483C187.203 37.5838 182.263 30.7763 174.142 26.7411C164.968 22.1827 154.891 23.288 146.313 29.7935L143.499 31.9273L142.958 29.7811C142.661 28.601 140.012 24.9454 137.075 21.6587C134.137 18.3712 130.763 13.6473 129.578 11.1612C127.303 6.38796 125.449 4.94102 123.933 6.75608ZM127.147 8.41614C127.626 9.02204 128.257 10.513 128.548 11.731C128.839 12.9489 132.083 17.4949 135.756 21.834C139.685 26.4751 142.434 30.5271 142.434 31.6781C142.434 32.7543 141.663 34.9454 140.72 36.5473C139.777 38.1492 138.559 41.243 138.013 43.4227L137.02 47.3857L132.761 47.4473L128.504 47.509L127.878 34.2373C127.534 26.9383 126.878 19.1823 126.422 17.0026C124.618 8.39148 124.503 7.3153 125.382 7.3153C125.872 7.3153 126.667 7.81112 127.147 8.41614ZM211.752 30.9013C211.435 31.7336 210.446 33.6534 209.552 35.1691C207.47 38.7014 205.354 48.6265 205.334 54.955C205.313 61.7582 203.6 63.1214 192.775 64.9444C189.692 65.4631 189.481 65.3407 188.534 62.4891C187.986 60.8379 186.778 58.8044 185.85 57.9686C184.21 56.4926 184.32 56.2945 189.678 51.0369C192.712 48.0603 197.572 42.5297 200.478 38.7463C205.502 32.2065 210.216 28.0911 211.662 28.9797C212.028 29.2043 212.068 30.0691 211.752 30.9013ZM140.068 60.8158C140.907 62.3896 141.392 63.678 141.146 63.678C140.024 63.678 137.045 56.2232 136.659 52.4521L136.231 48.2663L137.387 53.11C138.023 55.774 139.23 59.2421 140.068 60.8158ZM179.191 157.122C181.898 160.765 188.413 167.133 195.577 173.14C197.769 174.977 198.633 176.036 197.5 175.494C193.41 173.537 173.571 153.465 175.787 153.527C176.198 153.539 177.729 155.156 179.191 157.122ZM189.987 189.027C184.773 195.354 180.705 204.27 178.396 214.431C177.914 216.55 177.602 216.717 175.326 216.068C173.933 215.671 171.191 214.429 169.234 213.309L165.675 211.273L170.218 206.091C174.131 201.63 191.864 185.241 192.804 185.218C192.984 185.214 191.717 186.927 189.987 189.027ZM101.845 190.44C103.148 190.469 105.483 191.556 107.034 192.854C109.686 195.074 109.832 195.499 109.462 199.938C109.242 202.577 109.389 204.159 109.795 203.522C110.195 202.896 110.528 201.734 110.535 200.94C110.543 200.019 111.59 199.294 113.427 198.934C115.01 198.625 117.872 197.193 119.785 195.754C123.957 192.614 124.72 192.516 124.72 195.121C124.72 196.37 122.584 199.305 118.963 203.031C115.797 206.29 113.206 209.558 113.206 210.293C113.206 211.354 111.998 211.63 107.367 211.63C102.891 211.63 101.009 212.037 99.3013 213.372C97.5662 214.728 96.6911 214.911 95.344 214.194C92.7683 212.823 93.7187 210.525 97.6503 208.617C100.677 207.148 100.911 206.837 99.4217 206.257C98.4776 205.89 96.3926 205.561 94.7877 205.527C90.5993 205.438 87.5206 202.118 87.5206 197.689C87.5206 195.79 87.2876 193.079 87.0033 191.665L86.4852 189.091L92.9818 189.739C96.5547 190.094 100.543 190.41 101.845 190.44ZM143.84 202.954C145.258 203.561 147.607 204.863 149.059 205.847L151.699 207.635L146.845 208.727L141.991 209.819L146.984 209.407C154.316 208.803 160.487 210.253 169.481 214.689C176.997 218.396 177.699 218.578 180.995 217.669C186.823 216.063 197.569 217.286 208.852 220.84C222.98 225.292 225.95 225.873 234.547 225.868C240.741 225.864 243.489 226.358 250.047 228.654C254.431 230.189 257.92 231.832 257.801 232.305C257.438 233.745 236.502 233.875 234.456 232.45C233.121 231.52 231.76 231.439 228.542 232.097C221.933 233.449 189.815 233.408 183.829 232.04C180.766 231.341 178.951 230.511 179.29 229.965C179.636 229.407 179.212 229.247 178.194 229.551C167.065 232.878 152.832 232.445 143.278 228.489C138.404 226.471 137.256 226.207 138.891 227.48L141.105 229.205L136.617 229.224C131.383 229.247 124.182 227.243 121.553 225.031C120.542 224.181 119.002 222.404 118.131 221.082C114.636 215.779 119.144 206.285 126.871 202.671C130.888 200.793 139.111 200.93 143.84 202.954Z" fill="black"/>
</g>
</svg>
