<svg width="347" height="235" viewBox="0 0 347 235" fill="none" xmlns="http://www.w3.org/2000/svg">
<rect x="0.710938" width="346" height="235" rx="28" fill="#C0D2FF"/>
<mask id="mask0_4697_21636" style="mask-type:alpha" maskUnits="userSpaceOnUse" x="0" y="0" width="347" height="235">
<rect x="0.996094" width="346" height="235" rx="28" fill="#5906FF"/>
</mask>
<g mask="url(#mask0_4697_21636)">
<rect x="0.998047" y="106" width="346" height="129" fill="#8FAFFF"/>
<path d="M88.7318 182.534V182.592C88.7611 184.106 88.7904 185.627 88.8268 187.14C88.9 190.138 88.9439 193.143 88.9805 196.141C88.5857 195.87 88.1908 195.593 87.8105 195.3C87.8471 192.58 87.8911 189.86 87.9568 187.14C87.9933 185.517 88.03 183.901 88.0593 182.278V182.241C88.1249 179.28 88.1908 176.326 88.2785 173.365C88.282 173.336 88.2957 173.309 88.3171 173.289C88.3385 173.269 88.3663 173.257 88.3956 173.255C88.4232 173.258 88.4491 173.27 88.468 173.29C88.487 173.311 88.4976 173.337 88.4978 173.365C88.593 176.421 88.671 179.478 88.7318 182.534Z" fill="#020202"/>
<path d="M89.4312 27.2246L89.4239 27.89L89.285 43.1422C89.2484 48.4431 89.185 53.749 89.0949 59.0597C89.0656 61.0119 89.0437 62.9642 89.0071 64.9164C88.9999 65.6183 88.9926 66.3128 88.978 67.0148C88.956 68.5649 88.9292 70.115 88.8975 71.665C88.8901 72.2427 88.8828 72.813 88.8682 73.3907C88.8643 73.5919 88.8589 73.793 88.8548 73.9942C88.7586 79.6245 88.6388 85.2556 88.4953 90.8875C88.4946 90.9164 88.4829 90.9438 88.4625 90.9642C88.4421 90.9846 88.4146 90.9964 88.3857 90.9971C88.3577 90.9939 88.3316 90.9814 88.3117 90.9615C88.2917 90.9416 88.2791 90.9155 88.2759 90.8875C88.1297 85.2868 88.0201 79.6786 87.9178 74.0779C87.9103 73.8512 87.9103 73.6173 87.9032 73.3907C87.8593 70.8243 87.8154 68.2652 87.7788 65.6988C87.7569 64.4192 87.7422 63.1324 87.7276 61.8528C87.7131 60.9243 87.6985 59.9884 87.6838 59.0597C87.5887 53.7514 87.5229 48.4456 87.4864 43.1422L87.3475 28.2776C80.9425 28.3507 74.5375 28.3434 68.1324 28.3872H49.0268C48.9465 42.4769 48.9172 56.5592 48.7783 70.6488L48.2737 114.073C48.186 128.543 48.1714 143.02 48.4347 157.49C48.6321 171.645 48.9099 185.786 48.8586 199.941L68.1323 200.044L74.0913 200.087L78.2589 200.117L87.6179 200.248H87.7421C87.7568 199.422 87.7641 198.596 87.7714 197.77C87.9615 197.916 88.1516 198.062 88.3417 198.201C88.561 198.355 88.7805 198.515 89.007 198.662C89.0216 199.415 89.0291 200.161 89.0435 200.914C89.0451 200.999 89.03 201.083 88.9988 201.162C88.9677 201.241 88.9213 201.314 88.8622 201.375C88.8031 201.436 88.7325 201.485 88.6545 201.519C88.5765 201.552 88.4925 201.57 88.4075 201.572H88.3856L87.9908 201.579L78.2589 201.711L74.5373 201.74L68.1323 201.784L47.8716 201.894C47.614 201.894 47.3665 201.793 47.183 201.613C46.9995 201.432 46.8949 201.186 46.8918 200.928V200.914C46.8259 186.437 47.1111 171.967 47.3159 157.49C47.579 143.02 47.5644 128.543 47.4768 114.073L46.9723 70.6488C46.8259 56.1716 46.8041 41.7017 46.709 27.2246C46.7077 26.9184 46.8278 26.6241 47.0429 26.4063C47.2581 26.1884 47.5508 26.0646 47.857 26.062H47.8716L68.1323 26.0693C74.881 26.1058 81.637 26.0985 88.3857 26.179H88.4076C88.6805 26.1865 88.9398 26.2997 89.1308 26.4948C89.3217 26.6899 89.4295 26.9515 89.4312 27.2245V27.2246Z" fill="#020202"/>
<path d="M209.941 32.7178H47.8652V200.125H209.941V32.7178Z" fill="white" stroke="black" stroke-width="1.06629"/>
<path d="M128.835 87.4647C128.631 82.4447 128.516 77.4246 128.429 72.4045C128.318 67.3844 128.288 62.3644 128.263 57.3443C128.237 52.3242 128.261 47.3041 128.388 42.284C128.476 37.264 128.626 32.2439 128.668 27.2238L128.908 27.4643C125.533 27.4352 122.157 27.4479 118.782 27.4769C115.406 27.4816 112.031 27.5609 108.655 27.6129L98.5285 27.7952L88.4019 27.9064L89.0845 27.2238L89.1809 42.6131C89.1959 47.7428 89.1608 52.8726 89.111 58.0023C89.0322 63.1321 89.0021 68.2618 88.8837 73.3916C88.7823 78.5213 88.6631 83.6511 88.4749 88.7808C88.4749 88.8002 88.4672 88.8188 88.4535 88.8325C88.4398 88.8463 88.4212 88.854 88.4018 88.854C88.3824 88.854 88.3638 88.8463 88.3501 88.8325C88.3364 88.8188 88.3287 88.8002 88.3287 88.7808C88.1404 83.6511 88.0213 78.5213 87.9197 73.3916C87.8014 68.2618 87.7712 63.1321 87.6927 58.0023C87.6429 52.8726 87.6075 47.7428 87.6227 42.6131L87.7191 27.2238V27.2121C87.7202 27.033 87.7925 26.8617 87.9199 26.7358C88.0473 26.61 88.2196 26.5399 88.3987 26.541H88.4019L98.5285 26.6523L108.655 26.8345C112.031 26.8866 115.406 26.9659 118.782 26.9706C122.157 26.9996 125.533 27.0123 128.908 26.9832C128.94 26.9829 128.971 26.9888 129 27.0005C129.029 27.0123 129.055 27.0296 129.078 27.0516C129.1 27.0735 129.118 27.0997 129.13 27.1285C129.142 27.1573 129.149 27.1883 129.149 27.2196V27.2238C129.191 32.2439 129.341 37.2639 129.429 42.284C129.556 47.3041 129.58 52.3242 129.554 57.3443C129.529 62.3643 129.499 67.3844 129.388 72.4045C129.301 77.4246 129.186 82.4446 128.982 87.4647C128.981 87.4837 128.973 87.5016 128.959 87.5148C128.946 87.528 128.927 87.5353 128.908 87.5353C128.889 87.5353 128.871 87.528 128.858 87.5148C128.844 87.5016 128.836 87.4837 128.835 87.4647L128.835 87.4647Z" fill="#020202"/>
<path d="M93.3734 201.195L92.4886 200.779L91.6405 200.289L91.3774 200.142C90.6389 200.135 89.9004 200.135 89.1619 200.142C89.1546 199.682 89.1546 199.221 89.1473 198.761C89.1017 198.731 89.0577 198.7 89.0156 198.665C88.789 198.519 88.5697 198.358 88.3503 198.205C88.1602 198.066 87.9701 197.92 87.78 197.773C87.7337 197.745 87.6897 197.714 87.6484 197.678C87.6411 198.541 87.6411 199.397 87.6265 200.252C87.6265 200.472 87.6191 200.698 87.6191 200.918V200.925C87.6197 201.058 87.655 201.189 87.7217 201.304C87.7884 201.42 87.8841 201.516 87.9994 201.583C88.1139 201.653 88.2452 201.691 88.3796 201.693H88.3942C90.3976 201.707 92.3937 201.7 94.3971 201.678V201.671L93.3734 201.195ZM88.9864 196.143C89.0267 196.177 89.0709 196.207 89.118 196.231C89.1107 195.814 89.1034 195.405 89.096 194.988L88.9645 189.058C88.8986 186.901 88.8256 184.751 88.7378 182.594V182.536C88.6646 180.759 88.5769 178.968 88.4672 177.191C88.4672 177.183 88.4656 177.174 88.4623 177.166C88.459 177.158 88.4542 177.151 88.4481 177.145C88.442 177.138 88.4347 177.134 88.4267 177.13C88.4187 177.127 88.4101 177.125 88.4015 177.125C88.3821 177.124 88.3629 177.13 88.3478 177.142C88.3328 177.154 88.3231 177.172 88.321 177.191C88.2187 178.873 88.1309 180.562 88.0652 182.243V182.28C87.97 184.539 87.897 186.799 87.8238 189.058L87.6923 194.988C87.6923 195.061 87.6923 195.134 87.685 195.207C87.7289 195.236 87.7726 195.273 87.8165 195.302C88.1967 195.595 88.5916 195.872 88.9864 196.143V196.143Z" fill="#020202"/>
<path d="M129.517 192.699L129.363 197.123L129.246 200.398L129.239 200.727L129.232 200.917V200.939C129.228 201.02 129.193 201.097 129.135 201.152C129.076 201.208 128.998 201.239 128.917 201.239C128.8 201.232 128.683 201.232 128.566 201.232C126.694 201.166 124.815 201.137 122.944 201.137C118.184 201.137 113.424 201.305 108.657 201.466C105.286 201.546 101.91 201.602 98.5298 201.634L96.5996 201.656C96.6069 201.524 96.6289 201.393 96.6435 201.261C96.7751 200.903 96.914 200.545 97.0603 200.186C97.5502 200.186 98.04 200.194 98.5298 200.201C101.908 200.23 105.283 200.286 108.657 200.369C115.252 200.588 121.832 200.822 128.427 200.61C128.481 200.612 128.535 200.609 128.588 200.603L128.464 197.086L128.31 192.699C128.245 189.957 128.252 187.223 128.281 184.481C128.34 179.099 128.471 173.703 128.83 168.322C128.83 168.227 128.837 168.139 128.844 168.044C128.844 168.035 128.846 168.026 128.85 168.017C128.854 168.009 128.86 168.002 128.866 167.995C128.873 167.989 128.881 167.984 128.89 167.982C128.899 167.979 128.908 167.977 128.917 167.978C128.934 167.979 128.95 167.985 128.964 167.995C128.977 168.006 128.986 168.02 128.99 168.037V168.044C129.349 173.521 129.488 179.004 129.546 184.481C129.575 187.223 129.583 189.957 129.517 192.699Z" fill="#020202"/>
<path d="M128.971 167.705L129.228 184.295L129.385 200.885L128.898 200.398C135.65 200.32 142.403 200.318 149.155 200.288C155.908 200.274 162.66 200.211 169.412 200.239L168.766 200.885C168.77 186.41 168.949 171.936 169.084 157.461L169.19 135.749L169.121 114.037L168.794 70.6128L168.639 27.1888L169.412 27.9614L149.155 27.9349C142.403 27.9313 135.651 27.9084 128.898 27.8661L129.575 27.1888L129.354 57.6566L129.191 72.8905L128.971 88.1243C128.971 88.1437 128.964 88.1623 128.95 88.176C128.936 88.1897 128.917 88.1974 128.898 88.1974C128.879 88.1974 128.86 88.1897 128.846 88.176C128.833 88.1623 128.825 88.1437 128.825 88.1243L128.605 72.8904L128.442 57.6565L128.221 27.1888C128.22 27.1004 128.237 27.0129 128.27 26.931C128.303 26.8492 128.352 26.7747 128.414 26.7118C128.476 26.6489 128.55 26.5988 128.631 26.5645C128.713 26.5301 128.8 26.5121 128.888 26.5114L128.898 26.5113C135.65 26.458 142.403 26.4351 149.155 26.4425L169.412 26.416C169.513 26.4157 169.613 26.4352 169.707 26.4736C169.801 26.512 169.886 26.5684 169.957 26.6396C170.029 26.7109 170.086 26.7956 170.125 26.8888C170.164 26.9821 170.184 27.0822 170.185 27.1833V27.1888L170.031 70.6129L169.703 114.037L169.634 135.749L169.74 157.461C169.875 171.936 170.055 186.41 170.058 200.885C170.058 201.057 169.99 201.221 169.869 201.342C169.748 201.463 169.584 201.532 169.412 201.532C162.66 201.559 155.907 201.496 149.155 201.483C142.403 201.453 135.65 201.45 128.898 201.372L128.888 201.372C128.825 201.372 128.762 201.358 128.704 201.334C128.646 201.309 128.593 201.273 128.549 201.228C128.504 201.182 128.469 201.129 128.446 201.07C128.422 201.011 128.41 200.948 128.411 200.885L128.569 184.295L128.825 167.705C128.825 167.685 128.833 167.667 128.846 167.653C128.86 167.639 128.879 167.632 128.898 167.632C128.917 167.632 128.936 167.639 128.95 167.653C128.964 167.667 128.971 167.685 128.971 167.705L128.971 167.705Z" fill="#020202"/>
<path d="M210.356 70.3291L210.203 48.6792L209.983 27.1389L170.04 26.7148L169.425 26.7075C169.363 26.7074 169.301 26.7196 169.243 26.7434C169.186 26.7673 169.133 26.8023 169.089 26.8464C169.045 26.8906 169.01 26.943 168.986 27.0007C168.962 27.0585 168.95 27.1203 168.95 27.1828V27.4826L168.943 27.9651L168.775 59.3542V60.0415L168.709 70.6142L168.65 114.038L168.767 157.462L168.899 178.418V178.703L169.023 200.243L169.031 200.638V200.894C169.03 200.946 169.04 200.997 169.06 201.045C169.08 201.093 169.109 201.137 169.146 201.174C169.182 201.21 169.226 201.239 169.274 201.259C169.322 201.279 169.374 201.289 169.425 201.289H169.93L189.679 201.157L209.932 201.113C209.992 201.113 210.05 201.089 210.092 201.046C210.135 201.004 210.159 200.947 210.159 200.886C210.173 186.402 210.242 171.901 210.364 157.382L210.51 135.579L210.539 113.79L210.356 70.3291ZM209.713 200.887V200.66H209.486L189.679 200.616L170.237 200.492H170.076L169.857 200.484H169.828V200.886L169.426 200.484H169.828V200.462L169.835 200.068L169.959 178.703V178.418L170.091 157.462L170.2 114.038L170.149 70.6142L170.083 60.0415V59.3542L169.915 28.1845L169.908 27.7092V27.6654L169.426 27.6727L169.908 27.1901V27.6654H170.398L209.881 27.2413L209.669 49.1252L209.515 70.8993L209.333 114.287L209.355 135.922L209.508 157.543C209.64 171.808 209.708 186.097 209.713 200.411V200.66H209.932L209.713 200.887Z" fill="#020202"/>
<path d="M211.136 113.539L211.004 91.7505C210.924 84.5193 210.887 77.2515 210.763 70.0641L210.456 48.4873L210.032 27.1226L189.91 26.6472L169.415 26.2597L168.472 26.2451V26.4134L168.457 27.2249C168.45 27.4735 168.45 27.7148 168.443 27.9633C168.311 34.946 168.26 41.9434 168.187 48.926L167.975 70.6344L167.865 92.3355V114.044L168.099 157.446L168.304 179.154L168.611 200.241L168.618 200.855L168.626 201.528V201.667L169.415 201.66L189.669 201.404L209.922 201.309L210.376 201.302V200.855C210.368 193.61 210.4 186.359 210.47 179.103L210.778 157.285L211.077 135.401L211.143 124.456L211.136 113.539ZM170.219 200.855L169.847 200.483L169.817 200.461L169.415 200.059L169.825 200.066H170.234L170.527 179.154L170.739 157.446L170.973 114.044V92.3354L170.863 70.6344L170.651 48.926C170.578 42.009 170.527 35.0849 170.395 28.1681L170.19 28.1754L169.905 28.1827L169.415 28.19L169.898 27.7074L169.942 27.6636L170.19 27.4149L170.381 27.2248C170.381 27.3711 170.388 27.5173 170.388 27.6636C170.395 27.8318 170.395 28 170.395 28.1681L189.435 27.8025L209.82 27.3273L209.396 49.372L209.089 71.2047C208.957 78.4799 208.928 85.6891 208.84 92.9204L208.708 114.541L208.701 125.326L208.767 136.089L209.067 157.614L209.381 179.206C209.461 186.269 209.493 193.337 209.476 200.41H209.922L209.703 200.629L209.673 200.658L209.476 200.855V200.41L189.669 200.314L170.234 200.066L170.227 200.49L170.219 200.855Z" fill="black"/>
<path d="M117.766 57.3087C117.766 57.3087 117.584 50.6573 99.3839 50.2548C97.9914 50.2063 96.6052 50.4651 95.3239 51.0127C94.0426 51.5604 92.8976 52.3835 91.9703 53.4236C89.8133 55.9212 87.7446 60.2352 88.0978 67.5009C88.8042 82.0324 76.291 92.1237 76.291 92.1237C76.291 92.1237 77.9056 96.7657 86.2814 94.8483C94.6571 92.931 98.7946 94.5456 102.427 94.4447C106.06 94.3437 110.904 89.1972 110.299 84.5552C109.693 79.9132 107.473 73.253 107.473 73.253C107.473 73.253 103.465 70.4716 105.759 66.3083C105.902 66.0287 106.113 65.7901 106.374 65.615C106.634 65.44 106.935 65.3342 107.248 65.3077C107.56 65.2813 107.875 65.335 108.161 65.4638C108.447 65.5926 108.695 65.7922 108.883 66.0438C109.088 66.3564 109.195 66.7234 109.189 67.0973C109.189 67.0973 117.262 61.7489 117.766 57.3087Z" fill="#020202"/>
<path d="M107.562 72.0827C107.887 72.0714 108.194 71.9347 108.42 71.7012C108.645 71.4677 108.771 71.1558 108.771 70.8311C108.771 70.5065 108.645 70.1946 108.42 69.9611C108.194 69.7276 107.887 69.5908 107.562 69.5796C107.238 69.5908 106.931 69.7276 106.705 69.9611C106.48 70.1946 106.354 70.5065 106.354 70.8311C106.354 71.1558 106.48 71.4677 106.705 71.7012C106.931 71.9347 107.238 72.0714 107.562 72.0827Z" fill="#020202"/>
<path d="M76.771 92.9673C75.6999 93.9944 74.7397 95.1311 73.9062 96.3589C73.0402 97.5618 72.2626 98.8258 71.4995 100.095C69.976 102.638 68.6277 105.282 67.3464 107.955C64.7857 113.3 62.5096 118.778 60.5275 124.363C60.3015 125.064 60.0618 125.762 59.8829 126.474L59.5923 127.538L59.3604 128.613C59.1844 129.327 59.1109 130.055 58.9909 130.777C58.9085 131.5 58.8655 132.227 58.8623 132.955C58.8272 134.397 59.0646 135.834 59.5618 137.189C60.0845 138.523 60.9338 139.705 62.0318 140.626C63.1621 141.542 64.4481 142.248 65.8282 142.709C67.2211 143.19 68.6503 143.559 70.102 143.812C73.007 144.384 75.9846 144.622 78.9033 145.203C75.9562 144.81 72.9883 144.656 70.0326 144.219C68.5482 144.002 67.084 143.665 65.6545 143.211C64.1966 142.764 62.831 142.058 61.6231 141.127C60.4026 140.166 59.4581 138.9 58.8855 137.456C58.3422 136.019 58.0747 134.493 58.097 132.957C58.0938 132.199 58.132 131.441 58.2116 130.687C58.3278 129.942 58.3996 129.186 58.5729 128.454L58.8018 127.348L59.089 126.259C59.2671 125.528 59.5015 124.816 59.7293 124.102C60.2005 122.68 60.7404 121.279 61.3061 119.906C61.8735 118.529 62.4106 117.141 63.0163 115.779C63.6084 114.413 64.1886 113.042 64.8257 111.694L65.7659 109.668L66.7689 107.67C68.1274 105.019 69.5453 102.394 71.1509 99.8799C71.9724 98.6353 72.8068 97.3991 73.7286 96.2264C74.6124 95.0253 75.6335 93.9315 76.771 92.9673Z" fill="#020202"/>
<path d="M117.84 57.2842C118.666 60.0865 119.464 62.9012 120.265 65.7182L120.156 65.5506C120.626 65.8956 121.083 66.2472 121.534 66.6153C121.999 66.9828 122.438 67.3825 122.848 67.8114C122.965 67.9344 123.068 68.0702 123.155 68.2162C123.184 68.2606 123.208 68.3072 123.228 68.3557C123.253 68.4288 123.27 68.504 123.282 68.5803C123.285 68.7189 123.252 68.8559 123.185 68.9777C123.007 69.2728 122.77 69.5286 122.489 69.7294C122.013 70.091 121.509 70.4161 120.984 70.7019L121.211 70.3477C121.129 72.1247 120.937 73.8947 120.634 75.6476C120.481 76.5394 120.264 77.4189 119.983 78.279C119.834 78.7291 119.644 79.1644 119.414 79.5794C119.159 80.0753 118.759 80.4821 118.268 80.746C118.121 80.8104 117.967 80.8576 117.81 80.8866L117.468 80.9383C117.241 80.9724 117.016 80.9947 116.792 81.0203L115.475 81.1399C114.666 81.1788 113.868 81.3434 113.11 81.6277C112.792 81.762 112.509 81.9675 112.282 82.2286C112.173 82.359 112.08 82.5024 112.007 82.6556L111.892 82.8961L111.774 83.1998C111.619 83.6048 111.467 84.0106 111.326 84.4148L111.129 85.0167L111.046 85.3071L111.014 85.4405L111.004 85.4932L111.001 85.5081C111.001 85.4992 111.002 85.5384 111.003 85.4485L110.287 84.8C112.747 84.633 115.216 84.6554 117.672 84.8669C120.145 85.0558 122.59 85.5102 124.966 86.2222C127.425 86.9136 129.68 88.1877 131.542 89.9364C131.777 90.161 131.997 90.4011 132.2 90.6552C132.41 90.896 132.602 91.1522 132.774 91.4218C133.114 91.948 133.52 92.4502 133.803 92.9972L134.717 94.6142L135.538 96.2642C136.609 98.4713 137.527 100.735 138.389 103.012C139.266 105.285 140.056 107.586 140.84 109.887C142.387 114.497 143.783 119.146 145.117 123.82L145.139 123.897L145.124 123.967C144.903 124.901 144.502 125.783 143.943 126.563C143.416 127.33 142.831 128.054 142.193 128.73C140.924 130.063 139.568 131.311 138.133 132.464C135.287 134.777 132.309 136.923 129.214 138.892L129.353 138.637L129.499 142.321C129.582 143.547 129.647 144.774 129.769 145.996C129.995 148.442 130.281 150.882 130.667 153.305C131.054 155.727 131.519 158.136 132.104 160.512C132.662 162.877 133.387 165.199 134.273 167.462L134.479 167.964L134.044 168.224C131.582 169.695 128.923 170.178 126.311 170.644C123.686 171.078 121.052 171.337 118.417 171.524C113.147 171.883 107.876 171.969 102.61 171.952C97.3444 171.93 92.0816 171.812 86.8267 171.548C81.5695 171.298 76.3238 170.983 71.0693 170.574L70.1957 170.506L70.2846 169.724L70.3528 169.124C70.3824 168.931 70.4311 168.789 70.47 168.619C70.5466 168.283 70.6505 167.988 70.748 167.683C70.9477 167.078 71.1636 166.494 71.3933 165.918C71.8444 164.761 72.3303 163.631 72.8387 162.512C73.8513 160.271 74.9092 158.066 76.0038 155.867L75.9597 155.978C76.5413 154.056 77.0889 152.12 77.489 150.149C77.9106 148.181 78.233 146.194 78.4551 144.194C78.6823 142.194 78.8069 140.182 78.8424 138.169C78.8871 136.163 78.7927 134.157 78.5599 132.164L79.0949 132.563C77.3576 132.737 75.6359 132.833 73.9035 132.889C72.1735 132.949 70.4427 132.932 68.7109 132.84C66.9793 132.767 65.2541 132.586 63.5454 132.296C61.8289 132.032 60.1544 131.544 58.5645 130.845L58.6342 130.692C60.2306 131.313 61.9013 131.723 63.6039 131.911C65.3038 132.124 67.0155 132.23 68.7287 132.228C70.442 132.248 72.156 132.178 73.8667 132.078C75.5747 131.972 77.2912 131.825 78.9761 131.605L79.4391 131.545L79.5112 132.005C79.8137 134.046 79.973 136.105 79.988 138.168C80.0227 140.224 79.943 142.279 79.7494 144.326C79.5595 146.373 79.2669 148.41 78.8727 150.429C78.4996 152.453 77.9759 154.445 77.4146 156.426L77.4018 156.472L77.3706 156.538C76.3282 158.731 75.3129 160.95 74.3539 163.179C73.8788 164.296 73.4011 165.411 72.9684 166.532C72.7478 167.091 72.5432 167.654 72.362 168.209C72.2747 168.486 72.1772 168.768 72.121 169.029C72.0925 169.157 72.0441 169.307 72.0307 169.416C72.021 169.519 72.0073 169.621 71.9895 169.724L71.2049 168.875C76.4255 169.261 81.6692 169.555 86.9063 169.784C92.1459 169.993 97.3853 170.204 102.625 170.272C107.863 170.342 113.104 170.309 118.32 170.006C120.926 169.859 123.53 169.655 126.096 169.275C128.635 168.888 131.264 168.389 133.362 167.189L133.133 167.95C132.281 165.601 131.598 163.194 131.09 160.747C130.563 158.323 130.161 155.879 129.824 153.428C129.493 150.976 129.262 148.514 129.092 146.05C129.001 144.818 128.964 143.583 128.885 142.351L128.769 138.65L128.764 138.484L128.908 138.395C130.45 137.437 131.969 136.421 133.455 135.37C134.942 134.317 136.406 133.231 137.799 132.059C139.2 130.906 140.523 129.661 141.759 128.332C142.369 127.672 142.926 126.966 143.426 126.22C143.927 125.506 144.286 124.703 144.483 123.853L144.49 124C143.085 119.368 141.513 114.779 139.854 110.233C138.222 105.691 136.36 101.236 134.274 96.8831L133.461 95.2829L132.571 93.7414C132.292 93.2107 131.919 92.7716 131.599 92.2816C131.445 92.0403 131.271 91.8117 131.08 91.5978C130.903 91.3791 130.711 91.1731 130.505 90.9813C128.786 89.4285 126.738 88.2853 124.514 87.6373C122.247 86.932 119.91 86.4723 117.544 86.2661C115.169 86.0355 112.779 85.9866 110.396 86.1201L109.664 86.1629L109.679 85.4714C109.678 85.424 109.682 85.3767 109.689 85.33L109.7 85.2635L109.722 85.1548L109.769 84.9685L109.87 84.6264L110.091 83.9791C110.243 83.5551 110.404 83.1401 110.568 82.7271L110.692 82.418L110.862 82.0644C110.984 81.8243 111.134 81.5997 111.309 81.3955C111.663 80.9931 112.104 80.6765 112.598 80.4696C113.488 80.1354 114.428 79.955 115.378 79.9361L116.688 79.8529C116.9 79.8345 117.114 79.8192 117.321 79.7936L117.632 79.7552C117.69 79.7455 117.748 79.7301 117.803 79.7091C118.085 79.5464 118.315 79.307 118.467 79.0186C118.671 78.6692 118.843 78.3019 118.98 77.9211C119.266 77.1177 119.493 76.2945 119.659 75.4581C120 73.756 120.235 72.0343 120.362 70.303L120.381 70.0572L120.589 69.9486C121.08 69.6982 121.552 69.4117 122.001 69.0915C122.193 68.9636 122.363 68.8049 122.503 68.6217C122.529 68.5828 122.513 68.601 122.522 68.6119C122.516 68.6177 122.517 68.625 122.523 68.6275C122.516 68.61 122.507 68.5931 122.497 68.5768C122.439 68.4743 122.371 68.3783 122.293 68.2905C121.925 67.8727 121.529 67.4808 121.106 67.1175C120.683 66.7409 120.244 66.3723 119.802 66.0179L119.717 65.9501L119.693 65.8501C119.013 63.016 118.332 60.1796 117.678 57.3309L117.84 57.2842Z" fill="#020202"/>
<path d="M113.998 65L114.43 65.3603C115.511 66.2605 117.12 66.098 117.998 65V65" stroke="black" stroke-linecap="round"/>
<path d="M77.2637 114.218L79.4564 132.042L78.6193 132.126L77.2637 114.218Z" fill="#020202"/>
<path d="M113.493 111.961C114.942 114.096 116.323 116.272 117.723 118.439C119.102 120.617 120.448 122.817 121.781 125.029C122.441 126.139 123.109 127.243 123.731 128.389C124.37 129.559 124.884 130.706 125.517 131.803C126.773 134.014 128.157 136.151 129.662 138.201L129.771 138.349L129.806 138.578C129.938 139.15 130.142 139.703 130.413 140.224C130.7 140.804 131.002 141.384 131.343 141.95C132.011 143.087 132.755 144.19 133.527 145.271C135.071 147.436 136.816 149.451 138.739 151.289C140.609 153.155 142.87 154.585 145.358 155.476C146.596 155.877 147.918 155.945 149.192 155.675C150.465 155.357 151.638 154.726 152.605 153.838C154.562 152.017 156.094 149.788 157.093 147.309C158.149 144.842 158.95 142.274 159.485 139.644C160.046 137.019 160.451 134.363 160.699 131.69C160.824 130.354 160.928 129.017 161 127.681C161.034 127.014 161.058 126.344 161.065 125.685C161.048 125.29 161.083 124.895 161.169 124.509C161.284 124.052 161.526 123.637 161.866 123.311C162.481 122.806 163.204 122.45 163.98 122.272L165.939 121.759C166.534 121.602 167.11 121.379 167.655 121.094C168.091 120.848 168.424 120.455 168.594 119.985C168.93 118.849 168.917 117.639 168.557 116.511C168.493 116.256 168.405 116.009 168.294 115.771C168.128 115.578 167.948 115.397 167.755 115.23C167.218 114.77 166.707 114.281 166.223 113.766C165.935 113.452 165.695 113.096 165.51 112.712C165.452 112.594 165.408 112.47 165.378 112.342L165.329 112.144L165.308 112.039C165.281 111.899 165.245 111.76 165.205 111.622C165.051 111.08 164.798 110.572 164.46 110.121C164.296 109.907 164.105 109.714 163.893 109.548C163.557 109.246 163.278 108.886 163.072 108.484C162.708 107.819 162.449 107.185 162.175 106.577C161.938 106.003 161.654 105.45 161.325 104.923C161.26 104.831 161.139 104.67 161.152 104.707C161.154 104.696 161.147 104.689 161.132 104.691C161.121 104.688 161.121 104.669 161.083 104.672C160.888 104.641 160.688 104.653 160.498 104.709C159.3 105.098 158.159 105.644 157.105 106.332L155.392 107.384C154.73 107.835 153.971 108.126 153.177 108.232C152.332 108.327 151.479 108.153 150.739 107.734C150.571 107.644 150.363 107.501 150.252 107.425C150.153 107.355 150.047 107.295 149.936 107.246C149.713 107.143 149.472 107.083 149.227 107.069C148.723 107.046 148.226 107.2 147.824 107.505C147.422 107.81 147.139 108.247 147.025 108.739C146.974 109.286 147.066 109.837 147.293 110.337C147.525 110.942 147.795 111.532 148.101 112.104C148.715 113.284 149.381 114.469 149.956 115.735C150.258 116.377 150.5 117.045 150.679 117.732C150.868 118.459 150.875 119.222 150.698 119.952C150.538 120.642 150.298 121.311 149.984 121.946C149.69 122.57 149.358 123.176 148.989 123.759C148.263 124.916 147.461 126.023 146.588 127.074L146.372 127.334L146.23 127.041L144.731 123.952L144.88 123.873L146.61 126.839L146.252 126.806C147.036 125.722 147.748 124.587 148.384 123.409C149.037 122.276 149.515 121.051 149.802 119.776C150.071 118.567 149.542 117.395 148.955 116.215C148.362 115.043 147.624 113.914 146.964 112.712C146.614 112.102 146.303 111.471 146.033 110.821C145.688 110.09 145.552 109.277 145.64 108.473C145.794 107.632 146.249 106.876 146.92 106.346C147.587 105.798 148.431 105.511 149.294 105.539C149.726 105.552 150.151 105.643 150.55 105.81C150.75 105.892 150.942 105.993 151.123 106.111C151.244 106.192 151.369 106.267 151.498 106.335C151.949 106.577 152.465 106.667 152.972 106.593C153.518 106.494 154.035 106.274 154.485 105.951L156.212 104.858C156.796 104.498 157.393 104.145 158.021 103.817C158.678 103.457 159.374 103.175 160.095 102.976C160.558 102.848 161.045 102.833 161.514 102.932C161.663 102.962 161.806 103.015 161.939 103.087C162.086 103.149 162.22 103.239 162.334 103.35C162.519 103.512 162.679 103.699 162.812 103.906C163.203 104.523 163.54 105.173 163.819 105.848C164.096 106.473 164.353 107.09 164.638 107.611C164.739 107.812 164.87 107.997 165.026 108.16C165.343 108.414 165.629 108.705 165.876 109.027C166.356 109.657 166.707 110.375 166.911 111.14C166.962 111.327 167.007 111.517 167.041 111.708L167.067 111.852L167.082 111.9C167.087 111.937 167.099 111.973 167.118 112.006C167.228 112.23 167.368 112.438 167.534 112.624C167.97 113.099 168.43 113.551 168.913 113.978C169.231 114.254 169.512 114.569 169.75 114.917C169.937 115.286 170.079 115.676 170.172 116.08C170.36 116.798 170.461 117.537 170.474 118.28C170.498 119.067 170.365 119.85 170.082 120.584C169.763 121.39 169.171 122.058 168.409 122.471C167.753 122.806 167.061 123.064 166.346 123.241C165.664 123.422 164.995 123.558 164.374 123.714C163.824 123.819 163.302 124.04 162.845 124.362C162.69 124.501 162.579 124.682 162.525 124.882C162.461 125.155 162.433 125.435 162.442 125.715C162.414 126.407 162.37 127.087 162.315 127.768C162.208 129.128 162.057 130.481 161.861 131.828C161.485 134.524 160.96 137.197 160.288 139.835C159.621 142.477 158.731 145.058 157.628 147.55C156.544 150.076 154.951 152.352 152.95 154.237C151.92 155.186 150.681 155.878 149.333 156.258C147.958 156.583 146.525 156.562 145.16 156.196C142.497 155.392 140.047 154.004 137.987 152.134C135.901 150.343 134.015 148.331 132.361 146.133C131.524 145.04 130.752 143.898 130.049 142.714C129.69 142.124 129.363 141.508 129.049 140.878C128.699 140.197 128.454 139.468 128.32 138.714L128.464 139.091C126.934 136.975 125.548 134.76 124.313 132.459C123.687 131.307 123.173 130.087 122.604 128.982C122.026 127.848 121.425 126.709 120.813 125.58L113.35 112.049L113.493 111.961Z" fill="#020202"/>
<path d="M146.424 126.938C146.839 127.941 147.309 128.921 147.832 129.871C148.346 130.822 148.918 131.74 149.546 132.62C150.163 133.495 150.86 134.311 151.627 135.059C152.377 135.787 153.238 136.393 154.177 136.854L154.189 136.859C154.239 136.883 154.284 136.916 154.321 136.957C154.358 136.998 154.387 137.045 154.406 137.097C154.425 137.149 154.433 137.204 154.43 137.26C154.428 137.315 154.415 137.369 154.391 137.419C154.368 137.469 154.335 137.514 154.294 137.551C154.253 137.589 154.205 137.617 154.153 137.636C154.101 137.655 154.046 137.663 153.991 137.661C153.936 137.658 153.881 137.645 153.831 137.621L153.807 137.609C152.824 137.05 151.936 136.338 151.176 135.5C150.436 134.681 149.773 133.795 149.196 132.853C148.62 131.924 148.101 130.96 147.644 129.966C147.182 128.98 146.774 127.97 146.424 126.938Z" fill="#020202"/>
<path d="M138.051 200.328C138.051 200.701 138.044 201.074 138.037 201.439C137.789 214.258 135.748 225.772 134.31 235H100.628C100.111 232.408 99.5609 229.829 99.0363 227.25C98.1517 222.899 97.3034 218.549 96.7843 214.176C96.2017 210.026 96.1329 205.819 96.5796 201.651C96.5808 201.63 96.5824 201.608 96.5843 201.586C95.4464 207.645 94.6242 212.829 94.876 214.425C95.4974 218.878 96.4479 223.25 97.4276 227.593C97.9856 230.066 98.5626 232.533 99.1085 235H76.6977C77.552 226.8 76.9039 217.326 76.0702 210.067C75.7465 207.26 75.2335 204.477 74.5348 201.739C74.3958 201.183 74.2496 200.635 74.0887 200.087C73.5184 198.061 72.8555 196.065 72.1 194.098C68.1444 183.796 71.1275 169.721 71.1275 169.721L128.817 167.864L128.963 167.857L133.694 167.703C136.812 178.29 138.282 189.294 138.051 200.328Z" fill="#020202"/>
<path d="M168.014 121.853C170.199 123.56 172.326 125.335 174.437 127.144C176.501 129.002 178.54 130.898 180.456 132.913C182.401 134.902 184.236 136.994 186.08 139.052C187.83 141.139 189.758 143.072 191.842 144.826C193.946 146.465 196.409 147.581 199.029 148.082C201.679 148.569 204.397 148.566 207.047 148.073C212.401 147.095 217.469 144.722 222.275 141.99C217.776 145.195 212.81 147.977 207.265 149.193C204.477 149.823 201.593 149.908 198.773 149.443C195.923 148.933 193.238 147.745 190.944 145.979C188.798 144.156 186.822 142.142 185.041 139.961C183.249 137.842 181.454 135.751 179.624 133.687C177.795 131.623 175.883 129.634 173.949 127.662C172.965 126.693 172.001 125.701 170.997 124.748C169.993 123.795 168.998 122.831 168.014 121.853Z" fill="#020202"/>
<path d="M138.553 105.146C139.275 105.075 140.003 105.106 140.716 105.237C141.409 105.357 142.089 105.539 142.749 105.78C143.411 106.018 144.049 106.316 144.656 106.67C145.287 107.029 145.864 107.475 146.37 107.996C145.65 107.992 144.934 107.906 144.234 107.74C143.56 107.587 142.897 107.391 142.249 107.153C141.6 106.917 140.967 106.64 140.353 106.324C139.711 106 139.107 105.605 138.553 105.146Z" fill="#020202"/>
<path d="M47.7102 135.67C47.6857 132.562 48.026 129.462 48.7244 126.434C49.0946 124.907 49.5887 123.414 50.2017 121.968C50.83 120.52 51.5821 119.129 52.4496 117.81C54.2137 115.19 56.4388 112.911 59.0166 111.086C61.5618 109.276 64.4037 107.926 67.414 107.096C64.6701 108.432 62.0848 110.072 59.7062 111.985C57.3757 113.886 55.3401 116.122 53.666 118.621C52.0089 121.133 50.715 123.868 49.8227 126.743C48.9607 129.679 48.2555 132.659 47.7102 135.67Z" fill="#020202"/>
<path d="M56.2821 125.439C56.2941 126.222 56.045 126.987 55.5741 127.613C55.3163 127.938 54.9842 128.197 54.6057 128.366C54.2272 128.536 53.8135 128.613 53.3993 128.589C52.5917 128.518 51.8417 128.141 51.3031 127.535C50.7592 126.963 50.4244 126.225 50.3531 125.439C50.3167 125.028 50.3685 124.614 50.5048 124.225C50.6412 123.836 50.859 123.481 51.1437 123.183C51.4318 122.873 51.7809 122.626 52.169 122.457C52.5572 122.288 52.9761 122.202 53.3993 122.203C53.8189 122.203 54.233 122.298 54.6109 122.48C54.9888 122.663 55.3207 122.928 55.5819 123.256C56.0518 123.885 56.2982 124.653 56.2821 125.439ZM56.2089 125.439C56.2018 125.078 56.1107 124.723 55.9428 124.403C55.775 124.083 55.5349 123.807 55.2417 123.596C54.7107 123.197 54.0639 122.981 53.3993 122.983C52.7451 122.986 52.1151 123.23 51.63 123.669C51.1362 124.136 50.8253 124.763 50.7535 125.439C50.7181 125.794 50.7643 126.152 50.8887 126.486C51.013 126.82 51.2121 127.122 51.4708 127.367C51.7326 127.597 52.039 127.77 52.3709 127.876C52.7029 127.981 53.053 128.017 53.3994 127.98C54.0697 127.932 54.712 127.692 55.2496 127.289C55.5422 127.076 55.7812 126.798 55.9477 126.477C56.1142 126.156 56.2036 125.8 56.2088 125.439H56.2089Z" fill="#020202"/>
<path d="M145.348 100.906C145.361 101.689 145.111 102.455 144.64 103.081C144.383 103.406 144.051 103.664 143.672 103.834C143.294 104.004 142.88 104.08 142.466 104.056C141.658 103.985 140.908 103.608 140.369 103.002C139.826 102.43 139.491 101.692 139.419 100.906C139.383 100.495 139.435 100.082 139.571 99.6928C139.708 99.3038 139.925 98.9484 140.21 98.6503C140.498 98.3402 140.847 98.0931 141.235 97.9243C141.624 97.7556 142.042 97.669 142.466 97.6699C142.885 97.6702 143.299 97.7651 143.677 97.9475C144.055 98.1298 144.387 98.395 144.648 98.7233C145.118 99.3526 145.365 100.121 145.348 100.906ZM145.275 100.906C145.268 100.545 145.177 100.19 145.009 99.8705C144.841 99.5507 144.601 99.2745 144.308 99.0636C143.777 98.6641 143.13 98.4486 142.466 98.4498C141.811 98.4531 141.182 98.6977 140.696 99.1366C140.203 99.6029 139.892 100.23 139.82 100.906C139.785 101.261 139.831 101.619 139.955 101.953C140.079 102.288 140.278 102.589 140.537 102.835C140.799 103.064 141.105 103.237 141.437 103.343C141.769 103.448 142.119 103.484 142.466 103.448C143.136 103.399 143.778 103.159 144.316 102.756C144.609 102.543 144.848 102.265 145.014 101.944C145.181 101.623 145.27 101.268 145.275 100.906Z" fill="#020202"/>
<path d="M177.18 133.486C177.192 134.269 176.943 135.035 176.472 135.661C176.215 135.986 175.882 136.244 175.504 136.414C175.126 136.584 174.712 136.66 174.298 136.636C173.49 136.565 172.74 136.188 172.201 135.582C171.658 135.011 171.323 134.272 171.252 133.486C171.215 133.075 171.267 132.662 171.403 132.273C171.54 131.884 171.757 131.528 172.042 131.23C172.33 130.92 172.679 130.673 173.067 130.504C173.456 130.336 173.875 130.249 174.298 130.25C174.717 130.25 175.131 130.345 175.509 130.528C175.887 130.71 176.219 130.975 176.48 131.303C176.95 131.933 177.197 132.701 177.18 133.486ZM177.107 133.486C177.1 133.125 177.009 132.77 176.841 132.451C176.673 132.131 176.433 131.855 176.14 131.644C175.609 131.244 174.962 131.029 174.298 131.03C173.644 131.033 173.013 131.278 172.528 131.717C172.034 132.183 171.724 132.811 171.652 133.486C171.616 133.841 171.663 134.199 171.787 134.533C171.911 134.868 172.11 135.169 172.369 135.415C172.631 135.644 172.937 135.817 173.269 135.923C173.601 136.028 173.951 136.064 174.298 136.028C174.968 135.98 175.61 135.739 176.148 135.336C176.441 135.124 176.68 134.846 176.846 134.524C177.013 134.203 177.102 133.848 177.107 133.486Z" fill="#020202"/>
<path d="M189.009 132.086C189.021 132.87 188.772 133.635 188.301 134.261C188.043 134.586 187.711 134.844 187.332 135.014C186.954 135.184 186.54 135.26 186.126 135.236C185.318 135.166 184.568 134.788 184.03 134.182C183.486 133.611 183.151 132.872 183.08 132.086C183.043 131.676 183.095 131.262 183.231 130.873C183.368 130.484 183.586 130.129 183.87 129.83C184.158 129.52 184.507 129.273 184.896 129.105C185.284 128.936 185.703 128.849 186.126 128.85C186.545 128.85 186.96 128.945 187.337 129.128C187.715 129.31 188.047 129.575 188.308 129.903C188.778 130.533 189.025 131.301 189.009 132.086ZM188.935 132.086C188.928 131.725 188.837 131.371 188.669 131.051C188.501 130.731 188.261 130.455 187.968 130.244C187.437 129.844 186.79 129.629 186.126 129.63C185.472 129.633 184.842 129.878 184.356 130.317C183.863 130.783 183.552 131.411 183.48 132.086C183.445 132.441 183.491 132.799 183.615 133.134C183.74 133.468 183.939 133.769 184.197 134.015C184.459 134.244 184.766 134.418 185.097 134.523C185.429 134.629 185.78 134.664 186.126 134.628C186.796 134.58 187.438 134.34 187.976 133.936C188.269 133.724 188.508 133.446 188.674 133.124C188.841 132.803 188.93 132.448 188.935 132.086H188.935Z" fill="#020202"/>
<path d="M206.954 153.483C206.966 154.266 206.717 155.032 206.246 155.658C205.988 155.983 205.656 156.241 205.278 156.411C204.899 156.581 204.485 156.657 204.071 156.633C203.264 156.563 202.514 156.185 201.975 155.579C201.431 155.008 201.096 154.269 201.025 153.483C200.989 153.073 201.04 152.659 201.177 152.27C201.313 151.881 201.531 151.526 201.816 151.227C202.104 150.917 202.453 150.67 202.841 150.501C203.229 150.333 203.648 150.246 204.071 150.247C204.491 150.247 204.905 150.342 205.283 150.525C205.661 150.707 205.993 150.972 206.254 151.3C206.724 151.93 206.97 152.698 206.954 153.483ZM206.881 153.483C206.874 153.122 206.783 152.767 206.615 152.448C206.447 152.128 206.207 151.852 205.914 151.641C205.383 151.241 204.736 151.026 204.071 151.027C203.417 151.03 202.787 151.275 202.302 151.714C201.808 152.18 201.497 152.808 201.425 153.483C201.39 153.838 201.436 154.196 201.561 154.53C201.685 154.865 201.884 155.166 202.143 155.412C202.404 155.641 202.711 155.814 203.043 155.92C203.375 156.026 203.725 156.061 204.071 156.025C204.742 155.977 205.384 155.736 205.921 155.333C206.214 155.121 206.453 154.843 206.62 154.521C206.786 154.2 206.875 153.845 206.881 153.483Z" fill="#020202"/>
<path d="M226.794 146.252C226.806 147.036 226.557 147.801 226.086 148.427C225.828 148.752 225.496 149.01 225.117 149.18C224.739 149.35 224.325 149.426 223.911 149.403C223.103 149.332 222.353 148.954 221.815 148.348C221.271 147.777 220.936 147.038 220.865 146.252C220.828 145.842 220.88 145.428 221.017 145.039C221.153 144.65 221.371 144.295 221.655 143.996C221.943 143.686 222.293 143.439 222.681 143.27C223.069 143.102 223.488 143.015 223.911 143.016C224.331 143.016 224.745 143.111 225.123 143.294C225.5 143.476 225.832 143.741 226.094 144.07C226.563 144.699 226.81 145.467 226.794 146.252ZM226.721 146.252C226.713 145.891 226.622 145.537 226.454 145.217C226.287 144.897 226.046 144.621 225.753 144.41C225.222 144.01 224.575 143.795 223.911 143.796C223.257 143.799 222.627 144.044 222.142 144.483C221.648 144.949 221.337 145.577 221.265 146.252C221.23 146.607 221.276 146.965 221.4 147.3C221.525 147.634 221.724 147.935 221.982 148.181C222.244 148.411 222.551 148.584 222.883 148.689C223.214 148.795 223.565 148.83 223.911 148.794C224.581 148.746 225.224 148.506 225.761 148.102C226.054 147.89 226.293 147.612 226.459 147.291C226.626 146.969 226.715 146.614 226.721 146.252Z" fill="#020202"/>
<path d="M53.4381 114.217C53.4502 115.001 53.2011 115.766 52.7301 116.392C52.4724 116.717 52.1403 116.975 51.7618 117.145C51.3834 117.315 50.9697 117.391 50.5556 117.368C49.7478 117.297 48.9978 116.92 48.4592 116.314C47.9153 115.742 47.5806 115.003 47.5093 114.217C47.473 113.807 47.5247 113.393 47.661 113.004C47.7973 112.615 48.0151 112.26 48.2998 111.962C48.5879 111.652 48.937 111.405 49.3252 111.236C49.7134 111.067 50.1323 110.981 50.5556 110.981C50.9751 110.982 51.3892 111.077 51.767 111.259C52.1449 111.441 52.4768 111.707 52.738 112.035C53.2079 112.664 53.4543 113.432 53.4381 114.217ZM53.3649 114.217C53.3579 113.856 53.2668 113.502 53.0989 113.182C52.9311 112.862 52.691 112.586 52.3978 112.375C51.8668 111.976 51.22 111.76 50.5556 111.761C49.9013 111.765 49.2713 112.009 48.7862 112.448C48.2923 112.914 47.9814 113.542 47.9095 114.217C47.8742 114.572 47.9205 114.931 48.0448 115.265C48.1691 115.599 48.3682 115.901 48.6268 116.146C48.8886 116.376 49.1951 116.549 49.5271 116.654C49.859 116.76 50.2092 116.796 50.5556 116.759C51.2258 116.711 51.8681 116.471 52.4056 116.068C52.6982 115.855 52.9373 115.577 53.1038 115.256C53.2703 114.935 53.3597 114.579 53.3649 114.217Z" fill="#020202"/>
<path d="M62.1176 117.519C63.6894 117.519 64.9636 116.245 64.9636 114.673C64.9636 113.101 63.6894 111.827 62.1176 111.827C60.5457 111.827 59.2715 113.101 59.2715 114.673C59.2715 116.245 60.5457 117.519 62.1176 117.519Z" fill="#020202"/>
<path d="M141.399 114.217C142.971 114.217 144.245 112.942 144.245 111.37C144.245 109.799 142.971 108.524 141.399 108.524C139.827 108.524 138.553 109.799 138.553 111.37C138.553 112.942 139.827 114.217 141.399 114.217Z" fill="#020202"/>
<path d="M174.711 124.696C176.283 124.696 177.557 123.422 177.557 121.85C177.557 120.278 176.283 119.004 174.711 119.004C173.139 119.004 171.865 120.278 171.865 121.85C171.865 123.422 173.139 124.696 174.711 124.696Z" fill="#020202"/>
<path d="M183.989 147.459C185.561 147.459 186.835 146.185 186.835 144.613C186.835 143.041 185.561 141.767 183.989 141.767C182.417 141.767 181.143 143.041 181.143 144.613C181.143 146.185 182.417 147.459 183.989 147.459Z" fill="#020202"/>
<path d="M212.063 145.485C213.635 145.485 214.909 144.21 214.909 142.639C214.909 141.067 213.635 139.792 212.063 139.792C210.491 139.792 209.217 141.067 209.217 142.639C209.217 144.21 210.491 145.485 212.063 145.485Z" fill="#020202"/>
<path d="M199.637 142.637C199.649 143.42 199.4 144.185 198.929 144.812C198.672 145.137 198.339 145.395 197.961 145.565C197.583 145.734 197.169 145.811 196.755 145.787C195.947 145.716 195.197 145.339 194.658 144.733C194.115 144.161 193.78 143.423 193.709 142.637C193.672 142.226 193.724 141.813 193.86 141.424C193.997 141.035 194.214 140.679 194.499 140.381C194.787 140.071 195.136 139.824 195.524 139.655C195.913 139.487 196.331 139.4 196.755 139.401C197.174 139.401 197.588 139.496 197.966 139.678C198.344 139.861 198.676 140.126 198.937 140.454C199.407 141.084 199.654 141.852 199.637 142.637ZM199.564 142.637C199.557 142.276 199.466 141.921 199.298 141.601C199.13 141.282 198.89 141.005 198.597 140.795C198.066 140.395 197.419 140.18 196.755 140.181C196.1 140.184 195.47 140.429 194.985 140.868C194.492 141.334 194.181 141.961 194.109 142.637C194.073 142.992 194.12 143.35 194.244 143.684C194.368 144.019 194.567 144.32 194.826 144.566C195.088 144.795 195.394 144.968 195.726 145.074C196.058 145.179 196.408 145.215 196.755 145.179C197.425 145.13 198.067 144.89 198.605 144.487C198.897 144.274 199.136 143.996 199.303 143.675C199.47 143.354 199.559 142.999 199.564 142.637Z" fill="#020202"/>
<path d="M43.8168 134.93C45.3886 134.93 46.6628 133.656 46.6628 132.084C46.6628 130.512 45.3886 129.238 43.8168 129.238C42.2449 129.238 40.9707 130.512 40.9707 132.084C40.9707 133.656 42.2449 134.93 43.8168 134.93Z" fill="#020202"/>
<path d="M42.9004 27.2197H214.91" stroke="#020202" stroke-width="10.2364" stroke-linecap="round" stroke-linejoin="round"/>
<path d="M47.9278 75.4901L48.2671 82.7829C48.3669 85.2731 48.4395 87.8096 48.4763 90.3479L48.4849 90.9399L47.876 90.9482C44.8112 90.99 41.7464 91.0219 38.6816 90.9878C35.6167 90.9519 32.5519 90.8123 29.4871 90.7235C26.4223 90.602 23.3575 90.5629 20.2927 90.573C17.2279 90.5708 14.1633 90.6648 11.0985 90.7483L10.7104 90.7589L10.6981 90.3479C10.6238 87.8802 10.5376 85.4126 10.499 82.9449C10.4407 80.4772 10.4158 78.0096 10.3885 75.5419L10.3809 74.8401L11.0985 74.8321C14.2041 74.7974 17.3241 74.7555 20.4392 74.7741C23.5531 74.79 26.6656 74.8304 29.752 74.9026C32.8409 74.9677 35.9139 75.0502 38.9414 75.1596C41.9783 75.2551 44.9837 75.3629 47.9278 75.4901ZM47.8244 75.5936L38.4219 75.9241C35.3197 76.0334 32.2633 76.1159 29.2224 76.1811C26.1794 76.2533 23.1623 76.2937 20.1464 76.3095C17.1319 76.3282 14.1223 76.2863 11.0985 76.2516L11.8081 75.5419C11.7808 78.0096 11.756 80.4773 11.6978 82.9449C11.659 85.4126 11.5728 87.8803 11.4988 90.3479L11.0985 89.9477C14.1633 90.0312 17.228 90.1252 20.2928 90.123C23.3576 90.1331 26.4224 90.0941 29.4872 89.9725C32.552 89.8837 35.6168 89.7441 38.6816 89.7082C41.7464 89.6741 44.8112 89.706 47.8761 89.7479L47.2761 90.3479C47.3129 87.9509 47.3855 85.552 47.4851 83.1069L47.8244 75.5936Z" fill="black"/>
<path d="M47.9454 90.2977C48.0411 91.4422 48.1081 92.6425 48.1952 93.8443L48.3926 97.5421C48.4367 98.7963 48.4959 100.057 48.5131 101.33C48.5384 102.601 48.5591 103.876 48.5434 105.148L48.5352 105.803L47.8936 105.798C46.3613 105.784 44.8288 105.702 43.2965 105.623C41.7642 105.556 40.2317 105.446 38.6994 105.409C37.1669 105.36 35.6346 105.365 34.1021 105.386C32.5698 105.41 31.0373 105.488 29.505 105.549L29.1262 105.563L29.1046 105.148C28.9761 102.682 28.8856 100.215 28.8333 97.7488C28.7997 95.2823 28.721 92.8159 28.7247 90.3494L28.726 89.5718L29.505 89.5692C32.6626 89.5585 35.8325 89.6536 38.9325 89.7862C40.4865 89.8469 42.0088 89.9445 43.5177 90.024C45.0315 90.0984 46.5024 90.2036 47.9454 90.2977ZM47.8421 90.4011L43.0756 90.6747L38.4661 90.9125C35.4365 91.0451 32.4768 91.1402 29.505 91.1295L30.2851 90.3494C30.2889 92.8159 30.2101 95.2823 30.1766 97.7488C30.1241 100.215 30.0337 102.682 29.9053 105.148L29.505 104.748C31.0374 104.808 32.5698 104.887 34.1022 104.91C35.6347 104.932 37.167 104.936 38.6995 104.888C40.2318 104.85 41.7643 104.741 43.2966 104.673C44.8289 104.594 46.3614 104.512 47.8937 104.499L47.2443 105.148C47.2286 103.954 47.2491 102.762 47.2746 101.567C47.2918 100.373 47.3508 99.1676 47.3949 97.9554L47.5925 94.2538L47.8421 90.4011Z" fill="black"/>
<path d="M47.9454 60.5501C48.0411 61.6947 48.1081 62.8949 48.1952 64.0967L48.3926 67.7946C48.4367 69.0488 48.4959 70.3096 48.5131 71.5827C48.5384 72.8534 48.5591 74.1285 48.5434 75.4005L48.5352 76.0558L47.8936 76.0502C46.3613 76.0367 44.8288 75.9549 43.2965 75.8759C41.7642 75.8082 40.2317 75.6986 38.6994 75.6612C37.1669 75.6129 35.6346 75.617 34.1021 75.6384C32.5698 75.662 31.0373 75.7408 29.505 75.8009L29.1262 75.8158L29.1046 75.4005C28.9761 72.9341 28.8856 70.4676 28.8333 68.0012C28.7997 65.5348 28.721 63.0683 28.7247 60.6018L28.726 59.8243L29.505 59.8216C32.6626 59.8109 35.8325 59.906 38.9325 60.0387C40.4865 60.0993 42.0088 60.1969 43.5177 60.2765C45.0315 60.3508 46.5024 60.456 47.9454 60.5501ZM47.8421 60.6535L43.0756 60.9271L38.4661 61.1649C35.4365 61.2976 32.4768 61.3927 29.505 61.3819L30.2851 60.6019C30.2888 63.0683 30.2101 65.5348 30.1765 68.0012C30.1241 70.4677 30.0336 72.9342 29.9052 75.4006L29.505 75.0004C31.0373 75.0605 32.5698 75.1393 34.1021 75.1629C35.6346 75.1842 37.1669 75.1884 38.6994 75.1401C40.2317 75.1027 41.7642 74.9932 43.2965 74.9254C44.8288 74.8464 46.3613 74.7645 47.8936 74.7511L47.2442 75.4006C47.2285 74.2062 47.249 73.0148 47.2746 71.819C47.2917 70.6257 47.3508 69.42 47.3949 68.2078L47.5925 64.5063L47.8421 60.6535Z" fill="black"/>
<path d="M209.979 171.214L210.318 178.727C210.418 181.172 210.491 183.571 210.527 185.968L209.927 185.368C212.992 185.326 216.057 185.294 219.122 185.328C222.187 185.364 225.251 185.504 228.316 185.593C231.381 185.714 234.446 185.753 237.511 185.743C240.576 185.745 243.64 185.651 246.705 185.568L246.305 185.968C246.231 183.5 246.144 181.033 246.106 178.565C246.048 176.097 246.023 173.63 245.995 171.162L246.705 171.872C243.681 171.906 240.672 171.948 237.657 171.93C234.641 171.914 231.624 171.873 228.581 171.801C225.54 171.736 222.484 171.654 219.382 171.544L209.979 171.214ZM209.876 171.11C212.82 170.983 215.825 170.875 218.862 170.78C221.889 170.67 224.962 170.588 228.051 170.523C231.138 170.45 234.25 170.41 237.364 170.394C240.479 170.376 243.599 170.417 246.705 170.452L247.423 170.46L247.415 171.162C247.387 173.63 247.363 176.097 247.304 178.565C247.266 181.033 247.179 183.5 247.105 185.968L247.093 186.379L246.705 186.368C243.64 186.285 240.575 186.191 237.511 186.193C234.446 186.183 231.381 186.222 228.316 186.344C225.251 186.432 222.187 186.572 219.122 186.608C216.057 186.642 212.992 186.61 209.927 186.568L209.318 186.56L209.327 185.968C209.364 183.43 209.437 180.893 209.536 178.403L209.876 171.11Z" fill="black"/>
<path d="M209.974 186.017L210.224 189.87L210.422 193.572C210.466 194.784 210.525 195.989 210.542 197.183C210.567 198.379 210.588 199.57 210.572 200.764L209.923 200.115C211.455 200.128 212.988 200.21 214.52 200.289C216.052 200.357 217.585 200.466 219.117 200.504C220.65 200.552 222.182 200.548 223.714 200.527C225.247 200.503 226.779 200.424 228.311 200.364L227.911 200.764C227.783 198.298 227.692 195.831 227.64 193.365C227.607 190.899 227.528 188.432 227.531 185.966L228.311 186.746C225.34 186.756 222.38 186.661 219.35 186.529L214.741 186.291L209.974 186.017ZM209.871 185.914C211.314 185.82 212.785 185.715 214.299 185.64C215.808 185.561 217.33 185.463 218.884 185.402C221.984 185.27 225.154 185.175 228.311 185.185L229.091 185.188L229.092 185.966C229.095 188.432 229.017 190.899 228.983 193.365C228.931 195.831 228.84 198.298 228.712 200.764L228.69 201.18L228.311 201.165C226.779 201.105 225.247 201.026 223.714 201.002C222.182 200.981 220.65 200.977 219.117 201.025C217.585 201.062 216.052 201.172 214.52 201.24C212.988 201.319 211.455 201.401 209.923 201.414L209.281 201.42L209.273 200.764C209.257 199.492 209.278 198.217 209.304 196.947C209.321 195.673 209.38 194.413 209.424 193.158L209.621 189.461C209.708 188.259 209.775 187.058 209.871 185.914Z" fill="black"/>
<path d="M209.974 156.282L210.224 160.135L210.422 163.836C210.466 165.048 210.525 166.254 210.542 167.447C210.567 168.643 210.588 169.835 210.572 171.029L209.923 170.379C211.455 170.393 212.988 170.475 214.52 170.554C216.052 170.622 217.585 170.731 219.117 170.769C220.65 170.817 222.182 170.813 223.714 170.791C225.247 170.768 226.779 170.689 228.311 170.629L227.911 171.029C227.783 168.563 227.692 166.096 227.64 163.63C227.607 161.163 227.528 158.697 227.531 156.23L228.311 157.01C225.34 157.021 222.38 156.926 219.35 156.793L214.741 156.556L209.974 156.282ZM209.871 156.178C211.314 156.084 212.785 155.979 214.299 155.905C215.808 155.825 217.33 155.728 218.884 155.667C221.984 155.534 225.154 155.439 228.311 155.45L229.091 155.453L229.092 156.23C229.095 158.697 229.017 161.163 228.983 163.63C228.931 166.096 228.84 168.563 228.712 171.029L228.69 171.444L228.311 171.429C226.779 171.369 225.247 171.29 223.714 171.267C222.182 171.245 220.65 171.241 219.117 171.29C217.585 171.327 216.052 171.437 214.52 171.504C212.988 171.583 211.455 171.665 209.923 171.679L209.281 171.684L209.273 171.029C209.257 169.757 209.278 168.482 209.304 167.211C209.321 165.938 209.38 164.677 209.424 163.423L209.621 159.725C209.708 158.523 209.775 157.323 209.871 156.178Z" fill="black"/>
<path d="M75.1551 30.2646C75.3531 32.6544 75.0435 35.0589 74.2468 37.3206C73.45 39.5822 72.184 41.6499 70.5319 43.3878C68.8531 45.1736 66.8268 46.5971 64.5776 47.5708C62.3142 48.5499 59.8744 49.0552 57.4084 49.0557C54.9423 49.0561 52.5023 48.5517 50.2386 47.5734C47.9891 46.5994 45.9626 45.1758 44.2834 43.39C42.6307 41.6521 41.3646 39.5841 40.5681 37.3219C39.7717 35.0597 39.463 32.6546 39.6623 30.2647C40.0591 34.8269 42.1133 39.0859 45.4367 42.2365C48.6828 45.2752 52.9629 46.9661 57.4093 46.9665C61.8558 46.9669 66.1361 45.2768 69.3828 42.2387C72.7071 39.088 74.7607 34.8278 75.1551 30.2646Z" fill="#020202"/>
<path d="M110.651 30.2646C110.849 32.6544 110.54 35.059 109.743 37.3206C108.946 39.5823 107.68 41.6499 106.028 43.3878C104.349 45.1736 102.323 46.5971 100.074 47.5708C97.8105 48.5499 95.3706 49.0552 92.9046 49.0557C90.4385 49.0561 87.9985 48.5517 85.7348 47.5734C83.4854 46.5994 81.4588 45.1758 79.7796 43.39C78.127 41.6521 76.8608 39.5841 76.0643 37.3219C75.2679 35.0597 74.9591 32.6546 75.1584 30.2647C75.5553 34.8269 77.6095 39.0858 80.9329 42.2366C84.1791 45.2752 88.4591 46.9661 92.9055 46.9665C97.3519 46.9669 101.632 45.2768 104.879 42.2387C108.203 39.0881 110.257 34.8278 110.651 30.2646Z" fill="#020202"/>
<path d="M146.136 30.2646C146.334 32.6544 146.024 35.0589 145.227 37.3206C144.43 39.5823 143.164 41.6499 141.512 43.3878C139.834 45.1736 137.807 46.5971 135.558 47.5708C133.295 48.5499 130.855 49.0552 128.389 49.0557C125.923 49.0561 123.483 48.5517 121.219 47.5734C118.97 46.5994 116.943 45.1757 115.264 43.39C113.611 41.652 112.345 39.584 111.549 37.3219C110.752 35.0597 110.443 32.6546 110.643 30.2647C111.04 34.827 113.094 39.0859 116.417 42.2366C119.663 45.2752 123.943 46.9661 128.39 46.9665C132.836 46.9669 137.117 45.2768 140.363 42.2387C143.688 39.088 145.741 34.8278 146.136 30.2646Z" fill="#020202"/>
<path d="M181.741 30.2646C181.939 32.6544 181.629 35.0589 180.833 37.3206C180.036 39.5822 178.77 41.6499 177.118 43.3878C175.439 45.1736 173.413 46.5971 171.164 47.5708C168.9 48.5499 166.46 49.0552 163.994 49.0557C161.528 49.0561 159.088 48.5517 156.825 47.5734C154.575 46.5994 152.549 45.1758 150.869 43.39C149.217 41.6521 147.95 39.5841 147.154 37.3219C146.358 35.0597 146.049 32.6546 146.248 30.2647C146.645 34.8269 148.699 39.0859 152.023 42.2365C155.269 45.2752 159.549 46.9661 163.995 46.9665C168.442 46.9669 172.722 45.2768 175.969 42.2387C179.293 39.088 181.347 34.8278 181.741 30.2646Z" fill="#020202"/>
<path d="M217.253 30.2646C217.451 32.6544 217.141 35.0589 216.344 37.3206C215.548 39.5822 214.282 41.6499 212.629 43.3878C210.951 45.1736 208.925 46.5971 206.675 47.5708C204.412 48.5499 201.972 49.0552 199.506 49.0557C197.04 49.0561 194.6 48.5517 192.336 47.5734C190.087 46.5994 188.06 45.1757 186.381 43.39C184.728 41.652 183.462 39.584 182.666 37.3219C181.869 35.0597 181.561 32.6546 181.76 30.2647C182.157 34.827 184.211 39.0859 187.534 42.2365C190.781 45.2752 195.061 46.9661 199.507 46.9665C203.953 46.9669 208.234 45.2768 211.48 42.2387C214.805 39.088 216.858 34.8278 217.253 30.2646Z" fill="#020202"/>
<path d="M79.158 37.287C79.158 39.4961 77.3672 46.2495 75.1581 46.2495C72.949 46.2495 71.1582 39.4961 71.1582 37.287C71.1596 36.2271 71.5817 35.2111 72.3316 34.4621C73.0816 33.7132 74.0982 33.2925 75.1581 33.2925C76.218 33.2925 77.2346 33.7132 77.9845 34.4621C78.7345 35.2111 79.1566 36.2271 79.158 37.287Z" fill="#020202"/>
<path d="M114.646 37.287C114.646 39.4961 112.855 46.2495 110.646 46.2495C108.437 46.2495 106.646 39.4961 106.646 37.287C106.648 36.2271 107.07 35.2111 107.82 34.4621C108.57 33.7132 109.586 33.2925 110.646 33.2925C111.706 33.2925 112.723 33.7132 113.473 34.4621C114.223 35.2111 114.645 36.2271 114.646 37.287Z" fill="#020202"/>
<path d="M150.267 37.287C150.267 39.4961 148.477 46.2495 146.267 46.2495C144.058 46.2495 142.268 39.4961 142.268 37.287C142.269 36.2271 142.691 35.2111 143.441 34.4621C144.191 33.7132 145.208 33.2925 146.267 33.2925C147.327 33.2925 148.344 33.7132 149.094 34.4621C149.844 35.2111 150.266 36.2271 150.267 37.287Z" fill="#020202"/>
<path d="M185.752 37.287C185.752 39.4961 183.961 46.2495 181.752 46.2495C179.543 46.2495 177.752 39.4961 177.752 37.287C177.753 36.2271 178.175 35.2111 178.925 34.4621C179.675 33.7132 180.692 33.2925 181.752 33.2925C182.812 33.2925 183.828 33.7132 184.578 34.4621C185.328 35.2111 185.75 36.2271 185.752 37.287Z" fill="#020202"/>
<path d="M221.24 37.2841C221.24 39.4932 219.449 46.2466 217.24 46.2466C215.031 46.2466 213.24 39.4932 213.24 37.2841C213.24 36.2232 213.662 35.2059 214.412 34.4557C215.162 33.7056 216.179 33.2842 217.24 33.2842C218.301 33.2842 219.318 33.7056 220.069 34.4557C220.819 35.2059 221.24 36.2232 221.24 37.2841Z" fill="#020202"/>
<path d="M43.6619 37.287C43.6619 39.4961 41.8711 46.2495 39.662 46.2495C37.4529 46.2495 35.6621 39.4961 35.6621 37.287C35.6635 36.2271 36.0856 35.2111 36.8356 34.4621C37.5855 33.7132 38.6021 33.2925 39.662 33.2925C40.7219 33.2925 41.7385 33.7132 42.4885 34.4621C43.2384 35.2111 43.6605 36.2271 43.6619 37.287Z" fill="#020202"/>
<path d="M132.838 52.0082C132.838 54.2173 131.047 60.9707 128.838 60.9707C126.629 60.9707 124.838 54.2173 124.838 52.0082C124.838 50.9474 125.259 49.93 126.009 49.1798C126.76 48.4297 127.777 48.0083 128.838 48.0083C129.899 48.0083 130.916 48.4297 131.666 49.1798C132.416 49.93 132.838 50.9474 132.838 52.0082Z" fill="#020202"/>
<path d="M95.2205 52.0092C95.2205 54.2183 93.4297 60.9717 91.2206 60.9717C89.0115 60.9717 87.2207 54.2183 87.2207 52.0092C87.22 51.4835 87.3229 50.9628 87.5236 50.4769C87.7243 49.9909 88.0188 49.5494 88.3903 49.1774C88.7618 48.8054 89.203 48.5103 89.6887 48.3089C90.1743 48.1075 90.6949 48.0039 91.2206 48.0039C91.7463 48.0039 92.2669 48.1075 92.7526 48.3089C93.2382 48.5103 93.6794 48.8054 94.0509 49.1774C94.4224 49.5494 94.7169 49.9909 94.9176 50.4769C95.1183 50.9628 95.2212 51.4835 95.2205 52.0092Z" fill="#020202"/>
<path d="M168.451 52.0082C168.451 54.2173 166.66 60.9707 164.451 60.9707C162.242 60.9707 160.451 54.2173 160.451 52.0082C160.451 50.9474 160.873 49.93 161.623 49.1798C162.373 48.4297 163.39 48.0083 164.451 48.0083C165.512 48.0083 166.529 48.4297 167.279 49.1798C168.03 49.93 168.451 50.9474 168.451 52.0082Z" fill="#020202"/>
<path d="M203.955 52.0082C203.955 54.2173 202.164 60.9707 199.955 60.9707C197.746 60.9707 195.955 54.2173 195.955 52.0082C195.955 50.9474 196.376 49.93 197.127 49.1798C197.877 48.4297 198.894 48.0083 199.955 48.0083C201.016 48.0083 202.033 48.4297 202.783 49.1798C203.533 49.93 203.955 50.9474 203.955 52.0082H203.955Z" fill="#020202"/>
<path d="M61.865 52.0082C61.865 54.2173 60.0742 60.9707 57.8651 60.9707C55.656 60.9707 53.8652 54.2173 53.8652 52.0082C53.8652 50.9474 54.2866 49.93 55.0368 49.1798C55.7869 48.4297 56.8043 48.0083 57.8651 48.0083C58.926 48.0083 59.9434 48.4297 60.6935 49.1798C61.4436 49.93 61.865 50.9474 61.865 52.0082Z" fill="#020202"/>
</g>
</svg>
