<svg width="349" height="236" viewBox="0 0 349 236" fill="none" xmlns="http://www.w3.org/2000/svg">
<rect x="2.71094" width="346" height="235" rx="28" fill="#E6647F"/>
<mask id="mask0_4697_21621" style="mask-type:alpha" maskUnits="userSpaceOnUse" x="3" y="0" width="346" height="235">
<rect x="3" width="346" height="235" rx="28" fill="#5906FF"/>
</mask>
<g mask="url(#mask0_4697_21621)">
<rect x="-114" y="115.651" width="444.66" height="304.54" transform="rotate(-72.3169 -114 115.651)" fill="#FFA8BB"/>
</g>
<path d="M1.21094 141.506L27.7109 128.506L42.7109 122.006L54.2109 118.006L64.7109 119.006L70.2109 109.006L75.2109 101.006L78.7109 95.5059C78.7109 95.5059 71.8808 88.668 70.2109 83.0059C68.6644 77.7618 69.6107 74.4402 70.2109 69.0059C70.8039 63.6378 70.7532 60.3149 73.2109 55.5059C75.4181 51.187 81.2109 46.0059 81.2109 46.0059C81.2109 46.0059 86.4455 40.0728 90.7109 37.5059C95.1563 34.8306 98.0828 33.7932 103.211 33.0059C107.264 32.3836 109.63 32.6105 113.711 33.0059C120.547 33.6681 125.146 33.4816 130.711 37.5059C133.734 39.6919 137.211 44.5059 137.211 44.5059C137.211 44.5059 139.588 37.943 142.711 35.0059C145.322 32.5499 147.347 31.7433 150.711 30.5059C152.978 29.6721 154.297 29.0953 156.711 29.0059C159.21 28.9133 159.892 30.2575 159.481 32.3586L159.711 32.0059C159.711 32.0059 161.272 29.8279 162.711 29.0059C165.423 27.4558 167.694 28.1925 170.711 29.0059C171.385 29.1875 171.928 29.4417 172.355 29.7592C173.107 29.4255 173.892 29.1706 174.711 29.0059C178.348 28.2741 180.614 28.0979 184.211 29.0059C186.007 29.4592 187.063 30.3235 187.537 31.4879C190.219 30.8128 192.41 31.5361 193.711 32.0059C197.626 33.1638 199.046 34.2296 200.211 37.5059C201.376 40.7822 193.711 43.5059 193.711 43.5059L223.711 33.0059L236.211 28.0059C236.211 28.0059 238.33 27.5301 239.711 27.5059C241.285 27.4783 242.27 27.3723 243.711 28.0059C245.107 28.6196 245.667 29.3946 246.711 30.5059C247.861 31.7299 248.397 32.5366 249.211 34.0059C249.932 35.3066 250.188 36.1138 250.711 37.5059C251.145 38.6619 251.711 40.5059 251.711 40.5059L252.211 42.5059C252.211 42.5059 253.94 40.5683 255.211 39.5059C255.96 38.8798 256.362 38.4884 257.211 38.0059C258.125 37.4862 258.724 37.3699 259.711 37.0059C260.87 36.5784 261.539 36.3964 262.711 36.0059L265.711 35.0059L268.711 34.0059C268.711 34.0059 279.572 26.9682 287.211 27.5059C288.588 27.6028 289.388 27.6108 290.711 28.0059C292.637 28.5812 293.609 29.2908 295.211 30.5059L295.326 30.5928C296.798 31.7093 297.716 32.4053 298.711 34.0059C299.592 35.4228 299.732 36.4079 300.211 38.0059C300.728 39.7302 300.887 40.7351 301.211 42.5059C301.987 46.7489 302.262 49.1927 302.211 53.5059C302.124 60.8582 298.711 72.0059 298.711 72.0059C298.711 72.0059 296.14 78.6468 293.211 82.0059C290.464 85.1553 288.626 87.0439 284.711 88.5059C283.203 89.0692 282.304 89.2727 280.711 89.5059C278.392 89.8452 277.019 89.9102 274.711 89.5059C273.311 89.2606 271.211 88.5059 271.211 88.5059H243.711C243.711 88.5059 240.88 91.5245 238.711 93.0059C237.411 93.8936 236.621 94.8006 235.211 95.5C233.879 96.1607 233.196 96.4373 231.711 96.5059C230.044 96.5828 228.785 96.0524 227.211 95.5C226.046 95.0911 225.753 94.6689 224.711 94.0059C223.779 93.4129 223.45 92.8264 222.711 92.0059C221.874 91.0771 220.711 89.5059 220.711 89.5059H216.211L208.711 115.006L196.211 154.506L191.211 169.506L182.211 193.506V204.006L174.711 234.506H4.71094C-0.289062 234.506 1.21094 141.506 1.21094 141.506Z" fill="#151414" stroke="black"/>
<path d="M157.141 29.6099C150.602 29.8838 146.51 32.648 143.917 37.6117C142.06 41.1805 140.399 44.8605 138.713 48.5233C119.3 90.6892 103.158 134.404 79.2342 174.439C77.8391 176.775 78.19 178.068 80.0559 179.788C93.203 191.923 106.324 204.076 119.292 216.391C122.082 219.035 123.092 217.957 124.624 215.295C130.273 205.462 135.555 195.441 139.74 184.906C156.987 141.542 171.238 97.1249 185.738 52.811C187.886 46.2298 189.726 40.0765 197.798 38.7243C200.751 38.228 200.982 36.619 198.757 34.5137C196.856 32.7251 194.871 31.6125 192.132 31.6296C185.764 31.6724 181.741 34.8903 179.173 40.4531C176.434 46.3838 173.609 52.2633 170.742 58.1256C170.134 59.358 169.74 61.4375 167.541 60.2908C165.709 59.3323 166.805 57.9544 167.412 56.8589C172.548 47.5905 175.064 36.8415 183.401 29.2334C177.024 28.5487 174.534 29.3275 171.555 34.2398C167.481 40.9665 163.946 48.0184 160.077 54.8649C159.332 56.1743 159.195 59.0242 156.867 57.9715C154.188 56.7563 156.208 54.6595 157.004 53.1276C161.061 45.3654 165.213 37.6631 169.398 29.8067C164.357 28.814 160.89 30.9193 158.562 34.8646C155.147 40.6499 152.04 46.6149 148.736 52.4687C148.043 53.6925 147.606 55.7721 145.483 54.7109C143.232 53.5898 144.859 52.0578 145.5 50.8683C149.224 43.9533 153.024 37.0897 157.124 29.627L157.141 29.6099Z" fill="white"/>
<path d="M137.97 198.65C138.868 198.505 140.512 198.248 142.566 197.974C160.035 195.629 168.766 194.525 174.595 194.037C179.576 193.618 181.785 191.504 183.565 187.097C190.421 170.177 196.293 152.933 201.531 135.474C205.819 121.19 209.774 106.813 214.284 91.0488C202.875 91.0488 192.501 91.3141 182.144 90.9204C177.984 90.7664 176.581 92.3411 175.357 95.944C167.944 117.742 159.274 139.12 152.743 161.191C150.107 170.117 145.63 183.186 137.961 198.65H137.97Z" fill="white"/>
<path d="M99.7108 72.5468C97.9733 70.724 96.6894 69.038 95.0802 67.7629C92.384 65.6233 89.3027 64.3995 86.0758 66.5989C82.8917 68.7641 81.8047 71.8108 82.9431 75.6363C83.5594 77.6988 84.2527 79.7699 85.7933 81.2076C87.4966 82.7995 87.4966 84.2544 87.5394 84.3485C89.8676 89.5946 79.3482 100.361 71.0028 114.251C70.164 115.654 68.7689 118.042 69.3081 120.738C69.8559 123.493 71.9786 124.4 76.2326 128.183C77.3881 129.21 81.9245 133.318 85.2199 138.085C86.6407 140.139 88.481 143.263 89.9446 147.61C90.9033 145.77 91.5366 144.632 92.1016 143.459C104.564 117.511 115.854 91.0409 127.657 64.8017C129.882 59.8466 129.061 58.8453 123.805 59.2475C120.253 59.5214 116.487 58.7768 113.021 57.7755C110.153 56.9454 108.792 57.8269 107.448 60.0948C105.035 64.1856 102.441 68.1651 99.7108 72.5383V72.5468Z" fill="white"/>
<path d="M223.451 33.8789C213.393 37.4562 204.415 40.7767 195.333 43.8149C192.517 44.7563 191.55 46.699 190.771 49.1466C187.664 58.8258 184.497 68.4879 181.364 78.1586C178.377 87.3757 178.377 87.4613 187.835 87.5469C198.474 87.641 209.122 87.5725 219.753 87.5725C209.328 69.2838 213.051 51.8595 223.451 33.8789Z" fill="white"/>
<path d="M72.6257 73.1464C72.5316 77.8619 73.961 82.1666 76.0238 86.3601C77.496 89.364 78.6857 88.8848 81.0224 86.9421C84.3349 84.1863 81.8441 82.2522 80.74 80.0956C78.1465 75.0634 77.7014 70.1339 81.6301 65.6409C84.8485 61.9609 89.539 60.1124 93.4934 62.928C99.502 67.2156 101.471 63.6383 103.782 59.2822C104.501 57.93 105.511 56.7319 106.17 55.3541C107.419 52.7524 108.977 52.5555 111.673 53.5654C116.544 55.3797 121.696 55.7306 126.952 55.645C132.25 55.5509 133.457 51.8196 134.963 48.1224C136.418 44.5537 133.525 42.8849 131.565 40.9593C129.203 38.6401 126.19 37.3307 123.04 36.3465C100.101 29.1919 72.8996 49.0467 72.6172 73.1464H72.6257Z" fill="white"/>
<path d="M242.57 87.4378H268.753C258.747 69.055 262.12 51.6478 272.323 34.0352C268.651 35.3189 265.852 36.6454 262.899 37.253C256.556 38.5539 253.595 41.3609 255.931 48.3015C256.796 50.869 256.163 54.0269 255.854 56.8853C254.682 67.7627 251.087 77.7244 242.57 87.4378Z" fill="white"/>
<path d="M217.328 63.5352C217.226 70.9722 218.09 77.3736 221.788 83.0477C225.588 88.8843 231.434 90.2194 237.203 86.4367C244.624 81.5671 248.125 74.1815 250.564 65.0927C238.829 71.9649 228.25 71.5627 217.337 63.5352H217.328Z" fill="white"/>
<path d="M266.849 64.45C266.078 71.442 267.379 77.3556 270.615 82.7643C273.722 87.9676 278.943 90.0301 283.864 87.6681C293.091 83.2521 296.815 74.9165 299.913 64.4756C288.204 71.8099 277.753 71.6388 266.857 64.4414L266.849 64.45Z" fill="white"/>
<path d="M268.555 51.494C279.981 45.2893 290.621 43.3295 301.345 51.8705C301.645 45.8114 300.387 40.8391 298.016 36.2092C293.933 28.2244 286.324 26.7268 279.511 32.6148C274.016 37.3559 270.66 43.4836 268.555 51.5025V51.494Z" fill="white"/>
<path d="M252.159 51.0048C252.108 44.4921 251.038 38.9378 247.623 34.0854C243.702 28.514 237.685 27.3929 232.113 31.3553C225.137 36.319 221.517 43.4137 219.266 52.1002C232.618 44.4664 240.578 44.2011 252.159 51.0048Z" fill="white"/>
<path d="M234.334 50.1914C229.678 50.7648 226.289 51.8602 223.37 54.0853C219.099 57.346 219.219 60.8976 223.764 63.5164C227.23 65.5104 231.005 66.5289 236.063 66.1266C230.748 61.2656 230.174 56.2506 234.334 50.1914Z" fill="white"/>
<path d="M284.446 66.3093C279.507 61.1231 278.651 56.1166 282.734 50.3398C278.189 50.511 274.722 51.983 271.675 54.3536C267.652 57.4944 267.84 60.9434 272.206 63.5194C275.561 65.4963 279.293 66.335 284.446 66.3093Z" fill="white"/>
<path d="M86.7191 150.988C79.923 129.173 70.1654 124.697 66.074 123.456C49.8455 118.553 25.092 135.207 9.67665 141.874C9.5397 141.933 4.55818 144.09 4.55818 144.09C4.55818 144.09 2.84632 159.007 2.71793 174.797C2.63233 184.75 3.3342 191.339 4.74649 204.519C4.92623 206.213 5.15733 208.276 5.90199 210.92C5.90199 210.92 8.45267 220.052 15.8308 227.463C25.0834 236.766 44.573 236.193 63.258 235.842C75.0185 235.619 94.1229 235.354 119.15 235.414C120.922 231.674 122.702 227.934 124.474 224.194C114.913 216.586 107.621 210.869 103.367 207.54C94.6707 200.736 87.652 191.956 78.9815 185.126C77.261 183.774 73.6918 181.027 73.5976 177.236C73.5634 175.832 74.0171 174.797 76.6448 169.884C78.6134 166.204 79.5977 164.373 81.0271 161.865C82.4908 159.298 84.4937 155.626 86.7362 150.988H86.7191Z" fill="white"/>
<path d="M58.2646 34C55.2842 34.6247 52.9797 36.0687 53.0001 39.4993C53.0104 42.5818 54.7413 44.4968 57.8652 44.6504C61.1939 44.8041 63.3345 43.0324 63.4984 39.7041C63.6623 36.3349 61.4397 34.6964 58.2646 34Z" fill="white"/>
<path d="M59.3689 7.00117C58.8772 6.99093 52.5271 6.94996 49.5056 11.7017C48.041 14.0059 48 16.4329 48 17.3956C48.0205 23.3864 51.3697 27.0936 57.4331 27.3803C63.8959 27.6876 68.044 24.2467 68.3615 17.7847C68.4128 16.8323 68.4742 14.5077 67.1325 12.1216C64.787 7.9638 60.0858 7.12404 59.3586 7.01139L59.3689 7.00117Z" fill="white"/>
<path d="M138.108 200.952C140.573 199.72 139.871 200.721 153.994 198.641C172.448 195.928 177.438 193.661 180.066 196.596C181.598 198.299 180.562 203.28 178.44 213.164C176.043 224.29 172.876 235.347 172.876 235.347C172.876 235.347 158.753 235.33 144.365 235.347C144.365 235.347 141.506 235.347 119.141 235.416C130.67 204.692 138.108 200.952 138.108 200.952Z" fill="white"/>
</svg>
