<svg width="346" height="235" viewBox="0 0 346 235" fill="none" xmlns="http://www.w3.org/2000/svg">
<rect width="346" height="235" rx="28" fill="#99DD44"/>
<mask id="mask0_4697_21626" style="mask-type:alpha" maskUnits="userSpaceOnUse" x="0" y="0" width="346" height="235">
<rect width="346" height="235" rx="28" fill="#5906FF"/>
</mask>
<g mask="url(#mask0_4697_21626)">
<rect x="0.416016" y="59" width="374.863" height="304.54" transform="rotate(10.4843 0.416016 59)" fill="#C0EC88"/>
</g>
<path d="M59.6241 218.302L43.8756 117.973L109.044 124.865L191.544 98.0289L318.662 93.8893L333.822 195.038L221.107 192.483L130.334 224.565L59.6241 218.302Z" fill="black"/>
<path d="M281.755 79.1701C282.044 79.037 282.442 78.8156 282.869 78.66C294.983 74.2054 307.498 70.8319 320.373 68.4625C320.51 68.44 320.648 68.4176 320.788 68.4098C321.533 68.3816 322.53 67.8462 322.871 68.9862C323.217 70.1446 322.065 70.1007 321.346 70.2463C316.332 71.2427 311.384 72.426 306.429 73.6021C299.305 75.2917 292.365 77.4468 285.475 79.7338C284.612 80.0228 283.831 80.5061 282.979 80.8319C282.496 81.017 281.936 81.0262 281.572 80.4513C281.308 80.0339 281.378 79.63 281.751 79.1664L281.755 79.1701Z" fill="black"/>
<path d="M267.814 25.4457C263.408 28.9402 262.327 34.2507 260.541 39.1158C257.975 46.115 255.938 53.2931 254.084 60.519C253.925 61.1396 253.882 61.7695 253.815 62.4005C253.735 63.1356 253.466 63.9915 252.492 63.8128C251.538 63.6369 251.564 62.8167 251.745 62.0418C252.929 56.925 254.279 51.8568 255.828 46.8433C257.753 40.6124 259.611 34.3505 262.57 28.498C263.51 26.6388 264.709 24.969 266.639 23.9803C267.15 23.7202 267.699 23.6035 268.091 24.1532C268.437 24.6325 268.239 25.0791 267.817 25.4417L267.814 25.4457Z" fill="black"/>
<path d="M3.30705 146.073C6.11645 146.094 9.18862 146.397 12.2503 146.772C20.3312 147.764 28.3866 148.908 36.102 151.658C37.6716 152.217 39.1938 152.893 40.7251 153.556C41.5168 153.898 42.1653 154.513 41.5948 155.379C41.0587 156.184 40.4272 155.643 39.7274 155.26C37.0863 153.829 34.2167 152.931 31.3166 152.225C21.9632 149.949 12.4866 148.497 2.84781 148.213C2.16649 148.193 1.53473 148.106 1.4421 147.267C1.37079 146.6 1.87462 146.253 3.30788 146.079L3.30705 146.073Z" fill="black"/>
<path d="M276.69 58.1953C281.235 52.9716 286.363 48.3526 292.075 44.3843C292.441 44.1317 292.795 43.876 293.177 43.6455C293.674 43.344 294.213 43.1896 294.631 43.7188C295.062 44.2665 294.759 44.7645 294.311 45.1246C293.36 45.8976 292.381 46.6375 291.401 47.3775C284.635 52.5068 278.633 58.4037 273.387 65.0837C272.024 66.8234 270.64 68.5373 269.404 70.3698C269.152 70.7465 268.685 71.1919 268.577 71.9093C268.508 72.3491 268.607 72.5468 268.455 73.0866C268.364 73.4051 268.207 73.9759 267.756 74.1372C267.553 74.209 267.356 74.1772 267.198 74.1511C266.854 74.0963 266.62 73.9363 266.501 73.8507C266 73.4866 265.844 72.9973 266.036 72.4209C266.513 71.0031 267.412 69.8196 268.248 68.6164C270.792 64.9361 273.692 61.5396 276.689 58.1876L276.69 58.1953Z" fill="black"/>
<path d="M12.0123 172.204C21.9846 170.91 31.9995 170.134 42.0633 170.127C42.5609 170.126 43.0552 170.104 43.4987 170.352C43.9784 170.622 44.1827 171.055 44.0376 171.597C43.9056 172.082 43.5626 172.338 43.0393 172.245C39.6682 171.639 36.2875 172.128 32.9259 172.319C24.8966 172.78 16.8705 173.365 8.93247 174.796C8.07074 174.952 7.18866 175.013 6.51756 175.725C5.9219 176.36 5.24209 176.28 4.76112 175.616C4.27314 174.943 4.51822 174.271 5.17842 173.839C6.09713 173.242 7.18065 173.035 8.22962 172.816C9.4745 172.556 10.7476 172.407 12.0078 172.21L12.0123 172.204Z" fill="black"/>
<path d="M49.1208 186.547C49.1269 187.427 48.5219 187.582 47.8698 187.749C41.1717 189.484 34.8461 192.063 29.1301 196.023C26.183 198.064 23.3596 200.266 20.7248 202.696C20.0933 203.275 19.3897 203.779 19.3529 204.84C19.3246 205.605 18.553 205.638 17.9672 205.494C17.1597 205.298 16.9068 204.659 17.072 203.895C17.2335 203.142 17.8031 202.621 18.3317 202.117C24.7797 195.942 31.9744 190.941 40.4938 188.014C42.7624 187.234 45.0404 186.479 47.3702 185.88C48.1595 185.68 48.8312 185.603 49.1208 186.547Z" fill="black"/>
<path d="M66.4562 207.252L50.7076 106.922L115.374 113.893L197.191 87.1632L323.299 83.1811L338.465 184.329L226.635 181.63L136.616 213.6L66.4562 207.252Z" fill="white"/>
<path d="M200.321 144.178C199.323 144.23 198.392 144.26 197.466 144.323C196.687 144.373 195.829 144.349 195.778 143.389C195.725 142.385 196.715 141.995 197.431 142.097C201.134 142.624 204.324 141.054 207.591 139.8C216.892 136.237 224.313 130.096 230.904 122.804C232.351 121.206 233.859 119.657 235.344 118.097C235.866 117.55 236.501 117.2 237.124 117.83C237.67 118.384 237.402 119.012 236.907 119.521C232.357 124.191 228.12 129.184 223.01 133.274C216.28 138.662 208.651 142.21 200.322 144.183L200.321 144.178Z" fill="black"/>
<path d="M188.438 147.319C191.901 147.987 195.257 148.601 198.593 149.294C200.458 149.681 202.359 149.981 204.13 150.738C204.71 150.987 205.144 151.422 204.861 152.128C204.589 152.805 204.022 152.888 203.389 152.686C198.562 151.164 193.559 150.441 188.603 149.53C188.22 149.459 187.829 149.41 187.444 149.323C185.76 148.945 185.368 148.006 186.337 146.542C187.294 145.102 188.574 143.95 189.882 142.827C193.491 139.737 197.313 136.892 200.734 133.574C201.233 133.092 201.759 132.605 202.544 133.007C202.995 133.238 203.218 133.651 203.076 134.106C202.84 134.87 202.751 135.841 201.655 135.903C201.167 135.93 200.844 136.139 200.503 136.438C197.201 139.289 193.885 142.12 190.577 144.967C189.805 145.634 189.055 146.325 188.438 147.313L188.438 147.319Z" fill="black"/>
<path d="M175.606 71.4141C177.706 84.864 158.894 124.145 158.894 124.145C158.894 124.145 129.005 92.4606 126.906 79.016C124.808 65.5714 134.004 52.9671 147.456 50.8674C160.907 48.7677 173.508 57.9695 175.606 71.4141Z" fill="black"/>
<path d="M152.876 85.5882C159.199 84.6012 163.524 78.6758 162.537 72.3534C161.551 66.031 155.625 61.7059 149.302 62.6929C142.979 63.6799 138.653 69.6053 139.64 75.9276C140.627 82.25 146.553 86.5751 152.876 85.5882Z" fill="white"/>
<path d="M93.2885 168.807C98.8511 161.55 107.582 157.278 110.859 155.672C117.893 152.233 124.366 150.736 128.785 150.03C128.101 148.594 127.193 146.352 128.046 145.721C128.463 145.415 129.137 145.632 129.412 145.672C131.663 146.009 148.165 147.858 146.27 149.489C145.147 150.457 138.389 157.206 135.646 161.359C135.385 161.755 135.008 162.355 134.466 162.385C133.299 162.447 132.258 159.809 131.521 157.326C121.672 159.656 110.484 164.061 102.716 172.996C89.959 187.671 93.8948 205.982 91.6966 206.057C89.286 206.138 81.4725 184.221 93.2885 168.807Z" fill="black"/>
<path d="M164.265 172.663C162.753 175.278 161.283 177.81 159.82 180.352C158.357 182.894 156.9 185.44 155.461 187.995C155.203 188.446 154.828 188.564 154.442 188.368C153.966 188.125 153.964 187.687 154.227 187.236C157.113 182.279 159.997 177.316 162.882 172.354C163.939 170.537 163.929 170.544 165.486 171.931C169.058 175.125 172.646 178.312 176.21 181.518C176.656 181.919 177.571 182.351 176.891 183.075C176.268 183.746 175.775 182.899 175.349 182.517C171.992 179.551 168.659 176.56 165.316 173.576C164.992 173.288 164.662 173 164.27 172.657L164.265 172.663Z" fill="black"/>
<path d="M164.8 178.025C165.442 183.82 166.084 189.616 166.727 195.412C166.745 195.601 166.769 195.788 166.765 195.975C166.751 196.376 166.658 196.763 166.172 196.8C165.675 196.84 165.545 196.466 165.494 196.064C165.247 194.062 164.995 192.062 164.769 190.057C164.281 185.703 163.809 181.346 163.331 176.99C163.313 176.802 163.272 176.611 163.293 176.428C163.328 176.056 163.476 175.743 163.903 175.709C164.345 175.673 164.517 175.968 164.58 176.336C164.678 176.895 164.755 177.457 164.843 178.018C164.827 178.02 164.811 178.023 164.795 178.025L164.8 178.025Z" fill="black"/>
<path d="M59.6241 218.302L59.1302 218.38C59.1658 218.607 59.3513 218.78 59.58 218.8L59.6241 218.302ZM43.8756 117.973L43.9282 117.475C43.7737 117.459 43.6203 117.515 43.5133 117.628C43.4062 117.741 43.3576 117.897 43.3817 118.05L43.8756 117.973ZM109.044 124.865L108.991 125.362C109.061 125.37 109.132 125.362 109.199 125.34L109.044 124.865ZM191.544 98.0289L191.528 97.5292C191.481 97.5307 191.434 97.5389 191.39 97.5534L191.544 98.0289ZM318.662 93.8893L319.156 93.8152C319.119 93.5643 318.899 93.3813 318.646 93.3896L318.662 93.8893ZM333.822 195.038L333.81 195.538C333.958 195.542 334.099 195.48 334.197 195.369C334.294 195.258 334.338 195.11 334.316 194.964L333.822 195.038ZM221.107 192.483L221.118 191.983C221.057 191.982 220.997 191.992 220.94 192.012L221.107 192.483ZM130.334 224.565L130.29 225.063C130.361 225.069 130.433 225.06 130.5 225.036L130.334 224.565ZM281.755 79.1701L281.421 79.5417L281.666 79.762L281.965 79.6242L281.755 79.1701ZM282.869 78.66L283.04 79.1298L283.042 79.1293L282.869 78.66ZM320.373 68.4625L320.292 67.9689L320.282 67.9708L320.373 68.4625ZM320.788 68.4098L320.769 67.9101L320.76 67.9106L320.788 68.4098ZM322.871 68.9862L322.392 69.1293L322.392 69.1294L322.871 68.9862ZM321.346 70.2463L321.444 70.7367L321.445 70.7363L321.346 70.2463ZM306.429 73.6021L306.544 74.0886L306.544 74.0886L306.429 73.6021ZM285.475 79.7338L285.317 79.2592L285.316 79.2596L285.475 79.7338ZM282.979 80.8319L282.8 80.3648L282.8 80.365L282.979 80.8319ZM281.572 80.4513L281.149 80.7183L281.15 80.719L281.572 80.4513ZM281.751 79.1664L282.086 78.7949L281.693 78.4414L281.362 78.8528L281.751 79.1664ZM267.814 25.4457L268.125 25.8375L268.158 25.811L268.186 25.7794L267.814 25.4457ZM260.541 39.1158L260.071 38.9436L260.071 38.9437L260.541 39.1158ZM254.084 60.519L253.6 60.3948L253.6 60.395L254.084 60.519ZM253.815 62.4005L254.312 62.4548L254.312 62.453L253.815 62.4005ZM252.492 63.8128L252.402 64.3045L252.402 64.3046L252.492 63.8128ZM251.745 62.0418L252.232 62.1559L252.233 62.1545L251.745 62.0418ZM255.828 46.8433L255.35 46.6957L255.35 46.6958L255.828 46.8433ZM262.57 28.498L262.124 28.2724L262.124 28.2724L262.57 28.498ZM266.639 23.9803L266.412 23.5348L266.411 23.5353L266.639 23.9803ZM268.091 24.1532L267.684 24.4436L267.686 24.446L268.091 24.1532ZM267.817 25.4417L267.491 25.0628L267.467 25.0839L267.445 25.1081L267.817 25.4417ZM3.30705 146.073L3.31077 145.574L2.7222 145.569L2.81304 146.151L3.30705 146.073ZM12.2503 146.772L12.3112 146.276L12.3111 146.276L12.2503 146.772ZM36.102 151.658L35.9341 152.129L35.9342 152.129L36.102 151.658ZM40.7251 153.556L40.5263 154.015L40.5271 154.016L40.7251 153.556ZM41.5948 155.379L42.0111 155.656L42.0123 155.654L41.5948 155.379ZM39.7274 155.26L39.9675 154.821L39.9656 154.82L39.7274 155.26ZM31.3166 152.225L31.435 151.739L31.4348 151.739L31.3166 152.225ZM2.84781 148.213L2.86253 147.713L2.86207 147.713L2.84781 148.213ZM1.4421 147.267L0.944925 147.32L0.945118 147.322L1.4421 147.267ZM3.30788 146.079L3.36831 146.575L3.88171 146.513L3.80189 146.002L3.30788 146.079ZM276.69 58.1953L276.19 58.2212L276.255 59.457L277.067 58.5235L276.69 58.1953ZM292.075 44.3843L291.791 43.9729L291.79 43.9736L292.075 44.3843ZM293.177 43.6455L293.435 44.0737L293.437 44.073L293.177 43.6455ZM294.631 43.7188L295.025 43.4099L295.024 43.4089L294.631 43.7188ZM294.311 45.1246L293.997 44.7349L293.995 44.7366L294.311 45.1246ZM291.401 47.3775L291.1 46.9786L291.099 46.9791L291.401 47.3775ZM273.387 65.0837L272.994 64.7749L272.993 64.7753L273.387 65.0837ZM269.404 70.3698L268.989 70.0902L268.988 70.0918L269.404 70.3698ZM268.577 71.9093L269.071 71.9866L269.071 71.9837L268.577 71.9093ZM268.455 73.0866L268.936 73.2233L268.936 73.2219L268.455 73.0866ZM267.756 74.1372L267.923 74.6085L267.924 74.608L267.756 74.1372ZM267.198 74.1511L267.279 73.6578L267.277 73.6573L267.198 74.1511ZM266.501 73.8507L266.207 74.2552L266.209 74.2569L266.501 73.8507ZM266.036 72.4209L265.562 72.2615L265.562 72.263L266.036 72.4209ZM268.248 68.6164L268.659 68.9018L268.66 68.9007L268.248 68.6164ZM276.689 58.1876L277.189 58.1617L277.126 56.9496L276.317 57.8543L276.689 58.1876ZM12.0123 172.204L11.948 171.708L11.7353 171.736L11.6087 171.909L12.0123 172.204ZM42.0633 170.127L42.0637 170.627H42.0644L42.0633 170.127ZM43.4987 170.352L43.7437 169.916L43.7427 169.915L43.4987 170.352ZM44.0376 171.597L44.5201 171.728L44.5207 171.726L44.0376 171.597ZM43.0393 172.245L42.9509 172.737L42.9515 172.737L43.0393 172.245ZM32.9259 172.319L32.8975 171.82L32.8973 171.82L32.9259 172.319ZM8.93247 174.796L8.8438 174.304L8.84319 174.304L8.93247 174.796ZM6.51756 175.725L6.15374 175.382L6.15304 175.383L6.51756 175.725ZM4.76112 175.616L4.3563 175.91L4.35634 175.91L4.76112 175.616ZM5.17842 173.839L4.90586 173.42L4.905 173.421L5.17842 173.839ZM8.22962 172.816L8.33155 173.306L8.33182 173.306L8.22962 172.816ZM12.0078 172.21L12.0849 172.704L12.2893 172.672L12.4114 172.505L12.0078 172.21ZM49.1208 186.547L49.6208 186.544L49.6203 186.471L49.5989 186.401L49.1208 186.547ZM47.8698 187.749L47.7455 187.265L47.7444 187.265L47.8698 187.749ZM29.1301 196.023L29.4147 196.435L29.4148 196.434L29.1301 196.023ZM20.7248 202.696L21.063 203.064L21.0637 203.063L20.7248 202.696ZM19.3529 204.84L19.8526 204.859L19.8526 204.858L19.3529 204.84ZM17.9672 205.494L18.0863 205.009L18.0855 205.009L17.9672 205.494ZM17.072 203.895L17.5607 204L17.5609 204L17.072 203.895ZM18.3317 202.117L18.6766 202.479L18.6775 202.479L18.3317 202.117ZM40.4938 188.014L40.6563 188.487L40.6565 188.487L40.4938 188.014ZM47.3702 185.88L47.2475 185.395L47.2457 185.396L47.3702 185.88ZM66.4562 207.252L65.9622 207.329C65.9978 207.556 66.1828 207.729 66.4111 207.75L66.4562 207.252ZM50.7076 106.922L50.7612 106.425C50.6066 106.408 50.453 106.464 50.3456 106.577C50.2383 106.69 50.1896 106.846 50.2137 106.999L50.7076 106.922ZM115.374 113.893L115.32 114.39C115.391 114.397 115.462 114.39 115.529 114.368L115.374 113.893ZM197.191 87.1632L197.175 86.6634C197.128 86.6649 197.081 86.6732 197.036 86.6879L197.191 87.1632ZM323.299 83.1811L323.794 83.107C323.756 82.8563 323.537 82.6734 323.284 82.6814L323.299 83.1811ZM338.465 184.329L338.452 184.829C338.6 184.833 338.742 184.771 338.839 184.66C338.937 184.55 338.981 184.401 338.959 184.255L338.465 184.329ZM226.635 181.63L226.647 181.131C226.586 181.129 226.525 181.139 226.467 181.159L226.635 181.63ZM136.616 213.6L136.571 214.098C136.643 214.105 136.715 214.095 136.783 214.071L136.616 213.6ZM117.375 123.51C117.316 123.24 117.05 123.069 116.78 123.128C116.51 123.187 116.339 123.454 116.398 123.723L117.375 123.51ZM136.012 213.632C136.071 213.902 136.337 214.073 136.607 214.014C136.877 213.955 137.048 213.689 136.989 213.419L136.012 213.632ZM226.034 181.715C226.117 181.979 226.397 182.126 226.661 182.044C226.924 181.962 227.071 181.681 226.989 181.418L226.034 181.715ZM197.544 86.9449C197.462 86.6813 197.182 86.5342 196.918 86.6164C196.655 86.6985 196.507 86.9789 196.59 87.2425L197.544 86.9449ZM200.321 144.178L200.815 144.1L200.745 143.655L200.295 143.679L200.321 144.178ZM197.466 144.323L197.499 144.822L197.5 144.822L197.466 144.323ZM195.778 143.389L195.279 143.415L195.279 143.415L195.778 143.389ZM197.431 142.097L197.501 141.602L197.501 141.602L197.431 142.097ZM207.591 139.8L207.412 139.333L207.412 139.333L207.591 139.8ZM230.904 122.804L230.534 122.469L230.534 122.469L230.904 122.804ZM235.344 118.097L234.983 117.751L234.982 117.752L235.344 118.097ZM237.124 117.83L237.48 117.479L237.48 117.478L237.124 117.83ZM236.907 119.521L237.265 119.87L237.265 119.869L236.907 119.521ZM223.01 133.274L222.698 132.884L222.697 132.884L223.01 133.274ZM200.322 144.183L199.828 144.261L199.912 144.794L200.437 144.67L200.322 144.183ZM188.438 147.319L187.944 147.396L187.999 147.743L188.344 147.81L188.438 147.319ZM198.593 149.294L198.491 149.784L198.491 149.784L198.593 149.294ZM204.13 150.738L204.326 150.278L204.326 150.278L204.13 150.738ZM204.861 152.128L204.397 151.942L204.397 151.942L204.861 152.128ZM203.389 152.686L203.541 152.21L203.539 152.209L203.389 152.686ZM188.603 149.53L188.511 150.022L188.513 150.022L188.603 149.53ZM187.444 149.323L187.554 148.835L187.553 148.835L187.444 149.323ZM186.337 146.542L185.921 146.265L185.92 146.266L186.337 146.542ZM189.882 142.827L189.556 142.447L189.556 142.448L189.882 142.827ZM200.734 133.574L200.386 133.215L200.386 133.215L200.734 133.574ZM202.544 133.007L202.315 133.452L202.316 133.453L202.544 133.007ZM203.076 134.106L202.599 133.956L202.598 133.958L203.076 134.106ZM201.655 135.903L201.683 136.402L201.683 136.402L201.655 135.903ZM200.503 136.438L200.829 136.817L200.832 136.814L200.503 136.438ZM190.577 144.967L190.25 144.588L190.249 144.589L190.577 144.967ZM188.438 147.313L188.013 147.048L187.915 147.207L187.944 147.391L188.438 147.313ZM175.606 71.4141L175.112 71.4912L175.606 71.4141ZM158.894 124.145L158.53 124.488L159.03 125.018L159.345 124.361L158.894 124.145ZM162.537 72.3534L162.043 72.4305L162.537 72.3534ZM139.64 75.9276L139.146 76.0047L139.64 75.9276ZM93.2885 168.807L93.6854 169.111H93.6854L93.2885 168.807ZM110.859 155.672L110.64 155.223L110.639 155.223L110.859 155.672ZM128.785 150.03L128.864 150.524L129.523 150.418L129.236 149.815L128.785 150.03ZM128.046 145.721L127.751 145.317L127.749 145.319L128.046 145.721ZM129.412 145.672L129.486 145.177L129.482 145.177L129.412 145.672ZM146.27 149.489L145.944 149.11L145.943 149.11L146.27 149.489ZM135.646 161.359L135.228 161.083L135.228 161.084L135.646 161.359ZM134.466 162.385L134.492 162.884L134.493 162.884L134.466 162.385ZM131.521 157.326L132 157.184L131.865 156.731L131.406 156.839L131.521 157.326ZM102.716 172.996L103.094 173.324L102.716 172.996ZM91.6966 206.057L91.7134 206.556L91.7137 206.556L91.6966 206.057ZM164.265 172.663L163.862 172.367L163.846 172.389L163.832 172.412L164.265 172.663ZM155.461 187.995L155.895 188.243L155.897 188.24L155.461 187.995ZM154.442 188.368L154.214 188.813L154.215 188.813L154.442 188.368ZM154.227 187.236L154.659 187.488L154.659 187.488L154.227 187.236ZM162.882 172.354L162.45 172.102L162.45 172.102L162.882 172.354ZM165.486 171.931L165.819 171.558L165.818 171.557L165.486 171.931ZM176.891 183.075L176.526 182.733L176.524 182.735L176.891 183.075ZM175.349 182.517L175.682 182.145L175.68 182.142L175.349 182.517ZM165.316 173.576L165.649 173.203L165.648 173.203L165.316 173.576ZM164.27 172.657L164.599 172.28L164.189 171.921L163.866 172.361L164.27 172.657ZM164.8 178.025L165.297 177.969L165.239 177.45L164.723 177.531L164.8 178.025ZM166.727 195.412L167.224 195.363L167.223 195.357L166.727 195.412ZM166.765 195.975L167.265 195.992L167.265 195.985L166.765 195.975ZM166.172 196.8L166.133 196.302L166.133 196.302L166.172 196.8ZM165.494 196.064L164.997 196.125L164.998 196.128L165.494 196.064ZM164.769 190.057L164.272 190.112L164.272 190.113L164.769 190.057ZM163.331 176.99L162.834 177.039L162.834 177.045L163.331 176.99ZM163.293 176.428L163.79 176.483L163.79 176.474L163.293 176.428ZM163.903 175.709L163.942 176.207L163.943 176.207L163.903 175.709ZM164.58 176.336L164.087 176.42L164.088 176.422L164.58 176.336ZM164.843 178.018L164.92 178.512L165.414 178.435L165.337 177.941L164.843 178.018ZM164.795 178.025L164.717 177.531L164.872 178.519L164.795 178.025ZM60.1181 218.225L44.3696 117.895L43.3817 118.05L59.1302 218.38L60.1181 218.225ZM43.823 118.47L108.991 125.362L109.097 124.368L43.9282 117.475L43.823 118.47ZM109.199 125.34L191.699 98.5044L191.39 97.5534L108.889 124.389L109.199 125.34ZM191.561 98.5286L318.678 94.3891L318.646 93.3896L191.528 97.5292L191.561 98.5286ZM318.167 93.9634L333.327 195.113L334.316 194.964L319.156 93.8152L318.167 93.9634ZM333.833 194.539L221.118 191.983L221.095 192.983L333.81 195.538L333.833 194.539ZM220.94 192.012L130.167 224.094L130.5 225.036L221.273 192.955L220.94 192.012ZM130.378 224.067L59.6683 217.804L59.58 218.8L130.29 225.063L130.378 224.067ZM281.965 79.6242C282.304 79.4678 282.637 79.277 283.04 79.1298L282.698 78.1902C282.248 78.3541 281.785 78.6062 281.546 78.7159L281.965 79.6242ZM283.042 79.1293C295.128 74.685 307.615 71.3187 320.463 68.9543L320.282 67.9708C307.381 70.345 294.839 73.7258 282.697 78.1907L283.042 79.1293ZM320.453 68.956C320.595 68.9328 320.707 68.9151 320.816 68.909L320.76 67.9106C320.59 67.9201 320.426 67.9473 320.292 67.969L320.453 68.956ZM320.807 68.9094C321.036 68.9008 321.279 68.8535 321.468 68.8199C321.676 68.7828 321.836 68.7581 321.975 68.7599C322.106 68.7617 322.173 68.7876 322.215 68.8176C322.255 68.846 322.329 68.9191 322.392 69.1293L323.35 68.8432C323.242 68.4833 323.064 68.1959 322.798 68.0049C322.534 67.8156 322.242 67.7634 321.988 67.76C321.741 67.7567 321.491 67.7999 321.292 67.8354C321.073 67.8745 320.912 67.9047 320.769 67.9101L320.807 68.9094ZM322.392 69.1294C322.458 69.3523 322.428 69.4358 322.422 69.4508C322.417 69.4614 322.4 69.4959 322.301 69.5409C322.196 69.5887 322.049 69.6248 321.853 69.6579C321.691 69.6853 321.431 69.7191 321.247 69.7562L321.445 70.7363C321.622 70.7007 321.775 70.6853 322.02 70.6439C322.232 70.6081 322.486 70.5554 322.715 70.4513C322.951 70.3442 323.201 70.1634 323.338 69.8519C323.472 69.5448 323.456 69.1994 323.35 68.8431L322.392 69.1294ZM321.249 69.7558C316.224 70.7544 311.267 71.9401 306.313 73.1156L306.544 74.0886C311.502 72.912 316.44 71.731 321.444 70.7367L321.249 69.7558ZM306.313 73.1156C299.169 74.8102 292.212 76.9705 285.317 79.2592L285.632 80.2083C292.517 77.923 299.441 75.7733 306.544 74.0886L306.313 73.1156ZM285.316 79.2596C284.851 79.4153 284.415 79.6212 284.005 79.8188C283.588 80.0203 283.202 80.2113 282.8 80.3648L283.157 81.2989C283.608 81.1267 284.038 80.9132 284.44 80.7194C284.85 80.5216 285.235 80.3413 285.634 80.2079L285.316 79.2596ZM282.8 80.365C282.609 80.4383 282.447 80.4585 282.324 80.4353C282.221 80.4158 282.106 80.3601 281.994 80.1836L281.15 80.719C281.402 81.1174 281.749 81.3445 282.138 81.4179C282.507 81.4875 282.866 81.4106 283.158 81.2988L282.8 80.365ZM281.995 80.1843C281.917 80.0611 281.906 79.9749 281.917 79.8992C281.931 79.8086 281.985 79.6734 282.141 79.4801L281.362 78.8528C281.144 79.1231 280.977 79.4216 280.928 79.7532C280.877 80.0997 280.963 80.4241 281.149 80.7183L281.995 80.1843ZM281.417 79.538L281.421 79.5417L282.09 78.7985L282.086 78.7949L281.417 79.538ZM267.503 25.054C265.215 26.8691 263.801 29.149 262.737 31.5653C261.687 33.9518 260.944 36.5654 260.071 38.9436L261.01 39.2881C261.923 36.8011 262.614 34.3269 263.652 31.9682C264.677 29.6394 266.007 27.5168 268.125 25.8375L267.503 25.054ZM260.071 38.9437C257.497 45.9654 255.456 53.1617 253.6 60.3948L254.569 60.6433C256.421 53.4245 258.452 46.2646 261.01 39.288L260.071 38.9437ZM253.6 60.395C253.429 61.0611 253.382 61.742 253.318 62.3481L254.312 62.453C254.382 61.7969 254.421 61.2182 254.569 60.6431L253.6 60.395ZM253.318 62.3462C253.28 62.6947 253.203 62.9862 253.079 63.1621C253.024 63.2405 252.968 63.2839 252.91 63.3079C252.851 63.332 252.751 63.3519 252.582 63.321L252.402 64.3046C252.721 64.3631 253.019 64.3431 253.287 64.2339C253.555 64.1247 253.754 63.9417 253.898 63.7366C254.173 63.3454 254.27 62.8414 254.312 62.4548L253.318 62.3462ZM252.583 63.3211C252.413 63.2898 252.325 63.2374 252.278 63.1959C252.233 63.156 252.198 63.1021 252.175 63.018C252.121 62.824 252.144 62.5321 252.232 62.1559L251.259 61.9278C251.165 62.3265 251.085 62.8321 251.211 63.2859C251.278 63.5257 251.404 63.7582 251.617 63.9458C251.827 64.1318 252.094 64.2479 252.402 64.3045L252.583 63.3211ZM252.233 62.1545C253.413 57.0484 254.761 51.9919 256.305 46.9909L255.35 46.6958C253.798 51.7217 252.444 56.8016 251.258 61.9292L252.233 62.1545ZM256.305 46.9909C258.234 40.7478 260.08 34.5306 263.016 28.7236L262.124 28.2724C259.142 34.1704 257.271 40.477 255.35 46.6957L256.305 46.9909ZM263.016 28.7236C263.936 26.9046 265.073 25.344 266.867 24.4253L266.411 23.5353C264.344 24.594 263.084 26.3731 262.124 28.2724L263.016 28.7236ZM266.866 24.4258C267.096 24.3086 267.271 24.2594 267.395 24.2629C267.483 24.2653 267.575 24.2911 267.684 24.4436L268.498 23.8627C268.214 23.4656 267.836 23.2748 267.423 23.2633C267.048 23.2527 266.693 23.3919 266.412 23.5348L266.866 24.4258ZM267.686 24.446C267.78 24.5765 267.775 24.654 267.759 24.71C267.737 24.7929 267.662 24.9153 267.491 25.0628L268.144 25.8206C268.394 25.6055 268.629 25.3234 268.724 24.9725C268.827 24.5947 268.748 24.2091 268.496 23.8603L267.686 24.446ZM267.445 25.1081L267.441 25.1121L268.186 25.7794L268.19 25.7753L267.445 25.1081ZM3.30333 146.573C6.0833 146.594 9.13254 146.894 12.1894 147.269L12.3111 146.276C9.24469 145.9 6.14959 145.595 3.31077 145.574L3.30333 146.573ZM12.1893 147.269C20.2703 148.261 28.2762 149.399 35.9341 152.129L36.2699 151.187C28.497 148.417 20.3921 147.268 12.3112 146.276L12.1893 147.269ZM35.9342 152.129C37.4843 152.681 38.9882 153.349 40.5263 154.015L40.9239 153.098C39.3995 152.437 37.8589 151.753 36.2697 151.187L35.9342 152.129ZM40.5271 154.016C40.8869 154.171 41.1361 154.358 41.2464 154.535C41.2955 154.614 41.3141 154.685 41.3113 154.758C41.3085 154.833 41.2809 154.946 41.1773 155.104L42.0123 155.654C42.194 155.378 42.2993 155.09 42.3106 154.796C42.3219 154.499 42.2359 154.232 42.0952 154.007C41.8259 153.574 41.355 153.283 40.923 153.097L40.5271 154.016ZM41.1786 155.102C41.0831 155.245 41.0168 155.279 40.9942 155.288C40.9742 155.296 40.9364 155.304 40.8502 155.282C40.7561 155.257 40.639 155.203 40.4815 155.116C40.4046 155.074 40.326 155.027 40.239 154.977C40.1541 154.927 40.062 154.873 39.9675 154.821L39.4874 155.699C39.5678 155.743 39.6485 155.79 39.7342 155.84C39.8177 155.889 39.9075 155.941 39.9966 155.991C40.1711 156.087 40.3766 156.191 40.5948 156.249C40.821 156.308 41.0853 156.325 41.3564 156.22C41.6249 156.116 41.8385 155.915 42.0111 155.656L41.1786 155.102ZM39.9656 154.82C37.27 153.36 34.3531 152.45 31.435 151.739L31.1982 152.71C34.0802 153.413 36.9026 154.298 39.4892 155.7L39.9656 154.82ZM31.4348 151.739C22.0535 149.456 12.542 147.998 2.86253 147.713L2.83308 148.712C12.4312 148.995 21.8728 150.442 31.1984 152.71L31.4348 151.739ZM2.86207 147.713C2.51514 147.703 2.29314 147.674 2.15029 147.601C2.06292 147.557 1.96904 147.483 1.93907 147.212L0.945118 147.322C1.00779 147.889 1.2761 148.279 1.69811 148.493C2.06462 148.679 2.49915 148.703 2.83354 148.712L2.86207 147.713ZM1.93926 147.214C1.9286 147.114 1.94283 147.062 1.95591 147.034C1.96837 147.007 1.99733 146.963 2.0826 146.908C2.27639 146.782 2.6615 146.661 3.36831 146.575L3.24746 145.582C2.521 145.671 1.93757 145.81 1.53895 146.069C1.32802 146.205 1.15481 146.384 1.04807 146.615C0.941946 146.845 0.919937 147.086 0.944928 147.32L1.93926 147.214ZM3.80189 146.002L3.80106 145.996L2.81304 146.151L2.81388 146.156L3.80189 146.002ZM277.067 58.5235C281.585 53.3304 286.682 48.7393 292.361 44.7949L291.79 43.9736C286.043 47.9659 280.884 52.6127 276.312 57.8671L277.067 58.5235ZM292.36 44.7957C292.737 44.5352 293.071 44.2937 293.435 44.0737L292.919 43.2174C292.52 43.4583 292.145 43.7283 291.791 43.9729L292.36 44.7957ZM293.437 44.073C293.662 43.9366 293.833 43.8752 293.954 43.8702C294.036 43.8669 294.125 43.8839 294.239 44.0287L295.024 43.4089C294.72 43.0245 294.33 42.8541 293.914 42.8711C293.537 42.8864 293.19 43.053 292.918 43.218L293.437 44.073ZM294.238 44.0277C294.305 44.1126 294.327 44.1748 294.335 44.2141C294.342 44.2521 294.34 44.2905 294.325 44.3363C294.291 44.4418 294.188 44.5817 293.997 44.7349L294.624 45.5143C294.881 45.3073 295.154 45.0182 295.276 44.6477C295.41 44.2388 295.335 43.8048 295.025 43.4099L294.238 44.0277ZM293.995 44.7366C293.052 45.503 292.08 46.2377 291.1 46.9786L291.703 47.7764C292.681 47.0374 293.667 46.2921 294.626 45.5126L293.995 44.7366ZM291.099 46.9791C284.299 52.1342 278.266 58.0611 272.994 64.7749L273.78 65.3925C279 58.7462 284.972 52.8795 291.703 47.776L291.099 46.9791ZM272.993 64.7753C271.637 66.5065 270.238 68.2389 268.989 70.0902L269.818 70.6494C271.042 68.8357 272.411 67.1402 273.78 65.3921L272.993 64.7753ZM268.988 70.0918C268.81 70.3578 268.213 70.9701 268.083 71.8348L269.071 71.9837C269.157 71.4136 269.493 71.1352 269.819 70.6479L268.988 70.0918ZM268.083 71.8319C268.042 72.0963 268.05 72.3075 268.047 72.4517C268.045 72.5924 268.035 72.7325 267.973 72.9514L268.936 73.2219C269.026 72.9009 269.043 72.6722 269.047 72.4691C269.05 72.2696 269.044 72.1621 269.071 71.9866L268.083 71.8319ZM267.974 72.9499C267.926 73.1167 267.877 73.2884 267.798 73.4373C267.72 73.586 267.646 73.6454 267.587 73.6664L267.924 74.608C268.316 74.4677 268.547 74.161 268.682 73.9045C268.818 73.648 268.893 73.375 268.936 73.2233L267.974 72.9499ZM267.589 73.6659C267.522 73.6894 267.447 73.6854 267.279 73.6578L267.116 74.6444C267.265 74.669 267.583 74.7286 267.923 74.6085L267.589 73.6659ZM267.277 73.6573C267.05 73.6211 266.893 73.5163 266.793 73.4445L266.209 74.2569C266.348 74.3563 266.659 74.5715 267.119 74.6448L267.277 73.6573ZM266.795 73.4462C266.612 73.3131 266.523 73.1812 266.484 73.0616C266.446 72.9422 266.441 72.7868 266.51 72.5788L265.562 72.263C265.439 72.6314 265.416 73.0088 265.533 73.3693C265.649 73.7294 265.889 74.0243 266.207 74.2552L266.795 73.4462ZM266.51 72.5804C266.959 71.2469 267.803 70.1331 268.659 68.9018L267.838 68.331C267.021 69.5061 266.068 70.7593 265.562 72.2615L266.51 72.5804ZM268.66 68.9007C271.186 65.2467 274.068 61.8687 277.062 58.5209L276.317 57.8543C273.315 61.2104 270.399 64.6255 267.837 68.3321L268.66 68.9007ZM276.19 58.2136L276.19 58.2212L277.189 58.1693L277.189 58.1617L276.19 58.2136ZM12.0766 172.7C22.032 171.408 32.0252 170.634 42.0637 170.627L42.063 169.627C31.9738 169.634 21.9371 170.412 11.948 171.708L12.0766 172.7ZM42.0644 170.627C42.6083 170.626 42.95 170.618 43.2547 170.788L43.7427 169.915C43.1604 169.59 42.5136 169.626 42.0622 169.627L42.0644 170.627ZM43.2537 170.788C43.4201 170.881 43.5048 170.983 43.5453 171.075C43.5848 171.164 43.6026 171.288 43.5546 171.468L44.5207 171.726C44.6178 171.363 44.606 171 44.4596 170.67C44.3143 170.342 44.057 170.092 43.7437 169.916L43.2537 170.788ZM43.5552 171.466C43.5115 171.626 43.4484 171.695 43.4058 171.723C43.3678 171.749 43.2897 171.782 43.1271 171.753L42.9515 172.737C43.3123 172.801 43.6673 172.753 43.9646 172.553C44.2574 172.355 44.4318 172.053 44.5201 171.728L43.5552 171.466ZM43.1278 171.753C39.6799 171.133 36.2001 171.633 32.8975 171.82L32.9543 172.819C36.375 172.624 39.6564 172.145 42.9509 172.737L43.1278 171.753ZM32.8973 171.82C24.8656 172.281 16.8137 172.867 8.8438 174.304L9.02115 175.288C16.9273 173.863 24.9277 173.279 32.9545 172.819L32.8973 171.82ZM8.84319 174.304C8.06131 174.446 6.9655 174.521 6.15374 175.382L6.88138 176.068C7.41182 175.505 8.08016 175.459 9.02176 175.288L8.84319 174.304ZM6.15304 175.383C5.92577 175.625 5.74585 175.668 5.63491 175.659C5.51963 175.65 5.34934 175.576 5.16591 175.323L4.35634 175.91C4.65388 176.32 5.06398 176.618 5.55776 176.656C6.05588 176.695 6.5137 176.46 6.88209 176.067L6.15304 175.383ZM5.16594 175.323C4.9972 175.09 4.98411 174.907 5.02187 174.768C5.0639 174.612 5.19248 174.427 5.45185 174.258L4.905 173.421C4.50416 173.683 4.1801 174.05 4.05654 174.507C3.92871 174.979 4.03707 175.47 4.3563 175.91L5.16594 175.323ZM5.45098 174.259C6.27561 173.722 7.25771 173.529 8.33155 173.306L8.12769 172.327C7.10358 172.54 5.91866 172.762 4.90586 173.42L5.45098 174.259ZM8.33182 173.306C9.56057 173.049 10.799 172.905 12.0849 172.704L11.9307 171.716C10.6961 171.909 9.38843 172.063 8.12741 172.327L8.33182 173.306ZM12.4114 172.505L12.4159 172.499L11.6087 171.909L11.6042 171.915L12.4114 172.505ZM48.6209 186.551C48.6229 186.851 48.533 186.949 48.4471 187.012C48.3082 187.113 48.0981 187.174 47.7455 187.265L47.9941 188.233C48.2936 188.157 48.7121 188.057 49.0371 187.819C49.4153 187.543 49.6248 187.123 49.6208 186.544L48.6209 186.551ZM47.7444 187.265C41.004 189.011 34.6208 191.611 28.8453 195.612L29.4148 196.434C35.0715 192.515 41.3395 189.957 47.9952 188.233L47.7444 187.265ZM28.8454 195.612C25.883 197.664 23.0407 199.88 20.3858 202.328L21.0637 203.063C23.6784 200.652 26.483 198.465 29.4147 196.435L28.8454 195.612ZM20.3866 202.327C19.814 202.853 18.8988 203.508 18.8532 204.823L19.8526 204.858C19.8806 204.051 20.3726 203.698 21.063 203.064L20.3866 202.327ZM18.8533 204.822C18.8494 204.926 18.8231 204.965 18.8143 204.976C18.8038 204.989 18.7796 205.012 18.7174 205.032C18.5745 205.077 18.3404 205.071 18.0863 205.009L17.848 205.98C18.1798 206.061 18.6244 206.111 19.0208 205.984C19.2283 205.918 19.439 205.799 19.5994 205.595C19.7616 205.39 19.8423 205.137 19.8526 204.859L18.8533 204.822ZM18.0855 205.009C17.7995 204.939 17.6667 204.81 17.5998 204.679C17.5251 204.534 17.4939 204.31 17.5607 204L16.5833 203.789C16.4849 204.244 16.4976 204.722 16.71 205.136C16.93 205.564 17.3274 205.853 17.8488 205.98L18.0855 205.009ZM17.5609 204C17.6839 203.426 18.118 203.012 18.6766 202.479L17.9867 201.755C17.4882 202.23 16.7831 202.858 16.5831 203.79L17.5609 204ZM18.6775 202.479C25.0887 196.339 32.2231 191.385 40.6563 188.487L40.3314 187.542C31.7256 190.498 24.4706 195.546 17.9858 201.756L18.6775 202.479ZM40.6565 188.487C42.923 187.707 45.1853 186.958 47.4946 186.364L47.2457 185.396C44.8955 186 42.6017 186.76 40.3311 187.542L40.6565 188.487ZM47.4929 186.365C47.8982 186.262 48.1481 186.23 48.3145 186.27C48.3802 186.286 48.4285 186.313 48.4731 186.36C48.5223 186.412 48.5863 186.51 48.6428 186.694L49.5989 186.401C49.5106 186.113 49.382 185.866 49.199 185.673C49.0115 185.475 48.7884 185.356 48.5512 185.299C48.112 185.192 47.6315 185.298 47.2475 185.395L47.4929 186.365ZM66.9501 207.174L51.2016 106.844L50.2137 106.999L65.9622 207.329L66.9501 207.174ZM50.6541 107.419L115.32 114.39L115.428 113.395L50.7612 106.425L50.6541 107.419ZM115.529 114.368L197.346 87.6384L197.036 86.6879L115.219 113.417L115.529 114.368ZM197.207 87.6629L323.315 83.6809L323.284 82.6814L197.175 86.6634L197.207 87.6629ZM322.805 83.2553L337.97 184.404L338.959 184.255L323.794 83.107L322.805 83.2553ZM338.477 183.83L226.647 181.131L226.623 182.13L338.452 184.829L338.477 183.83ZM226.467 181.159L136.449 213.129L136.783 214.071L226.802 182.102L226.467 181.159ZM136.661 213.102L66.5012 206.754L66.4111 207.75L136.571 214.098L136.661 213.102ZM116.398 123.723L136.012 213.632L136.989 213.419L117.375 123.51L116.398 123.723ZM226.989 181.418L197.544 86.9449L196.59 87.2425L226.034 181.715L226.989 181.418ZM200.295 143.679C199.311 143.73 198.362 143.761 197.433 143.824L197.5 144.822C198.422 144.759 199.334 144.73 200.347 144.677L200.295 143.679ZM197.434 143.824C197.037 143.85 196.73 143.844 196.525 143.767C196.437 143.733 196.388 143.694 196.358 143.652C196.327 143.609 196.286 143.527 196.277 143.362L195.279 143.415C195.296 143.73 195.382 144.011 195.55 144.242C195.719 144.473 195.943 144.616 196.173 144.703C196.604 144.865 197.116 144.847 197.499 144.822L197.434 143.824ZM196.277 143.362C196.261 143.06 196.389 142.874 196.585 142.75C196.803 142.611 197.107 142.556 197.361 142.592L197.501 141.602C197.038 141.536 196.489 141.625 196.048 141.906C195.582 142.202 195.242 142.714 195.279 143.415L196.277 143.362ZM197.36 142.592C201.225 143.142 204.568 141.496 207.77 140.267L207.412 139.333C204.081 140.612 201.043 142.106 197.501 141.602L197.36 142.592ZM207.77 140.267C217.17 136.666 224.654 130.465 231.275 123.139L230.534 122.469C223.973 129.727 216.614 135.808 207.412 139.333L207.77 140.267ZM231.275 123.14C232.716 121.547 234.216 120.008 235.707 118.441L234.982 117.752C233.503 119.307 231.985 120.864 230.534 122.469L231.275 123.14ZM235.706 118.442C235.947 118.19 236.156 118.048 236.32 118.006C236.432 117.978 236.568 117.979 236.769 118.181L237.48 117.478C237.057 117.051 236.564 116.912 236.072 117.038C235.633 117.15 235.264 117.457 234.983 117.751L235.706 118.442ZM236.768 118.18C236.928 118.343 236.941 118.47 236.916 118.59C236.883 118.747 236.765 118.949 236.548 119.172L237.265 119.869C237.543 119.583 237.807 119.217 237.895 118.795C237.992 118.335 237.866 117.871 237.48 117.479L236.768 118.18ZM236.549 119.172C231.967 123.875 227.776 128.819 222.698 132.884L223.322 133.665C228.465 129.549 232.747 124.507 237.265 119.87L236.549 119.172ZM222.697 132.884C216.03 138.222 208.47 141.74 200.207 143.697L200.437 144.67C208.832 142.681 216.53 139.103 223.322 133.665L222.697 132.884ZM200.816 144.106L200.815 144.1L199.827 144.256L199.828 144.261L200.816 144.106ZM188.344 147.81C191.813 148.479 195.16 149.091 198.491 149.784L198.695 148.805C195.354 148.11 191.99 147.495 188.533 146.828L188.344 147.81ZM198.491 149.784C200.391 150.178 202.222 150.466 203.933 151.198L204.326 150.278C202.497 149.496 200.526 149.185 198.694 148.805L198.491 149.784ZM203.933 151.198C204.18 151.304 204.329 151.423 204.398 151.531C204.447 151.608 204.485 151.721 204.397 151.942L205.325 152.314C205.52 151.829 205.483 151.372 205.241 150.992C205.018 150.644 204.66 150.421 204.326 150.278L203.933 151.198ZM204.397 151.942C204.308 152.163 204.201 152.231 204.11 152.26C203.994 152.296 203.808 152.295 203.541 152.21L203.237 153.162C203.603 153.279 204.018 153.337 204.41 153.214C204.83 153.082 205.142 152.77 205.325 152.314L204.397 151.942ZM203.539 152.209C198.674 150.675 193.623 149.944 188.693 149.038L188.513 150.022C193.494 150.938 198.45 151.653 203.239 153.163L203.539 152.209ZM188.695 149.038C188.264 148.958 187.935 148.921 187.554 148.835L187.333 149.81C187.724 149.899 188.175 149.959 188.511 150.022L188.695 149.038ZM187.553 148.835C186.757 148.656 186.452 148.382 186.359 148.153C186.267 147.924 186.295 147.511 186.754 146.818L185.92 146.266C185.41 147.037 185.149 147.825 185.432 148.527C185.714 149.228 186.447 149.612 187.335 149.811L187.553 148.835ZM186.753 146.819C187.668 145.442 188.9 144.33 190.207 143.206L189.556 142.448C188.249 143.57 186.92 144.761 185.921 146.265L186.753 146.819ZM190.207 143.207C193.778 140.149 197.649 137.263 201.082 133.933L200.386 133.215C196.977 136.522 193.203 139.325 189.556 142.447L190.207 143.207ZM201.081 133.934C201.342 133.681 201.538 133.505 201.737 133.415C201.893 133.344 202.061 133.322 202.315 133.452L202.772 132.563C202.241 132.29 201.753 132.31 201.326 132.503C200.941 132.677 200.624 132.985 200.386 133.215L201.081 133.934ZM202.316 133.453C202.466 133.529 202.547 133.62 202.585 133.696C202.62 133.766 202.632 133.849 202.599 133.956L203.553 134.255C203.662 133.908 203.634 133.557 203.48 133.249C203.329 132.947 203.073 132.716 202.771 132.562L202.316 133.453ZM202.598 133.958C202.544 134.134 202.473 134.409 202.429 134.559C202.373 134.748 202.318 134.902 202.249 135.028C202.182 135.15 202.11 135.233 202.027 135.289C201.946 135.343 201.825 135.392 201.627 135.404L201.683 136.402C202.033 136.382 202.334 136.287 202.585 136.118C202.834 135.951 203.005 135.731 203.127 135.507C203.247 135.287 203.326 135.052 203.388 134.841C203.461 134.593 203.49 134.459 203.554 134.253L202.598 133.958ZM201.628 135.404C200.978 135.439 200.552 135.73 200.173 136.062L200.832 136.814C201.137 136.547 201.356 136.42 201.683 136.402L201.628 135.404ZM200.176 136.06C196.874 138.911 193.561 141.739 190.25 144.588L190.903 145.346C194.208 142.502 197.528 139.667 200.829 136.817L200.176 136.06ZM190.249 144.589C189.472 145.261 188.673 145.993 188.013 147.048L188.862 147.578C189.437 146.658 190.139 146.007 190.904 145.345L190.249 144.589ZM187.944 147.391L187.944 147.396L188.932 147.241L188.931 147.236L187.944 147.391ZM175.112 71.4912C175.62 74.7418 174.865 79.6296 173.397 85.2001C171.936 90.7489 169.788 96.9008 167.571 102.643C165.355 108.384 163.072 113.706 161.344 117.594C160.48 119.538 159.754 121.122 159.245 122.221C158.99 122.77 158.789 123.197 158.653 123.487C158.584 123.632 158.532 123.743 158.496 123.817C158.479 123.855 158.465 123.883 158.456 123.901C158.452 123.911 158.449 123.918 158.446 123.922C158.445 123.925 158.444 123.926 158.444 123.928C158.444 123.928 158.443 123.929 158.443 123.929C158.443 123.929 158.443 123.929 158.894 124.145C159.345 124.361 159.345 124.361 159.345 124.361C159.345 124.36 159.346 124.36 159.346 124.359C159.347 124.358 159.347 124.356 159.349 124.354C159.351 124.349 159.354 124.342 159.359 124.332C159.368 124.313 159.382 124.284 159.4 124.247C159.435 124.172 159.488 124.06 159.557 123.914C159.695 123.622 159.896 123.193 160.152 122.641C160.663 121.539 161.391 119.95 162.257 118C163.99 114.103 166.28 108.764 168.504 103.003C170.727 97.2444 172.889 91.0541 174.364 85.4549C175.834 79.8774 176.643 74.8114 176.1 71.337L175.112 71.4912ZM158.894 124.145C159.258 123.802 159.258 123.802 159.257 123.802C159.257 123.802 159.257 123.801 159.257 123.801C159.256 123.8 159.254 123.798 159.253 123.797C159.249 123.793 159.244 123.787 159.237 123.78C159.222 123.764 159.201 123.742 159.173 123.712C159.117 123.652 159.033 123.562 158.924 123.445C158.705 123.211 158.383 122.864 157.974 122.419C157.154 121.528 155.98 120.24 154.564 118.652C151.733 115.475 147.937 111.101 144.076 106.309C140.215 101.515 136.295 96.3098 133.211 91.4707C130.116 86.6126 127.907 82.1881 127.4 78.9389L126.412 79.0931C126.954 82.5662 129.269 87.144 132.368 92.008C135.479 96.8911 139.425 102.128 143.298 106.936C147.172 111.745 150.979 116.133 153.818 119.317C155.237 120.91 156.415 122.202 157.238 123.096C157.649 123.543 157.972 123.891 158.192 124.127C158.302 124.245 158.387 124.335 158.444 124.396C158.472 124.426 158.494 124.449 158.508 124.465C158.515 124.473 158.521 124.478 158.525 124.482C158.527 124.484 158.528 124.486 158.529 124.487C158.529 124.487 158.53 124.488 158.53 124.488C158.53 124.488 158.53 124.488 158.894 124.145ZM127.4 78.9389C125.344 65.7671 134.354 53.4185 147.533 51.3614L147.379 50.3734C133.654 52.5157 124.271 65.3757 126.412 79.0931L127.4 78.9389ZM147.533 51.3614C160.711 49.3044 173.056 58.3194 175.112 71.4912L176.1 71.337C173.959 57.6196 161.103 48.2311 147.379 50.3734L147.533 51.3614ZM162.043 72.4305C162.988 78.48 158.849 84.1497 152.798 85.0941L152.953 86.0822C159.548 85.0526 164.061 78.8715 163.031 72.2763L162.043 72.4305ZM152.798 85.0941C146.748 86.0386 141.078 81.9 140.134 75.8505L139.146 76.0047C140.175 82.6 146.357 87.1117 152.953 86.0822L152.798 85.0941ZM140.134 75.8505C139.189 69.801 143.329 64.1313 149.379 63.1869L149.225 62.1988C142.629 63.2284 138.116 69.4095 139.146 76.0047L140.134 75.8505ZM149.379 63.1869C155.429 62.2425 161.099 66.381 162.043 72.4305L163.031 72.2763C162.002 65.681 155.82 61.1693 149.225 62.1988L149.379 63.1869ZM93.6854 169.111C99.1679 161.959 107.795 157.73 111.079 156.121L110.639 155.223C107.368 156.826 98.5344 161.142 92.8917 168.503L93.6854 169.111ZM111.079 156.122C118.056 152.71 124.478 151.225 128.864 150.524L128.706 149.536C124.254 150.248 117.73 151.757 110.64 155.223L111.079 156.122ZM129.236 149.815C128.897 149.104 128.517 148.221 128.324 147.452C128.227 147.065 128.186 146.74 128.204 146.496C128.223 146.251 128.293 146.16 128.344 146.123L127.749 145.319C127.373 145.596 127.237 146.022 127.207 146.421C127.177 146.819 127.245 147.263 127.354 147.695C127.573 148.565 127.988 149.521 128.333 150.245L129.236 149.815ZM128.342 146.124C128.403 146.079 128.524 146.047 128.741 146.065C128.842 146.073 128.944 146.091 129.045 146.11C129.131 146.127 129.256 146.154 129.341 146.167L129.482 145.177C129.43 145.169 129.368 145.155 129.237 145.129C129.122 145.107 128.978 145.081 128.824 145.068C128.531 145.044 128.107 145.056 127.751 145.317L128.342 146.124ZM129.337 146.166C130.498 146.34 135.14 146.88 139.312 147.588C141.395 147.942 143.322 148.332 144.604 148.729C145.26 148.933 145.682 149.12 145.881 149.269C145.986 149.349 145.939 149.352 145.924 149.263C145.902 149.129 145.989 149.07 145.944 149.11L146.596 149.868C146.787 149.703 146.968 149.439 146.911 149.098C146.861 148.803 146.652 148.599 146.483 148.471C146.133 148.207 145.56 147.979 144.9 147.774C143.55 147.356 141.566 146.957 139.48 146.602C135.311 145.894 130.577 145.341 129.486 145.177L129.337 146.166ZM145.943 149.11C145.36 149.613 143.374 151.559 141.2 153.888C139.025 156.217 136.625 158.969 135.228 161.083L136.063 161.634C137.409 159.595 139.759 156.896 141.931 154.571C144.102 152.245 146.056 150.333 146.596 149.867L145.943 149.11ZM135.228 161.084C135.09 161.294 134.956 161.5 134.8 161.663C134.642 161.828 134.525 161.881 134.438 161.886L134.493 162.884C134.949 162.859 135.291 162.597 135.522 162.355C135.755 162.112 135.941 161.82 136.063 161.633L135.228 161.084ZM134.439 161.886C134.353 161.89 134.2 161.849 133.973 161.619C133.751 161.393 133.515 161.041 133.276 160.58C132.8 159.661 132.367 158.417 132 157.184L131.041 157.468C131.413 158.718 131.868 160.034 132.388 161.04C132.648 161.54 132.937 161.992 133.261 162.321C133.58 162.645 133.995 162.911 134.492 162.884L134.439 161.886ZM131.406 156.839C121.515 159.18 110.207 163.618 102.339 172.668L103.094 173.324C110.761 164.504 121.829 160.133 131.636 157.813L131.406 156.839ZM102.339 172.668C95.8728 180.107 93.6442 188.46 92.7515 194.933C92.3057 198.165 92.1914 200.947 92.053 202.887C91.9829 203.871 91.9084 204.61 91.7915 205.101C91.7325 205.349 91.6726 205.488 91.6271 205.556C91.5909 205.61 91.6082 205.559 91.6795 205.557L91.7137 206.556C92.0597 206.545 92.3039 206.342 92.4578 206.113C92.6024 205.897 92.6957 205.621 92.7644 205.332C92.9029 204.75 92.9811 203.932 93.0505 202.959C93.1912 200.986 93.3023 198.259 93.7421 195.07C94.6204 188.701 96.8027 180.561 103.094 173.324L102.339 172.668ZM91.6798 205.557C91.7152 205.556 91.6641 205.571 91.5125 205.441C91.3724 205.321 91.1994 205.122 91.0021 204.831C90.6095 204.252 90.1686 203.38 89.7328 202.257C88.8631 200.017 88.0394 196.847 87.6548 193.19C86.8851 185.87 87.8818 176.682 93.6854 169.111L92.8917 168.503C86.8792 176.346 85.8746 185.823 86.6603 193.295C87.0535 197.034 87.8966 200.291 88.8006 202.619C89.2517 203.781 89.7244 204.728 90.1743 205.392C90.3984 205.723 90.6288 206.001 90.8623 206.201C91.0842 206.391 91.3767 206.568 91.7134 206.556L91.6798 205.557ZM163.832 172.412C162.321 175.027 160.85 177.56 159.387 180.103L160.254 180.601C161.717 178.06 163.186 175.529 164.698 172.913L163.832 172.412ZM159.387 180.103C157.924 182.645 156.466 185.193 155.026 187.75L155.897 188.24C157.335 185.688 158.791 183.143 160.254 180.601L159.387 180.103ZM155.027 187.747C154.939 187.901 154.864 187.942 154.834 187.952C154.811 187.96 154.764 187.97 154.669 187.922L154.215 188.813C154.506 188.962 154.839 189.011 155.166 188.896C155.485 188.783 155.725 188.54 155.895 188.243L155.027 187.747ZM154.669 187.922C154.604 187.889 154.578 187.861 154.568 187.848C154.559 187.836 154.555 187.827 154.553 187.811C154.547 187.77 154.557 187.664 154.659 187.488L153.795 186.984C153.634 187.26 153.514 187.598 153.562 187.949C153.615 188.332 153.856 188.63 154.214 188.813L154.669 187.922ZM154.659 187.488C157.545 182.53 160.43 177.567 163.315 172.605L162.45 172.102C159.565 177.065 156.68 182.027 153.795 186.985L154.659 187.488ZM163.314 172.605C163.585 172.14 163.766 171.829 163.918 171.623C164.081 171.403 164.124 171.427 164.076 171.434C164.027 171.442 164.059 171.405 164.28 171.563C164.487 171.711 164.754 171.948 165.153 172.304L165.818 171.557C165.439 171.22 165.123 170.936 164.861 170.749C164.613 170.572 164.29 170.387 163.917 170.447C163.545 170.507 163.295 170.783 163.113 171.029C162.921 171.29 162.708 171.659 162.45 172.102L163.314 172.605ZM165.152 172.303C168.727 175.499 172.313 178.684 175.876 181.89L176.545 181.147C172.98 177.939 169.39 174.751 165.819 171.558L165.152 172.303ZM175.876 181.89C176.004 182.005 176.176 182.132 176.291 182.222C176.426 182.328 176.521 182.412 176.583 182.488C176.641 182.562 176.634 182.584 176.634 182.573C176.634 182.558 176.643 182.608 176.526 182.733L177.255 183.417C177.479 183.179 177.628 182.904 177.634 182.592C177.64 182.283 177.503 182.038 177.362 181.862C177.224 181.69 177.05 181.546 176.909 181.435C176.748 181.31 176.639 181.232 176.545 181.147L175.876 181.89ZM176.524 182.735C176.426 182.84 176.39 182.827 176.415 182.826C176.431 182.825 176.409 182.834 176.33 182.779C176.25 182.724 176.16 182.637 176.045 182.516C175.946 182.411 175.809 182.259 175.682 182.145L175.015 182.889C175.101 182.966 175.186 183.063 175.318 183.203C175.436 183.327 175.588 183.482 175.762 183.602C175.937 183.724 176.183 183.843 176.479 183.824C176.785 183.804 177.044 183.645 177.257 183.415L176.524 182.735ZM175.68 182.142C172.324 179.178 168.993 176.188 165.649 173.203L164.983 173.949C168.325 176.932 171.66 179.925 175.018 182.892L175.68 182.142ZM165.648 173.203C165.322 172.912 164.991 172.623 164.599 172.28L163.941 173.033C164.334 173.377 164.661 173.663 164.983 173.95L165.648 173.203ZM163.866 172.361L163.862 172.367L164.669 172.958L164.673 172.952L163.866 172.361ZM164.303 178.08C164.624 180.978 164.945 183.875 165.266 186.773C165.587 189.671 165.908 192.569 166.23 195.467L167.223 195.357C166.902 192.459 166.581 189.561 166.26 186.663C165.939 183.765 165.618 180.867 165.297 177.969L164.303 178.08ZM166.229 195.461C166.249 195.67 166.268 195.817 166.265 195.965L167.265 195.985C167.269 195.76 167.241 195.531 167.224 195.363L166.229 195.461ZM166.265 195.958C166.262 196.043 166.256 196.114 166.244 196.172C166.233 196.23 166.219 196.262 166.211 196.278C166.207 196.285 166.204 196.287 166.204 196.287C166.204 196.288 166.204 196.287 166.205 196.287C166.205 196.287 166.205 196.287 166.205 196.287C166.205 196.287 166.201 196.289 166.191 196.292C166.18 196.296 166.162 196.3 166.133 196.302L166.21 197.299C166.61 197.268 166.908 197.075 167.081 196.77C167.229 196.508 167.257 196.208 167.265 195.992L166.265 195.958ZM166.133 196.302C166.072 196.307 166.055 196.297 166.062 196.3C166.07 196.303 166.074 196.309 166.07 196.304C166.063 196.294 166.047 196.267 166.031 196.211C166.014 196.156 166.001 196.086 165.989 196L164.998 196.128C165.025 196.342 165.082 196.645 165.261 196.892C165.475 197.186 165.808 197.331 166.211 197.299L166.133 196.302ZM165.99 196.003C165.743 193.999 165.491 192.002 165.266 190.001L164.272 190.113C164.498 192.121 164.751 194.126 164.997 196.125L165.99 196.003ZM165.266 190.001C164.778 185.648 164.306 181.292 163.828 176.936L162.834 177.045C163.312 181.4 163.784 185.758 164.272 190.112L165.266 190.001ZM163.829 176.942C163.823 176.886 163.816 176.832 163.81 176.785C163.804 176.736 163.799 176.695 163.795 176.655C163.786 176.574 163.785 176.522 163.79 176.483L162.796 176.372C162.78 176.517 162.789 176.652 162.8 176.759C162.806 176.814 162.813 176.867 162.819 176.913C162.825 176.96 162.83 177.001 162.834 177.039L163.829 176.942ZM163.79 176.474C163.804 176.33 163.835 176.262 163.854 176.237C163.86 176.229 163.864 176.226 163.868 176.224C163.874 176.221 163.894 176.211 163.942 176.207L163.863 175.21C163.517 175.238 163.235 175.39 163.048 175.645C162.876 175.878 162.816 176.153 162.795 176.381L163.79 176.474ZM163.943 176.207C163.996 176.203 164.017 176.21 164.018 176.211C164.019 176.211 164.018 176.211 164.016 176.21C164.015 176.208 164.015 176.208 164.016 176.21C164.019 176.213 164.032 176.228 164.047 176.265C164.062 176.302 164.076 176.353 164.087 176.42L165.073 176.252C165.035 176.029 164.953 175.751 164.752 175.532C164.527 175.288 164.214 175.182 163.862 175.211L163.943 176.207ZM164.088 176.422C164.185 176.976 164.259 177.521 164.349 178.095L165.337 177.941C165.251 177.393 165.172 176.814 165.073 176.249L164.088 176.422ZM164.766 177.524C164.758 177.525 164.75 177.526 164.742 177.528C164.734 177.529 164.726 177.53 164.718 177.531L164.872 178.519C164.88 178.518 164.888 178.517 164.896 178.516C164.904 178.514 164.912 178.513 164.92 178.512L164.766 177.524ZM164.872 178.519L164.877 178.519L164.723 177.531L164.717 177.531L164.872 178.519Z" fill="black"/>
<path d="M117 123.763L136.614 213.671" stroke="black" stroke-width="0.730361" stroke-linecap="round" stroke-linejoin="round"/>
<path d="M226.624 181.712L197.18 87.2397" stroke="black" stroke-width="0.730361" stroke-linecap="round" stroke-linejoin="round"/>
</svg>
